
<svg width="48px" height="47px" viewBox="698 478 48 47" version="1.1" xmlns="http://www.w3.org/2000/svg" xmlns:xlink="http://www.w3.org/1999/xlink">
    <defs></defs>
    <path d="M720.392857,510.169643 L719.991071,520.026786 L719.9375,520.616071 L708.6875,519.839286 C708.04464,519.785714 707.446431,519.504467 706.892857,518.995536 C706.339283,518.486605 705.919644,517.901789 705.633929,517.241071 C705.437499,516.758926 705.308036,516.26786 705.245536,515.767857 C705.183035,515.267855 705.218749,514.687503 705.352679,514.026786 C705.486608,513.366068 705.59375,512.875002 705.674107,512.553571 C705.754465,512.232141 705.946427,511.660718 706.25,510.839286 C706.553573,510.017853 706.723214,509.544643 706.758929,509.419643 C708.151793,509.63393 712.69639,509.883927 720.392857,510.169643 L720.392857,510.169643 Z M710.026786,494.473214 L714.848214,504.625 L710.910714,502.160714 C709.785709,503.446435 708.790183,504.736601 707.924107,506.03125 C707.058031,507.325899 706.410716,508.44196 705.982143,509.379464 C705.553569,510.316969 705.200894,511.160711 704.924107,511.910714 C704.64732,512.660718 704.482143,513.223212 704.428571,513.598214 L704.321429,514.160714 L699.232143,504.598214 C698.92857,504.133926 698.767857,503.633931 698.75,503.098214 C698.732143,502.562497 698.785714,502.142859 698.910714,501.839286 L699.125,501.357143 C699.750003,500.232137 700.76785,498.553583 702.178571,496.321429 L698.428571,494.017857 L710.026786,494.473214 Z M743,508.321429 L737.964286,517.9375 C737.749999,518.45536 737.424109,518.870534 736.986607,519.183036 C736.549105,519.495537 736.160716,519.678571 735.821429,519.732143 L735.339286,519.839286 C734.071422,519.964286 732.116085,520.071428 729.473214,520.160714 L729.6875,524.553571 L723.526786,514.723214 L729.178571,505.026786 L729.366071,509.660714 C732.401801,509.94643 734.928561,509.991072 736.946429,509.794643 C738.964296,509.598213 740.482138,509.303573 741.5,508.910714 L743,508.321429 Z M721.973214,483.571429 C721.133924,484.696434 718.767877,488.580324 714.875,495.223214 L706.383929,490.214286 L705.875,489.892857 L711.901786,480.357143 C712.25893,479.803569 712.794639,479.401787 713.508929,479.151786 C714.223218,478.901784 714.937496,478.8125 715.651786,478.883929 C716.080359,478.919643 716.513391,479.026785 716.950893,479.205357 C717.388395,479.383929 717.763391,479.571428 718.075893,479.767857 C718.388394,479.964287 718.758926,480.258927 719.1875,480.651786 C719.616074,481.044645 719.937499,481.352677 720.151786,481.575893 C720.366072,481.799108 720.687498,482.151783 721.116071,482.633929 C721.544645,483.116074 721.830356,483.428571 721.973214,483.571429 L721.973214,483.571429 Z M739.517857,491.794643 L745.196429,501.517857 C745.517859,502.178575 745.629465,502.857139 745.53125,503.553571 C745.433035,504.250003 745.187502,504.910711 744.794643,505.535714 C744.562499,505.892859 744.267859,506.223213 743.910714,506.526786 C743.55357,506.830359 743.214287,507.080356 742.892857,507.276786 C742.571427,507.473215 742.138396,507.669642 741.59375,507.866071 C741.049104,508.062501 740.629466,508.205357 740.334821,508.294643 C740.040177,508.383929 739.58036,508.508928 738.955357,508.669643 C738.330354,508.830358 737.919644,508.9375 737.723214,508.991071 C737.116068,507.705351 734.750021,503.812533 730.625,497.3125 L739.008929,492.089286 L739.517857,491.794643 Z M735.6875,485.741071 L739.491071,483.517857 L733.598214,493.508929 L722.375,492.973214 L726.419643,490.669643 C725.812497,489.080349 725.142861,487.598221 724.410714,486.223214 C723.678568,484.848207 723.004467,483.74554 722.388393,482.915179 C721.772318,482.084817 721.196431,481.370539 720.660714,480.772321 C720.124997,480.174104 719.705359,479.75893 719.401786,479.526786 L718.946429,479.178571 L729.794643,479.205357 C730.348217,479.151785 730.866069,479.245535 731.348214,479.486607 C731.83036,479.72768 732.17857,479.982142 732.392857,480.25 L732.6875,480.651786 C733.383932,481.741077 734.383922,483.437488 735.6875,485.741071 L735.6875,485.741071 Z" id="recycle---FontAwesome" stroke="none" fill="#FFFFFF" fill-rule="evenodd"></path>
</svg>