
<svg width="173px" height="84px" viewBox="745 2140 173 84" version="1.1" xmlns="http://www.w3.org/2000/svg" xmlns:xlink="http://www.w3.org/1999/xlink">
    <defs></defs>
    <g id="Verizon" stroke="none" stroke-width="1" fill="none" fill-rule="evenodd" transform="translate(745.793548, 2140.000000)">
        <polyline id="Fill-2" fill="#BCCBD4" points="6.21470215 55.5417248 10.1195716 75.8518175 20.802205 75.9467282 32.8257661 55.6421719 24.2802079 55.6421719 16.9293276 68.4527397 15.844337 55.5417248 6.21470215 55.5417248"></polyline>
        <path d="M41.0468326,62.8474737 L49.2688132,62.8474737 C49.2688132,62.8474737 49.669172,60.3086132 45.3566312,60.3086132 C41.0468326,60.3086132 41.0468326,62.8474737 41.0468326,62.8474737 L41.0468326,62.8474737 Z M38.7653358,67.2363013 L57.0520443,67.2363013 C57.0520443,67.2363013 58.6507374,55.4531415 46.3365048,55.4531415 C34.0231863,55.4531415 30.1119184,65.2914235 30.1119184,68.6417702 C30.1119184,71.9968624 33.2636014,76.8800164 41.2643792,76.8800164 C49.2688132,76.8800164 53.1435186,74.7468991 56.2924595,70.4300454 L47.638128,70.4300454 C47.638128,70.4300454 45.9352319,71.9027426 42.3502839,71.9027426 C38.7653358,71.9027426 38.7653358,67.2363013 38.7653358,67.2363013 L38.7653358,67.2363013 Z" id="Fill-3" fill="#BCCBD4"></path>
        <path d="M58.466097,75.9467282 L62.4495758,55.5417248 L70.3415802,55.5417248 L69.4777924,59.7470584 C69.4777924,59.7470584 73.3863181,54.8868411 79.2171146,54.8868411 L77.3697969,63.0357132 C77.3697969,63.0357132 69.1185663,61.908649 68.2803722,68.7358899 C67.4458343,75.5686673 67.337061,75.9467282 67.337061,75.9467282 L58.466097,75.9467282" id="Fill-4" fill="#BCCBD4"></path>
        <polyline id="Fill-5" fill="#BCCBD4" points="81.4949551 55.4531415 77.4776561 75.7576977 87.3294078 75.7576977 91.3512771 55.3590217 81.4949551 55.4531415"></polyline>
        <polyline id="Fill-6" fill="#BCCBD4" points="82.5826879 52.4421004 83.4510461 46.9262086 92.2881898 46.9262086 91.4509098 52.4421004 82.5826879 52.4421004"></polyline>
        <polyline id="Fill-7" fill="#BCCBD4" points="93.0496028 61.5305881 93.5952974 55.3590217 116.735671 55.3590217 116.518124 58.3360531 99.7834917 77.8908151 168.009934 79.6237257 167.249435 82.2068778 88.5195155 83.8069136 88.9564367 80.8963197 104.965305 61.5305881 93.0496028 61.5305881"></polyline>
        <path d="M125.172456,66.1970295 C125.172456,62.8474737 126.147759,61.0584075 128.741865,61.0584075 C131.361564,61.0584075 132.51968,62.8474737 132.51968,66.1076552 C132.51968,69.8637451 131.030674,71.0525012 128.741865,71.1521574 C126.581024,71.2462772 125.172456,69.5861313 125.172456,66.1970295 L125.172456,66.1970295 Z M132.198844,55.2641111 C136.866041,55.2641111 141.938167,57.3972284 141.938167,64.6025302 C141.938167,68.7358899 137.594548,76.8800164 124.735535,76.8800164 C118.578418,76.8800164 114.703713,74.3466924 114.703713,68.6417702 C114.703713,65.9194157 117.060163,55.2641111 132.198844,55.2641111 L132.198844,55.2641111 Z" id="Fill-8" fill="#BCCBD4"></path>
        <path d="M141.828479,76.0353114 L146.063325,55.5417248 L154.82643,55.5417248 L154.068673,58.7085775 C154.068673,58.7085775 156.675575,54.7919305 163.807995,54.7919305 C170.941329,54.7919305 171.271305,59.0866383 171.050102,59.8419691 C170.835298,60.5917634 168.115965,75.9467282 168.115965,75.9467282 L159.24683,75.9467282 L161.31078,64.135886 C161.31078,64.135886 162.03563,61.247438 158.049409,61.247438 C155.263351,61.247438 154.287133,63.1250874 154.287133,63.1250874 L151.892293,75.8518175 L141.828479,76.0353114" id="Fill-9" fill="#BCCBD4"></path>
        <polyline id="Fill-10" fill="#BCCBD4" points="19.8451829 47.5146548 162.402169 2.28418349 162.151716 0.984698213 21.3451573 42.7540937 1.58863838 0.117847417 0.0859217535 0.984698213 19.8451829 47.5146548"></polyline>
    </g>
</svg>