
<svg width="228px" height="84px" viewBox="968 2141 228 84" version="1.1" xmlns="http://www.w3.org/2000/svg" xmlns:xlink="http://www.w3.org/1999/xlink">
    <defs>
        <polygon id="path-1" points="0.04275 0.262483851 0.04275 26.331913 227.38725 26.331913 227.38725 0.262483851 0.04275 0.262483851"></polygon>
    </defs>
    <g id="header-logo2" stroke="none" stroke-width="1" fill="none" fill-rule="evenodd" transform="translate(968.000000, 2141.000000)">
        <g id="Group-4">
            <mask id="mask-2" fill="white">
                <use xlink:href="#path-1"></use>
            </mask>
            <g id="Clip-2"></g>
        </g>
        <path d="M154.035375,11.0096274 C151.62,10.4101242 149.24025,9.6545003 146.753625,9.30479007 C142.443,7.66864577 137.761875,7.06914252 133.315875,5.81393258 L118.681125,3.20984033 C112.225875,2.31683028 105.849,0.924234181 99.315375,0.562034299 C93.48,-0.149875813 87.53775,0.493341218 81.816375,1.58618569 C76.722,2.5916026 71.556375,3.34722649 66.554625,4.68361916 C61.353375,5.97629805 56.394375,7.89970432 51.435375,9.76066233 C49.46175,10.4788173 47.716125,11.5841514 46.120125,12.8081372 C58.104375,9.6794796 70.35225,7.03791839 82.878,6.36347723 C89.50425,5.88887049 96.159,5.84515671 102.7995,5.99503253 C107.851125,6.07621526 112.852875,7.32518037 117.897375,7.21277351 L133.375012,9.28355766 C133.375012,9.28355766 141.452625,10.9471792 146.497125,11.5654169 C152.852625,12.4147132 159.094125,13.888492 165.48525,14.5254642 C161.958375,12.6957303 157.90425,12.0400237 154.035375,11.0096274" id="Fill-1" fill="#BCCBD4"></path>
        <path d="M224.401875,24.9106091 C210.672,20.2582141 195.887625,18.3972561 181.21725,18.4097457 C175.239375,18.1911768 169.254375,18.6408043 163.312125,19.1965937 L135.261,19.9272383 C133.36575,19.5962626 131.42775,19.6212419 129.511125,19.614997 C122.742375,19.652466 115.98075,19.1216558 109.219125,19.4526316 C97.092375,19.2715316 84.951375,18.9280662 72.838875,18.3098285 C68.84175,18.1224837 64.873125,17.5542046 60.86175,17.5479598 C49.6185,16.3114843 38.254125,15.393495 26.896875,15.8243879 C17.271,16.3302188 7.103625,18.7094973 0,24.698285 C4.845,23.1433235 9.711375,21.5696274 14.855625,20.976369 C30.758625,18.8843525 46.854,20.582945 62.821125,20.9826138 L62.764125,21.1699586 C78.24675,21.8194205 93.72225,22.6000237 109.219125,22.8248374 C115.29675,23.0434063 121.375087,22.7211733 127.459125,22.8123477 C130.3875,22.8560615 133.323,22.7061857 136.222875,22.3252513 L163.305,22.1129273 C169.21875,23.0558959 175.26075,22.8685512 181.24575,22.7748788 C193.151625,22.7124305 205.1145,23.0558959 216.892125,24.6857954 C220.419,25.1104435 223.76775,26.4967948 227.38725,26.3156949 C226.411125,25.809864 225.442125,25.2977883 224.401875,24.9106091" id="Fill-3" fill="#BCCBD4"></path>
        <path d="M27.531,28.4639148 C32.27625,28.4639148 37.0215,28.4514252 41.773875,28.4701597 C41.674125,34.5651094 41.788125,40.6538143 41.688375,46.7425192 C47.388375,40.6350798 52.953,34.4277232 58.75275,28.4014666 C63.861375,28.5263631 68.977125,28.4389355 74.08575,28.45767 C68.164875,34.7961679 62.464875,41.2845417 56.55825,47.6292844 C63.31275,54.910751 70.102875,62.1672383 76.85025,69.4549497 C71.100375,69.4237256 65.357625,69.4237256 59.60775,69.4674394 C53.58,63.1164518 47.66625,56.6905263 41.6955,50.3083146 C41.759625,56.6905263 41.724,63.0664932 41.731125,69.4487049 C37.000125,69.4424601 32.269125,69.4487049 27.538125,69.4424601 C27.523875,55.7850266 27.54525,42.1213483 27.531,28.4639148" id="Fill-5" fill="#BCCBD4"></path>
        <path d="M119.593125,28.4764045 C123.69,28.4514252 127.77975,28.4639148 131.876625,28.4639148 C131.85525,42.1151035 131.876625,55.772537 131.8695,69.4299704 C127.786875,69.4299704 123.711375,69.4362153 119.635875,69.4299704 C119.621625,55.7787818 119.7,42.1275931 119.593125,28.4764045" id="Fill-6" fill="#BCCBD4"></path>
        <path d="M140.683125,28.45767 C144.772875,28.4639148 148.86975,28.45767 152.966625,28.4764045 C152.852625,42.133838 152.94525,55.7850266 152.91675,69.4424601 C148.84125,69.4487049 144.772875,69.4487049 140.697375,69.4487049 C140.676,55.7850266 140.7045,42.1213483 140.683125,28.45767" id="Fill-7" fill="#BCCBD4"></path>
        <path d="M158.210625,39.3111768 C162.599625,39.3361561 166.988625,39.2986872 171.377625,39.3611354 C173.75025,44.2383442 175.8165,49.221715 178.3815,54.0239858 C180.982125,49.1655115 183.58275,44.3007924 186.112125,39.411094 C190.10925,39.267463 194.106375,39.3361561 198.1035,39.3174216 C190.323,53.8865996 182.52825,68.4495328 174.77625,83.0312005 C170.636625,83.0686694 166.497,83.0561798 162.357375,83.0436901 C165.563625,77.2110231 168.62025,71.3221526 171.84075,65.5019752 C167.30925,56.771709 162.7635,48.0414429 158.210625,39.3111768" id="Fill-9" fill="#BCCBD4"></path>
        <path d="M90.55875,47.0859846 C92.86725,44.9502543 97.234875,44.7191957 99.67875,46.8049675 C101.16075,48.0539326 101.403,49.9336251 101.908875,51.5885038 C97.37025,51.6696866 92.831625,51.6759314 88.293,51.582259 C88.8915,50.0460319 89.1765,48.2787463 90.55875,47.0859846 L90.55875,47.0859846 Z M96.1305,62.8729036 C92.625,62.28589 90.109875,59.8254287 88.699125,57.0839503 C96.850125,56.9278297 105.001125,57.0652158 113.152125,57.0090124 C113.1165,52.9186517 113.01675,48.5160497 110.22375,45.031437 C107.103,40.6850384 101.053875,38.6117564 95.361,38.8240804 C89.61825,38.8240804 83.497875,40.5414075 79.87125,44.638013 C75.988125,49.0655943 75.517875,55.3104199 77.655375,60.4561561 C79.607625,65.1585098 84.680625,68.4620225 90.181125,69.411236 C97.59825,70.591508 105.45,69.8109048 112.2045,66.8008989 C112.197375,64.5714962 112.2045,62.3420934 112.233,60.1189355 C107.20275,62.0173625 101.680875,63.7284447 96.1305,62.8729036 L96.1305,62.8729036 Z" id="Fill-11" fill="#BCCBD4"></path>
        <path d="M32.4123375,80.34655 L31.5117375,78.1096535 L30.6204,80.34655 L32.4123375,80.34655 L32.4123375,80.34655 Z M32.9353125,81.6923099 L30.0724875,81.6923099 L29.6749125,82.7189592 L27.10065,82.7189592 L30.16725,76.496615 L32.9182125,76.496615 L35.9841,82.7189592 L33.343575,82.7189592 L32.9353125,81.6923099 L32.9353125,81.6923099 Z" id="Fill-12" fill="#BCCBD4"></path>
        <path d="M41.5245,76.496615 L44.0403375,76.496615 L44.0403375,80.2041679 C44.0403375,80.5713637 43.9648125,80.9192005 43.8151875,81.2451804 C43.66485,81.5717847 43.4290125,81.8571733 43.107675,82.1019704 C42.78705,82.3467676 42.4500375,82.5185003 42.09735,82.6171685 C41.6078625,82.7558037 41.0193375,82.8251212 40.3332,82.8251212 C39.935625,82.8251212 39.502425,82.8038888 39.0336,82.7620485 C38.56335,82.7189592 38.171475,82.6352785 37.8558375,82.5091331 C37.5402,82.3836121 37.25235,82.2043856 36.99015,81.9727025 C36.7286625,81.7410195 36.549825,81.5018427 36.452925,81.2564211 C36.2976,80.8598746 36.219225,80.5089154 36.219225,80.2041679 L36.219225,76.496615 L38.735775,76.496615 L38.735775,80.29222 C38.735775,80.6319385 38.858325,80.8960946 39.1055625,81.0871863 C39.3520875,81.2782779 39.6948,81.3738238 40.1329875,81.3738238 C40.5669,81.3738238 40.9067625,81.2801514 41.154,81.0915577 C41.400525,80.9035884 41.5245,80.6369344 41.5245,80.29222 L41.5245,76.496615" id="Fill-13" fill="#BCCBD4"></path>
        <polyline id="Fill-14" fill="#BCCBD4" points="44.954475 76.496615 52.6188375 76.496615 52.6188375 78.0328421 50.047425 78.0328421 50.047425 82.7189592 47.5258875 82.7189592 47.5258875 78.0328421 44.954475 78.0328421 44.954475 76.496615"></polyline>
        <path d="M55.3926,79.6202768 C55.3926,80.2485062 55.5457875,80.7000071 55.8521625,80.9741549 C56.157825,81.2495517 56.5746375,81.3869379 57.101175,81.3869379 C57.6433875,81.3869379 58.0623375,81.2520497 58.35945,80.9828977 C58.6565625,80.7143702 58.8047625,80.2316452 58.8047625,79.5359716 C58.8047625,78.950207 58.6494375,78.5224364 58.3402125,78.2520355 C58.030275,77.9816345 57.6099,77.8467463 57.0790875,77.8467463 C56.5703625,77.8467463 56.1628125,77.983508 55.8550125,78.2582803 C55.5465,78.5324281 55.3926,78.9870514 55.3926,79.6202768 L55.3926,79.6202768 Z M52.8710625,79.6121585 C52.8710625,78.5967499 53.2415625,77.8055305 53.9847,77.2397493 C54.7264125,76.6739681 55.76025,76.3910775 57.0847875,76.3910775 C58.4428125,76.3910775 59.489475,76.6689722 60.2240625,77.2247617 C60.9593625,77.7805512 61.3263,78.5592809 61.3263,79.5615754 C61.3263,80.2884731 61.1659875,80.8848539 60.84465,81.3500934 C60.524025,81.8159574 60.0601875,82.1781573 59.4531375,82.4366931 C58.8468,82.6958533 58.090125,82.8251212 57.18525,82.8251212 C56.2647,82.8251212 55.5030375,82.7139633 54.9002625,82.4897741 C54.296775,82.2668338 53.808,81.9127522 53.433225,81.4287782 C53.05845,80.9454287 52.8710625,80.3396807 52.8710625,79.6121585 L52.8710625,79.6121585 Z" id="Fill-15" fill="#BCCBD4"></path>
        <polyline id="Fill-16" fill="#BCCBD4" points="62.4741375 76.496615 65.790825 76.496615 67.0697625 80.2828527 68.3394375 76.496615 71.653275 76.496615 71.653275 82.7189592 69.58845 82.7189592 69.58845 77.9741407 67.9974375 82.7189592 66.1278375 82.7189592 64.539675 77.9741407 64.539675 82.7189592 62.4741375 82.7189592 62.4741375 76.496615"></polyline>
        <path d="M75.284175,79.6202768 C75.284175,80.2485062 75.4373625,80.7000071 75.7437375,80.9741549 C76.0494,81.2495517 76.4662125,81.3869379 76.99275,81.3869379 C77.5349625,81.3869379 77.9539125,81.2520497 78.251025,80.9828977 C78.5481375,80.7143702 78.6963375,80.2316452 78.6963375,79.5359716 C78.6963375,78.950207 78.5410125,78.5224364 78.2317875,78.2520355 C77.92185,77.9816345 77.501475,77.8467463 76.9706625,77.8467463 C76.4619375,77.8467463 76.0543875,77.983508 75.745875,78.2582803 C75.438075,78.5324281 75.284175,78.9870514 75.284175,79.6202768 L75.284175,79.6202768 Z M72.7626375,79.6121585 C72.7626375,78.5967499 73.1331375,77.8055305 73.8755625,77.2397493 C74.6179875,76.6739681 75.651825,76.3910775 76.9763625,76.3910775 C78.3343875,76.3910775 79.38105,76.6689722 80.1156375,77.2247617 C80.8509375,77.7805512 81.217875,78.5592809 81.217875,79.5615754 C81.217875,80.2884731 81.0575625,80.8848539 80.736225,81.3500934 C80.4156,81.8159574 79.9517625,82.1781573 79.3447125,82.4366931 C78.738375,82.6958533 77.9817,82.8251212 77.076825,82.8251212 C76.156275,82.8251212 75.3946125,82.7139633 74.7918375,82.4897741 C74.18835,82.2668338 73.699575,81.9127522 73.3248,81.4287782 C72.950025,80.9454287 72.7626375,80.3396807 72.7626375,79.6121585 L72.7626375,79.6121585 Z" id="Fill-17" fill="#BCCBD4"></path>
        <polyline id="Fill-18" fill="#BCCBD4" points="81.5249625 76.496615 89.1900375 76.496615 89.1900375 78.0328421 86.618625 78.0328421 86.618625 82.7189592 84.0970875 82.7189592 84.0970875 78.0328421 81.5249625 78.0328421 81.5249625 76.496615"></polyline>
        <polygon id="Fill-19" fill="#BCCBD4" points="90.2488125 82.7189592 92.77605 82.7189592 92.77605 76.496615 90.2488125 76.496615"></polygon>
        <polyline id="Fill-20" fill="#BCCBD4" points="93.6018375 76.496615 96.237375 76.496615 98.0742 80.9741549 99.8875125 76.496615 102.446812 76.496615 99.41655 82.7189592 96.6834 82.7189592 93.6018375 76.496615"></polyline>
        <polyline id="Fill-21" fill="#BCCBD4" points="103.082362 76.496615 109.839712 76.496615 109.839712 77.8248894 105.6096 77.8248894 105.6096 78.8140698 109.533337 78.8140698 109.533337 80.0836428 105.6096 80.0836428 105.6096 81.3101266 109.962262 81.3101266 109.962262 82.7189592 103.082362 82.7189592 103.082362 76.496615"></polyline>
        <path d="M118.859962,80.4652017 L118.859962,79.1706493 L122.756625,79.1706493 L122.756625,81.8234512 C122.010637,82.2112549 121.350862,82.475411 120.778012,82.6146706 C120.20445,82.7551792 119.524725,82.8251212 118.737412,82.8251212 C117.769125,82.8251212 116.979675,82.6996002 116.369062,82.4479338 C115.759162,82.1956428 115.286062,81.8209533 114.949762,81.3226162 C114.613462,80.8249036 114.446025,80.2528776 114.446025,79.6077871 C114.446025,78.9289746 114.62985,78.3382141 114.996787,77.8361301 C115.364437,77.3334216 115.902375,76.9524873 116.611312,76.6920781 C117.164212,76.4909947 117.908062,76.3910775 118.843575,76.3910775 C119.744887,76.3910775 120.419625,76.4529012 120.867075,76.5771733 C121.314525,76.7020698 121.685025,76.8950349 121.98,77.1566931 C122.274975,77.4183513 122.497275,77.7499515 122.645475,78.1521183 L120.213,78.483094 C120.112537,78.2482886 119.942962,78.0684376 119.703562,77.9441656 C119.464162,77.8198936 119.1585,77.7574453 118.788,77.7574453 C118.234387,77.7574453 117.794062,77.9035742 117.4656,78.1964565 C117.137137,78.4893389 116.973262,78.9527049 116.973262,79.5871792 C116.973262,80.2603714 117.139275,80.7412229 117.4713,81.0297339 C117.803325,81.3182448 118.26645,81.4631248 118.859962,81.4631248 C119.142112,81.4631248 119.411437,81.4319007 119.667225,81.3694524 C119.923012,81.3076286 120.216562,81.2014666 120.54645,81.0509663 L120.54645,80.4652017 L118.859962,80.4652017" id="Fill-22" fill="#BCCBD4"></path>
        <path d="M126.637612,79.0182756 L127.700662,79.0182756 C127.816087,79.0182756 128.038387,78.9901739 128.368987,78.9333459 C128.535712,78.9077422 128.672512,78.8421715 128.777962,78.7378829 C128.884125,78.6329698 128.93685,78.5130692 128.93685,78.376932 C128.93685,78.1764731 128.853487,78.0222259 128.68605,77.9141904 C128.519325,77.8067794 128.205112,77.7530739 127.74555,77.7530739 L126.637612,77.7530739 L126.637612,79.0182756 L126.637612,79.0182756 Z M124.105387,82.7189592 L124.105387,76.496615 L128.307712,76.496615 C129.087187,76.496615 129.682837,76.5478226 130.094662,76.6496132 C130.506487,76.7514039 130.838512,76.9399976 131.090737,77.2160189 C131.343675,77.4920402 131.469075,77.8280118 131.469075,78.2239338 C131.469075,78.5698971 131.372887,78.8671508 131.1798,79.1175683 C130.986712,79.3679858 130.721662,79.5709426 130.383225,79.7264388 C130.16805,79.826356 129.872362,79.9075387 129.497587,79.9731094 C129.798262,80.0492963 130.016287,80.1261076 130.154512,80.2022945 C130.247137,80.2535021 130.381087,80.362162 130.557075,80.5295234 C130.733062,80.6968847 130.851337,80.8255281 130.910475,80.9160781 L132.1317,82.7189592 L129.282412,82.7189592 L127.935075,80.8174098 C127.764075,80.5713637 127.6116,80.4114962 127.478362,80.3378072 C127.296675,80.2422614 127.090762,80.1935517 126.860625,80.1935517 L126.637612,80.1935517 L126.637612,82.7189592 L124.105387,82.7189592 L124.105387,82.7189592 Z" id="Fill-23" fill="#BCCBD4"></path>
        <path d="M134.765812,79.6202768 C134.765812,80.2485062 134.919,80.7000071 135.225375,80.9741549 C135.53175,81.2495517 135.948562,81.3869379 136.4751,81.3869379 C137.017312,81.3869379 137.436262,81.2520497 137.733375,80.9828977 C138.030487,80.7143702 138.178687,80.2316452 138.178687,79.5359716 C138.178687,78.950207 138.023362,78.5224364 137.713425,78.2520355 C137.4042,77.9816345 136.983825,77.8467463 136.453012,77.8467463 C135.944287,77.8467463 135.536737,77.983508 135.228225,78.2582803 C134.919712,78.5324281 134.765812,78.9870514 134.765812,79.6202768 L134.765812,79.6202768 Z M132.244275,79.6121585 C132.244275,78.5967499 132.615488,77.8055305 133.357913,77.2397493 C134.100338,76.6739681 135.133463,76.3910775 136.458,76.3910775 C137.816738,76.3910775 138.862688,76.6689722 139.597987,77.2247617 C140.332575,77.7805512 140.700225,78.5592809 140.700225,79.5615754 C140.700225,80.2884731 140.5392,80.8848539 140.218575,81.3500934 C139.89795,81.8159574 139.4334,82.1781573 138.827063,82.4366931 C138.220012,82.6958533 137.46405,82.8251212 136.558463,82.8251212 C135.637913,82.8251212 134.876963,82.7139633 134.273475,82.4897741 C133.669988,82.2668338 133.181925,81.9127522 132.806438,81.4287782 C132.431663,80.9454287 132.244275,80.3396807 132.244275,79.6121585 L132.244275,79.6121585 Z" id="Fill-24" fill="#BCCBD4"></path>
        <path d="M147.1854,76.496615 L149.701238,76.496615 L149.701238,80.2041679 C149.701238,80.5713637 149.626425,80.9192005 149.476088,81.2451804 C149.32575,81.5717847 149.089913,81.8571733 148.769288,82.1019704 C148.448663,82.3467676 148.11165,82.5185003 147.758963,82.6171685 C147.268763,82.7558037 146.68095,82.8251212 145.9941,82.8251212 C145.597238,82.8251212 145.164038,82.8038888 144.6945,82.7620485 C144.224963,82.7189592 143.832375,82.6352785 143.51745,82.5091331 C143.201813,82.3836121 142.91325,82.2043856 142.651763,81.9727025 C142.390275,81.7410195 142.211438,81.5018427 142.114538,81.2564211 C141.9585,80.8598746 141.880838,80.5089154 141.880838,80.2041679 L141.880838,76.496615 L144.396675,76.496615 L144.396675,80.29222 C144.396675,80.6319385 144.519938,80.8960946 144.767175,81.0871863 C145.0137,81.2782779 145.356413,81.3738238 145.793888,81.3738238 C146.2278,81.3738238 146.568375,81.2801514 146.815613,81.0915577 C147.062138,80.9035884 147.1854,80.6369344 147.1854,80.29222 L147.1854,76.496615" id="Fill-25" fill="#BCCBD4"></path>
        <path d="M153.710475,79.1500414 L154.328925,79.1500414 C154.81485,79.1500414 155.156138,79.0850952 155.352788,78.9564518 C155.549438,78.8278084 155.647763,78.662945 155.647763,78.4618616 C155.647763,78.2663986 155.562263,78.1015352 155.391975,77.965398 C155.220975,77.8292608 154.899638,77.7618167 154.428675,77.7618167 L153.710475,77.7618167 L153.710475,79.1500414 L153.710475,79.1500414 Z M151.17825,76.496615 L155.369175,76.496615 C156.2826,76.496615 156.9666,76.6621029 157.420462,76.9930787 C157.875037,77.3246789 158.102325,77.7955387 158.102325,78.4069072 C158.102325,79.0351366 157.855087,79.5259799 157.359187,79.879437 C156.864,80.2335186 156.108037,80.4102472 155.0913,80.4102472 L153.710475,80.4102472 L153.710475,82.7189592 L151.17825,82.7189592 L151.17825,76.496615 L151.17825,76.496615 Z" id="Fill-26" fill="#BCCBD4"></path>
    </g>
</svg>