
<svg width="889px" height="890px" viewBox="12 -74 889 890" version="1.1" xmlns="http://www.w3.org/2000/svg" xmlns:xlink="http://www.w3.org/1999/xlink">
    <!-- Generator: Sketch 40.2 (33826) - http://www.bohemiancoding.com/sketch -->
    <desc>Created with Sketch.</desc>
    <defs>
        <polygon id="path-1" points="888.718 444.6446 888.718 889 0 889 0 444.6446 0 0.2892 888.718 0.2892"></polygon>
    </defs>
    <g id="Page-1" stroke="none" stroke-width="1" fill="none" fill-rule="evenodd" transform="translate(12.000000, -74.000000)">
        <path d="M667.8469,488.6317 C657.1429,488.8227 648.1739,485.0167 641.2399,477.3657 C622.5729,456.7847 586.6959,445.5207 534.6049,443.8877 C530.2109,443.7507 525.8569,443.6877 521.5619,443.6877 C509.3279,443.6877 497.6229,444.1947 487.1669,444.9167 L798.4749,396.2097 C787.1529,409.1157 716.1069,487.8497 667.8469,488.6317 L667.8469,488.6317 Z M759.3569,635.7417 C751.2529,636.9907 723.6639,640.9317 692.7059,641.8397 C659.0349,642.8307 614.3859,640.3517 592.9059,622.9397 C584.8279,616.3917 580.5269,608.0627 580.1209,598.1827 C578.9649,570.3067 558.4609,538.5247 519.1789,503.7167 C506.6799,492.6417 493.8849,482.7207 482.5459,474.5127 L759.3569,635.7417 Z M565.7149,792.5627 C550.8299,783.6557 459.4009,727.2117 449.9129,679.6427 C447.8289,669.1897 449.9299,659.7687 456.1579,651.6427 C472.9089,629.8137 476.7409,589.9447 467.5469,533.1417 C464.7469,515.8407 461.0999,499.5287 457.7679,486.2957 L565.7149,792.5627 Z M444.9769,456.2047 C445.0329,456.1967 445.0909,456.1977 445.1459,456.1877 C445.1559,456.2207 445.1629,456.2427 445.1749,456.2797 L444.9769,456.2047 Z M442.7469,455.9407 C442.7579,455.9457 442.7709,455.9467 442.7819,455.9517 L442.7699,455.9827 L442.7469,455.9407 Z M132.6269,631.2967 C138.6729,615.2407 177.4299,516.5217 222.3179,498.7747 C232.2859,494.8327 241.9929,495.2207 251.1729,499.9277 L251.1719,499.9267 C262.8779,505.9367 276.6129,508.4167 291.3269,508.4157 C329.1269,508.4137 373.3359,492.0387 405.8769,477.0467 L132.6269,631.2967 Z M213.0389,178.7777 C224.7739,180.9027 251.2069,186.2087 279.1699,195.3087 C320.8579,208.8757 348.6549,225.4187 359.5559,243.1497 C365.1449,252.2397 366.4579,261.8697 363.4609,271.7717 C355.3629,298.5007 364.2559,335.2697 389.8959,381.0567 C398.1919,395.8727 407.1579,409.6427 415.2599,421.2277 L213.0389,178.7777 Z M513.2309,237.6347 C511.7459,248.2617 506.8309,256.1847 498.2039,261.8567 C474.7719,277.2597 457.9879,311.2937 448.3189,363.0097 C445.6399,377.3397 443.8319,391.3817 442.6139,403.9767 L442.6129,95.1827 C454.6639,109.6717 519.8049,190.5427 513.2309,237.6347 L513.2309,237.6347 Z M319.6029,789.6367 C313.7849,772.8957 280.5109,672.5157 303.5679,630.5087 C308.6839,621.1887 316.3509,615.3217 326.3569,613.0737 C371.1749,603.0147 408.6079,540.4427 429.8359,496.4447 L319.6029,789.6367 Z M91.1369,390.9347 C106.5009,382.2117 199.0569,331.4187 244.8999,346.6467 C255.0289,350.0107 262.2029,356.5167 266.2219,365.9827 C276.2509,389.6407 302.9499,410.6967 345.5759,428.5647 C364.4749,436.4867 383.8029,442.6257 400.3519,447.1677 L91.1369,390.9347 Z M679.6019,182.4417 C679.1769,199.6027 675.0729,305.5617 638.5259,337.0787 C630.4079,344.0797 621.1089,346.9057 610.8849,345.4757 C583.2679,341.6247 548.3279,356.1027 507.0499,388.5117 C493.9199,398.8207 481.8979,409.5997 471.8189,419.2547 L679.6019,182.4417 Z M802.5959,394.0317 C802.3329,393.8687 775.9159,377.4997 743.5379,363.2647 C699.7949,344.0347 666.5479,337.6357 644.7169,344.2487 C633.3109,347.7037 625.1139,354.7737 620.3539,365.2637 C609.3439,389.5307 579.4139,410.5037 531.3959,427.5997 C495.8269,440.2627 461.1079,446.7937 448.4909,448.9197 C466.3109,429.2867 550.1759,341.0447 610.3309,349.4377 C621.7489,351.0337 632.1109,347.8937 641.1389,340.1067 C658.4149,325.2067 670.8189,293.7027 678.0029,246.4687 C683.3219,211.5057 683.6449,180.4357 683.6479,180.1267 L683.6669,177.8077 L681.3699,178.1287 C681.0639,178.1717 650.2989,182.5307 616.3249,192.3487 C570.4259,205.6117 540.8039,222.0047 528.2819,241.0697 C521.7369,251.0347 519.9749,261.7187 523.0439,272.8247 C539.2789,331.7177 461.7319,427.0727 445.1639,446.5627 C445.6609,418.9577 450.7339,299.0457 500.9509,266.0337 C510.7139,259.6157 516.5119,250.2937 518.1829,238.3267 C521.3549,215.6047 509.8729,183.6317 484.0569,143.2957 C464.9779,113.4857 444.7079,89.9017 444.5049,89.6677 L442.6129,87.4727 L440.7199,89.6677 C440.5169,89.9017 420.2499,113.4857 401.1719,143.2957 C375.3599,183.6317 363.8789,215.6047 367.0519,238.3267 C368.7229,250.2937 374.5209,259.6157 384.2839,266.0347 C435.4459,299.6607 439.7469,422.4317 440.0849,447.6827 C431.1109,436.5517 410.7679,410.1457 393.3859,379.1027 C368.2979,334.3007 359.5179,298.5797 367.2889,272.9307 C370.6329,261.8857 369.1769,251.1617 362.9639,241.0547 C336.7579,198.4317 232.5169,178.1427 211.8859,174.5077 L209.0929,174.0047 L209.0569,176.3617 C208.9809,181.4467 207.6379,301.3087 247.4969,337.4237 C256.3169,345.4157 266.5799,348.8107 278.0259,347.5027 C304.6209,344.4447 338.1809,359.4767 377.7619,392.1827 C404.1749,414.0087 426.0079,437.9207 435.9169,449.2977 L434.2249,449.0117 C401.4129,442.5597 292.5419,417.3857 269.2659,364.3447 C264.6449,353.8317 256.5649,346.6757 245.2519,343.0757 C194.3329,326.8677 91.1289,388.2527 86.7599,390.8747 L84.7559,392.0767 L86.2529,393.8707 C89.5139,397.7777 166.7229,489.5767 220.1949,491.0027 C220.8179,491.0187 221.4359,491.0237 222.0469,491.0157 C233.1109,490.8767 242.4659,486.7697 249.8769,478.7947 C289.3109,436.3687 400.2729,448.3737 433.2869,453.0567 L440.7919,454.3257 C440.8769,454.4557 440.9799,454.5697 441.0789,454.6887 C425.2439,463.5307 394.2589,479.6417 359.6899,491.2497 C312.8899,506.9637 276.9929,508.6867 252.9979,496.3687 L252.9969,496.3677 C242.7489,491.1137 231.9329,490.6717 220.8459,495.0547 C170.5199,514.9537 129.7569,627.3697 128.0459,632.1457 L127.2659,634.3237 L129.5349,634.7807 C132.4639,635.3707 174.3489,643.6387 217.0729,643.6367 C246.9149,643.6357 277.1739,639.5997 294.8229,626.0927 C304.2729,618.8607 309.4479,609.3667 310.2019,597.8787 C311.9799,571.1507 332.7919,540.8207 372.0609,507.7327 C400.5929,483.6907 430.3779,465.5577 441.6339,459.0027 L438.0929,468.4107 C430.9009,485.5387 415.8599,518.6937 395.9389,548.3037 C372.2469,583.5167 348.5409,603.9947 325.4799,609.1717 C314.3049,611.6827 305.7529,618.2137 300.0619,628.5837 C289.3829,648.0387 288.6259,680.7267 297.8139,725.7377 C304.6569,759.2657 314.6859,787.8367 316.6259,793.2237 L317.4219,795.4327 L319.4759,794.2957 C322.5359,792.6027 350.1809,777.1447 377.9819,756.0007 C414.4779,728.2437 435.4199,703.1827 440.2259,681.5127 C442.7929,669.9347 440.6709,659.3587 433.9179,650.0757 C420.0159,630.9867 415.7009,599.9957 421.0889,557.9637 C425.6279,522.5597 436.1749,487.7457 442.0329,470.2147 L446.1289,459.3367 C452.9839,481.7017 488.0229,603.5457 452.9829,649.2077 C446.0239,658.2907 443.6709,668.7937 445.9919,680.4267 C450.4749,702.9037 472.0389,729.4177 510.0859,759.2317 C538.2489,781.2997 565.4809,797.0747 565.7529,797.2327 L567.7969,798.4117 L568.6689,796.0847 C570.6589,790.8337 580.9569,762.9787 588.3279,730.1427 C598.5699,684.5217 598.4519,651.2307 587.9809,631.1927 C582.4319,620.5767 573.9329,613.7707 562.7179,610.9617 C506.3659,596.8497 457.7379,477.4637 449.8979,457.3147 C462.0779,464.9137 489.9689,483.1787 516.5269,506.7107 C554.9629,540.7697 575.0149,571.6007 576.1249,598.3477 C576.5789,609.4257 581.3779,618.7447 590.3879,626.0477 C609.7739,641.7617 645.8839,646.1277 680.0569,646.1277 C721.2089,646.1277 759.5459,639.7907 762.4189,639.3047 L764.7509,638.9107 L763.9759,636.6767 C763.5739,635.5187 721.4099,519.8827 669.2079,498.2127 C657.6959,493.4337 646.4749,493.6087 635.8579,498.7327 C580.0139,525.6467 470.4809,464.5647 450.2369,452.7527 C463.8329,450.8367 497.9739,446.7427 534.4799,447.8857 C585.4439,449.4837 620.3669,460.3067 638.2769,480.0527 C645.8489,488.4067 655.5529,492.6377 667.1329,492.6377 C667.3919,492.6377 667.6529,492.6357 667.9129,492.6317 C690.7269,492.2607 720.4379,476.0167 756.2209,444.3507 C782.7069,420.9117 802.8639,397.2607 803.0639,397.0247 L804.5649,395.2567 L802.5959,394.0317 Z" id="Fill-1" fill="#FFFFFF"></path>
        <g id="Group-5" transform="translate(0.000000, 0.711000)">
            <mask id="mask-2" fill="white">
                <use xlink:href="#path-1"></use>
            </mask>
            <g id="Clip-4"></g>
            <path d="M444.363,858.4252 C215.84,858.0152 30.992,673.1682 30.601,444.6442 C30.992,216.1212 215.84,31.2732 444.363,30.9762 C672.886,31.2732 857.707,216.1212 858.031,444.6442 C857.707,673.1682 672.886,858.0152 444.363,858.4252 M444.363,0.2892 C198.929,0.3552 0,199.3242 0,444.6442 C0,690.0782 198.929,889.0002 444.363,889.0002 C689.758,889.0002 888.633,690.0782 888.718,444.6442 C888.633,199.3242 689.758,0.3552 444.363,0.2892" id="Fill-3" fill="#FFFFFF" mask="url(#mask-2)"></path>
        </g>
    </g>
</svg>