
<svg width="287px" height="50px" viewBox="0 0 287 50" version="1.1" xmlns="http://www.w3.org/2000/svg" xmlns:xlink="http://www.w3.org/1999/xlink">
    <!-- Generator: Sketch 40.1 (33804) - http://www.bohemiancoding.com/sketch -->
    <desc>Created with Sketch.</desc>
    <defs></defs>
    <g id="Group-2" stroke="none" stroke-width="1" fill="none" fill-rule="evenodd">
        <text id="Sawiana-Solutions" font-family="Raleway-SemiBold, Raleway" font-size="26" font-weight="500" fill="#486474">
            <tspan x="62" y="35">Sawiana Solutions</tspan>
        </text>
        <g id="Group">
            <path d="M21.7693712,14.9142807 C24.8055903,16.9097885 24.9521938,24.2784454 24.9552143,25.3684907 L24.9552143,5.25752428 C24.9552143,5.25752428 18.486762,12.7562282 21.7693712,14.9142807 L21.7693712,14.9142807 Z" id="Fill-1" fill="#486474"></path>
            <path d="M24.9655062,5.25752428 L24.9655062,25.3684907 C24.9703165,24.2788929 25.1162488,16.9097885 28.1517967,14.9142807 C31.4346296,12.7562282 24.9655062,5.25752428 24.9655062,5.25752428 L24.9655062,5.25752428 Z" id="Fill-2" fill="#4EA9CF"></path>
            <path d="M15.7440295,19.4768317 C19.3537418,19.0619119 24.186343,24.6278103 24.8898832,25.4613414 L12.003655,10.0193688 C12.003655,10.0193688 11.8412781,19.9219 15.7440295,19.4768317 L15.7440295,19.4768317 Z" id="Fill-3" fill="#486474"></path>
            <path d="M12.0110383,10.0139432 L24.8940782,25.4543496 C24.2012215,24.6160082 19.5907909,18.8648558 20.645262,15.3844634 C21.7827395,11.6266374 12.0110383,10.0139432 12.0110383,10.0139432 L12.0110383,10.0139432 Z" id="Fill-4" fill="#4EA9CF"></path>
            <path d="M14.0402185,26.8396155 C16.5469647,24.2096463 23.8236658,25.3851031 24.8962596,25.5752234 L5.10954369,21.9728944 C5.10954369,21.9728944 11.3315499,29.6819668 14.0402185,26.8396155 L14.0402185,26.8396155 Z" id="Fill-5" fill="#486474"></path>
            <path d="M5.11105391,21.9643924 L24.8977699,25.5677842 C23.8273575,25.366533 16.6028989,23.9028474 15.1846878,20.5573122 C13.6499657,16.9431812 5.11105391,21.9643924 5.11105391,21.9643924 L5.11105391,21.9643924 Z" id="Fill-6" fill="#4EA9CF"></path>
            <path d="M17.4476168,33.5851657 C17.688805,29.9583935 24.0292799,26.1998963 24.9751268,25.6582297 L7.47578322,35.5673052 C7.47578322,35.5673052 17.189984,37.5022922 17.4476168,33.5851657 L17.4476168,33.5851657 Z" id="Fill-7" fill="#486474"></path>
            <path d="M7.46946265,35.5609846 L24.9703165,25.6519092 C24.0185405,26.1835076 17.5361047,29.6883433 14.3021583,28.0282168 C10.8091247,26.2372603 7.46946265,35.5609846 7.46946265,35.5609846 L7.46946265,35.5609846 Z" id="Fill-8" fill="#4EA9CF"></path>
            <path d="M24.3887129,36.5780918 C22.2498458,33.6410999 24.7103344,26.6925646 25.0878901,25.6715421 L18.0025958,44.4927781 C18.0032111,44.4921069 26.6994657,39.7538667 24.3887129,36.5780918 L24.3887129,36.5780918 Z" id="Fill-9" fill="#486474"></path>
            <path d="M17.9940378,44.4879678 L25.0815136,25.6678504 C24.6906456,26.6851253 21.9579253,33.5333706 18.4127052,34.3291462 C14.5825004,35.1897495 17.9940378,44.4879678 17.9940378,44.4879678 L17.9940378,44.4879678 Z" id="Fill-10" fill="#4EA9CF"></path>
            <path d="M31.6347621,34.4329041 C28.1113563,33.546683 25.5475572,26.634449 25.18488,25.6077771 L31.8021731,44.6002277 C31.8015019,44.5998362 35.4411389,35.389043 31.6347621,34.4329041 L31.6347621,34.4329041 Z" id="Fill-11" fill="#486474"></path>
            <path d="M31.792944,44.6013464 L25.1767696,25.610406 C25.5305532,26.6418882 27.8172544,33.6500493 25.6050576,36.532841 C23.2164444,39.6500528 31.792944,44.6013464 31.792944,44.6013464 L31.792944,44.6013464 Z" id="Fill-12" fill="#4EA9CF"></path>
            <path d="M35.8230575,28.1427141 C32.5498453,29.7202258 26.1552262,26.0550268 25.2189439,25.4980902 L42.4646261,35.8426132 C42.4646261,35.8426132 39.3608944,26.4354351 35.8230575,28.1427141 L35.8230575,28.1427141 Z" id="Fill-13" fill="#486474"></path>
            <path d="M42.4615497,35.8507237 L25.2130708,25.5065922 C26.1440393,26.0716392 32.3900973,29.9880945 32.5406721,33.6177194 C32.7017066,37.5416139 42.4615497,35.8507237 42.4615497,35.8507237 L42.4615497,35.8507237 Z" id="Fill-14" fill="#4EA9CF"></path>
            <path d="M35.0091593,20.6276774 C33.5079418,23.9365197 26.2467345,25.2216635 25.1730779,25.3940526 L45.0417374,22.2855665 C45.0417374,22.2855665 36.6314742,17.0524766 35.0091593,20.6276774 L35.0091593,20.6276774 Z" id="Fill-15" fill="#486474"></path>
            <path d="M45.0456528,22.2934532 L25.1748119,25.402163 C26.2515448,25.2387234 33.5553181,24.2432628 35.9965653,26.9348714 C38.6344212,29.8447912 45.0456528,22.2934532 45.0456528,22.2934532 L45.0456528,22.2934532 Z" id="Fill-16" fill="#4EA9CF"></path>
            <path d="M29.5721892,15.3812192 C30.5372776,18.8819158 25.7872352,24.5196895 25.0725642,25.3420897 L38.3357327,10.2249828 C38.3357327,10.2249828 28.526276,11.5962652 29.5721892,15.3812192 L29.5721892,15.3812192 Z" id="Fill-17" fill="#486474"></path>
            <path d="M38.3425008,10.2302406 L25.0782695,25.3466763 C25.7999322,24.5318832 30.7725927,19.08904 34.3689926,19.5906577 C38.2579842,20.1345058 38.3425008,10.2302406 38.3425008,10.2302406 L38.3425008,10.2302406 Z" id="Fill-18" fill="#4EA9CF"></path>
            <path d="M0.208311222,25.0613002 C0.208311222,11.3395273 11.3352416,0.210359534 25.063391,0.206667878 C38.7893589,0.210359534 49.9132689,11.3395273 49.9180233,25.0613002 C49.9132689,38.7894495 38.7893589,49.9159884 25.063391,49.9159884 C11.3352416,49.9159884 0.208311222,38.7894495 0.208311222,25.0613002 L0.208311222,25.0613002 Z M1.91995305,25.0613002 C1.94182331,37.8436026 12.2811445,48.1828678 25.063391,48.2058008 C37.8456375,48.1828678 48.1834484,37.8436026 48.2015711,25.0613002 C48.1834484,12.2790537 37.8456375,1.93973249 25.063391,1.92312004 C12.2811445,1.93973249 1.94182331,12.2790537 1.91995305,25.0613002 L1.91995305,25.0613002 Z" id="Fill-19" fill="#486474"></path>
        </g>
    </g>
</svg>