

<svg width="287px" height="52px" viewBox="0 0 287 52" version="1.1" xmlns="http://www.w3.org/2000/svg" xmlns:xlink="http://www.w3.org/1999/xlink">
    <!-- Generator: Sketch 40.1 (33804) - http://www.bohemiancoding.com/sketch -->
    <desc>Created with Sketch.</desc>
    <defs>
        <polygon id="path-1" points="49.9841395 25.0619355 49.9841395 50.1075705 0 50.1075705 0 25.0619355 0 0.0163004605 49.9841395 0.0163004605"></polygon>
    </defs>
    <g id="Group" stroke="none" stroke-width="1" fill="none" fill-rule="evenodd">
        <g id="logo">
            <path d="M37.5616929,27.5412231 C36.9596682,27.5519886 36.455225,27.3374673 36.0652362,26.9062266 C35.0153487,25.7461997 32.9975197,25.1113159 30.0677672,25.0192736 C29.8206355,25.0115517 29.5757537,25.0080008 29.3341901,25.0080008 C28.6461136,25.0080008 27.9877897,25.0365773 27.3997132,25.0772721 L44.9085996,22.3319521 C44.2718166,23.0593856 40.2759786,27.4971465 37.5616929,27.5412231 L37.5616929,27.5412231 Z M42.7084871,35.8329269 C42.252694,35.9033255 40.7010067,36.1254559 38.9598369,36.1766344 C37.0660799,36.2324911 34.5548875,36.0927648 33.3467885,35.1113554 C32.8924578,34.7422841 32.6505568,34.2728286 32.6277222,33.7159525 C32.5627053,32.1447505 31.4094994,30.3533907 29.2001631,28.3914736 C28.4971822,27.7672426 27.7775534,27.2080557 27.1398144,26.7454202 L42.7084871,35.8329269 Z M31.8174859,44.6719812 C30.9803093,44.1699474 25.8380709,40.9885394 25.3044376,38.3073616 C25.1872272,37.718189 25.3053937,37.187184 25.6556749,36.7291704 C26.5978009,35.4988013 26.813324,33.2516261 26.2962261,30.0499835 C26.1387458,29.0748304 25.9336277,28.1554213 25.7462261,27.4095569 L31.8174859,44.6719812 Z M25.0268223,25.7142504 C25.0324223,25.7134504 25.0382223,25.7135504 25.0437223,25.7125504 C25.0447223,25.7158504 25.0454223,25.7180504 25.0466223,25.7217504 L25.0268223,25.7142504 Z M24.9014004,25.6986285 C24.9025004,25.6991285 24.9038004,25.6992285 24.9049004,25.6997285 L24.9037004,25.7028285 L24.9014004,25.6986285 Z M7.45933071,35.5823891 C7.7993757,34.6774091 9.97918448,29.1132143 12.5038189,28.1129229 C13.0644488,27.8907361 13.6103993,27.9126053 14.1267098,28.1779105 L14.1266535,28.1778542 C14.7850337,28.5166016 15.5575309,28.6563843 16.38509,28.6563279 C18.5110742,28.6562152 20.9975197,27.7332551 22.8277222,26.8882465 L7.45933071,35.5823891 Z M11.9819404,10.0766211 C12.6419516,10.1963946 14.128622,10.4954618 15.7013442,11.008374 C18.0460011,11.773064 19.609387,12.7054931 20.2224916,13.7048827 C20.5368335,14.2172312 20.6106805,14.7600162 20.4421204,15.3181323 C19.9866648,16.8246849 20.4868335,18.8971317 21.9289033,21.4778689 C22.3954949,22.3129575 22.8997694,23.0890894 23.3554499,23.742066 L11.9819404,10.0766211 Z M28.8656299,13.3940354 C28.7821091,13.9930153 28.5056749,14.4395871 28.0204668,14.7592835 C26.7025816,15.6274578 25.7585996,17.5457492 25.2147863,20.4606683 C25.0641114,21.268364 24.9624241,22.0598269 24.8939201,22.7697311 L24.8938639,5.36487497 C25.5716479,6.18153255 29.2353712,10.7397433 28.8656299,13.3940354 L28.8656299,13.3940354 Z M17.9754162,44.5070603 C17.6481946,43.563471 15.776766,37.9056556 17.0735602,35.5379742 C17.3612992,35.012662 17.7925141,34.6819746 18.3552812,34.5552684 C20.8759786,33.9883032 22.9813217,30.4614968 24.1752475,27.9815948 L17.9754162,44.5070603 Z M5.1258099,22.0346322 C5.98992688,21.5429693 11.1955512,18.6800741 13.7738976,19.5383846 C14.3435827,19.727993 14.7470697,20.094697 14.9731102,20.6282384 C15.537171,21.9616972 17.038802,23.148497 19.4362148,24.1556084 C20.4991507,24.6021238 21.5862148,24.9481422 22.5169798,25.2041474 L5.1258099,22.0346322 Z M38.222829,10.2831387 C38.1989258,11.2504008 37.9681046,17.2226709 35.9125928,18.9990942 C35.4560124,19.3936983 34.933009,19.5529829 34.3579809,19.4723824 C32.8047188,19.2553248 30.8395894,20.0713624 28.5179921,21.8980623 C27.7795219,22.4791185 27.103369,23.0866657 26.5364961,23.6308599 L38.222829,10.2831387 Z M45.1403768,22.2091914 C45.1255849,22.2000041 43.6398144,21.2773822 41.8187795,20.4750411 C39.3585433,19.3911619 37.4886333,19.0304889 36.260793,19.4032238 C35.6192857,19.5979614 35.1582621,19.9964546 34.8905456,20.5877127 C34.2713105,21.9554972 32.5879584,23.1376188 29.8872835,24.1012172 C27.8867773,24.8149542 25.9340776,25.1830673 25.2244601,25.3028971 C26.2267098,24.1963032 30.9435264,19.2226337 34.3268223,19.6956965 C34.9690045,19.7856534 35.5517942,19.6086705 36.0595557,19.1697643 C37.0312092,18.3299411 37.728847,16.5542505 38.1328965,13.8919547 C38.4320529,11.9213012 38.4502193,10.1700726 38.4503881,10.1526561 L38.4514567,10.0219481 L38.3222666,10.0400409 C38.3050562,10.0424646 36.5747413,10.2881551 34.6639426,10.8415366 C32.0824466,11.589092 30.4164173,12.5130665 29.7121429,13.5876456 C29.3440326,14.1493126 29.2449325,14.7515053 29.4175422,15.3774836 C30.3306468,18.6969269 25.9691732,24.0715134 25.0373397,25.1700472 C25.0652925,23.6141198 25.350613,16.8554032 28.1749663,14.9947158 C28.7240664,14.6329719 29.0501631,14.1075469 29.1441451,13.4330393 C29.3225478,12.1523371 28.676766,10.3502119 27.2247975,8.07671472 C26.1517379,6.39650473 25.0116929,5.06721684 25.0002756,5.05402767 L24.8938639,4.93030875 L24.787396,5.05402767 C24.7759786,5.06721684 23.6361024,6.39650473 22.563099,8.07671472 C21.1113555,10.3502119 20.4656299,12.1523371 20.6440889,13.4330393 C20.7380709,14.1075469 21.0641676,14.6329719 21.6132677,14.9947722 C24.4907705,16.8900671 24.7326715,23.8099282 24.7516817,25.2331748 C24.2469573,24.6057875 23.1028065,23.1174404 22.1251912,21.3677337 C20.7141676,18.842515 20.2203543,16.8291376 20.6574184,15.3834581 C20.8454949,14.7609181 20.7636052,14.1564708 20.4141676,13.5868002 C18.9402643,11.1843986 13.0774409,10.04083 11.9170922,9.83594699 L11.7600056,9.80759591 L11.7579809,9.94044579 C11.7537064,10.2270566 11.6781721,16.9829549 13.9199606,19.0185397 C14.4160236,19.4690006 14.9932452,19.6603563 15.6370022,19.5866322 C17.132784,19.4142712 19.0202981,20.2615344 21.2464511,22.1049744 C22.7319966,23.3351745 23.9599494,24.6829498 24.517261,25.3242027 L24.4220979,25.3080826 C22.5766535,24.9444222 16.4534252,23.5255156 15.1443138,20.5359142 C14.8844151,19.9433598 14.4299719,19.5400192 13.7936952,19.3371089 C10.9298594,18.4235617 5.12535996,21.883464 4.87963442,22.0312504 L4.76692351,22.0989999 L4.85111924,22.2001168 C5.03452756,22.4203309 9.376991,27.5944871 12.3844151,27.6748621 C12.4194544,27.6757639 12.4542126,27.6760457 12.4885771,27.6755948 C13.1108493,27.6677602 13.6370022,27.4362734 14.0538189,26.9867707 C16.2717042,24.5954729 22.5125366,25.2721223 24.369342,25.5360748 L24.7914454,25.6076007 C24.7962261,25.614928 24.8020191,25.6213535 24.8075872,25.6280608 C23.9169798,26.1264311 22.1742913,27.034511 20.2300281,27.688784 C17.5978571,28.5744874 15.5789033,28.6716025 14.2293532,27.9773111 L14.229297,27.9772548 C13.652919,27.6811185 13.0445951,27.6562056 12.4210292,27.9032489 C9.59054556,29.0248355 7.29791339,35.3610477 7.20168166,35.6302421 L7.15781215,35.7530028 L7.28542745,35.7787611 C7.4501631,35.8120159 9.80589989,36.2780332 12.2088245,36.2779205 C13.8872272,36.2778641 15.5890832,36.0503791 16.5817154,35.289071 C17.1132115,34.8814467 17.4042688,34.3463272 17.446676,33.6988179 C17.546676,32.1923216 18.7172047,30.4828024 20.9258099,28.6178313 C22.5305343,27.2627287 24.2057312,26.2406808 24.838802,25.871215 L24.6396457,26.4014872 C24.2351462,27.3668893 23.3891957,29.2356368 22.2687795,30.904574 C20.9362711,32.8893185 19.6029753,34.0435399 18.3059561,34.3353362 C17.6774409,34.4768661 17.1964511,34.8449792 16.8763723,35.4294736 C16.2757537,36.5260347 16.2331777,38.3684602 16.7499381,40.9054589 C17.1348088,42.7952301 17.6988695,44.4056051 17.8079809,44.7092378 L17.8527503,44.8337458 L17.9682733,44.76966 C18.1403768,44.6742358 19.6952137,43.8029615 21.2588245,42.6112017 C23.3114679,41.046707 24.4893082,39.6341695 24.7596119,38.4127622 C24.9039876,37.7601802 24.78464,37.1640748 24.4048313,36.6408481 C23.6229415,35.5649162 23.3802531,33.8181404 23.6832902,31.44905 C23.9385771,29.4535399 24.5317717,27.4912846 24.861243,26.5031678 L25.0916142,25.8900406 C25.4771597,27.1506208 27.4478571,34.0182325 25.4771035,36.5919241 C25.0857087,37.1038781 24.953369,37.6958689 25.0839089,38.351551 C25.3360461,39.6184439 26.5488695,41.1128783 28.6887458,42.7933137 C30.2727165,44.0371538 31.8043251,44.9262955 31.8196232,44.935201 L31.9345838,45.0016541 L31.9836277,44.8704952 C32.0955512,44.5745279 32.6747413,43.0045095 33.0893082,41.1537422 C33.6653487,38.5823614 33.658712,36.7059485 33.0697919,35.5765272 C32.7576997,34.9781673 32.2796907,34.5945541 31.6489258,34.4362277 C28.4795219,33.6408193 25.7445388,26.9117503 25.3035939,25.7760726 C25.9886333,26.2043824 27.557306,27.2338704 29.0510067,28.5602273 C31.2127615,30.4799278 32.3405456,32.2176854 32.4029753,33.7252526 C32.4285096,34.3496526 32.6984196,34.8749085 33.2051687,35.2865346 C34.2954949,36.172238 36.3264286,36.4183231 38.2484196,36.4183231 C40.5629303,36.4183231 42.719117,36.0611446 42.880703,36.0337517 L43.0118616,36.0115443 L42.9682733,35.8856272 C42.9456637,35.8203577 40.5742351,29.3026536 37.6382396,28.0812463 C36.9907705,27.8118829 36.3596682,27.8217466 35.7625366,28.1105556 C32.6217042,29.6275355 26.461243,26.1847114 25.3226603,25.5189402 C26.0873397,25.4109468 28.0075309,25.1801927 30.0607368,25.2446167 C32.9271035,25.3346864 34.8912767,25.9447136 35.8985883,27.0576766 C36.3244601,27.5285412 36.8702418,27.7670172 37.5215354,27.7670172 C37.5361024,27.7670172 37.5507818,27.7669044 37.5654049,27.766679 C38.8485321,27.7457679 40.5195669,26.8301916 42.5321091,25.0453701 C44.0217604,23.724255 45.1554499,22.3911907 45.1666985,22.3778888 L45.2511192,22.2782373 L45.1403768,22.2091914 Z" id="Fill-1" fill="#FFFFFF"></path>
            <g id="Group-5" transform="translate(0.000000, 0.040075)">
                <mask id="mask-2" fill="white">
                    <use xlink:href="#path-1"></use>
                </mask>
                <g id="Clip-4"></g>
                <path d="M24.9922947,48.3842533 C12.1394826,48.3611441 1.74308211,37.9424331 1.72109111,25.0619129 C1.74308211,12.1814491 12.1394826,1.76268175 24.9922947,1.74594165 C37.8451069,1.76268175 48.2399888,12.1814491 48.2582115,25.0619129 C48.2399888,37.9424331 37.8451069,48.3611441 24.9922947,48.3842533 M24.9922947,0.0163004605 C11.1883577,0.0200204826 0,11.2347035 0,25.0619129 C0,38.8955478 11.1883577,50.1075817 24.9922947,50.1075817 C38.7940382,50.1075817 49.9793588,38.8955478 49.9841395,25.0619129 C49.9793588,11.2347035 38.7940382,0.0200204826 24.9922947,0.0163004605" id="Fill-3" fill="#FFFFFF" mask="url(#mask-2)"></path>
            </g>
        </g>
        <text id="Sawiana-Solutions" font-family="Raleway-SemiBold, Raleway" font-size="26" font-weight="500" fill="#FFFFFF">
            <tspan x="62" y="35">Sawiana Solutions</tspan>
        </text>
    </g>
</svg>