<svg width="889" height="890" viewBox="12 -74 889 890" xmlns="http://www.w3.org/2000/svg" xmlns:xlink="http://www.w3.org/1999/xlink"><defs><path id="a" d="M888.718 444.645V889H0V.289h888.718z"/></defs><g fill="none" fill-rule="evenodd"><path d="M679.847 414.632c-10.704.19-19.673-3.615-26.607-11.266-18.667-20.581-54.544-31.845-106.635-33.478-4.394-.137-8.748-.2-13.043-.2-12.234 0-23.94.507-34.395 1.229l311.308-48.707c-11.322 12.906-82.368 91.64-130.628 92.422zm91.51 147.11c-8.104 1.249-35.693 5.19-66.651 6.098-33.671.99-78.32-1.488-99.8-18.9-8.078-6.548-12.38-14.877-12.785-24.757-1.156-27.876-21.66-59.658-60.942-94.466-12.5-11.075-25.294-20.996-36.633-29.204l276.81 161.229zm-193.642 156.82c-14.885-8.906-106.314-65.35-115.802-112.92-2.084-10.452.017-19.873 6.245-28 16.75-21.828 20.583-61.697 11.389-118.5-2.8-17.301-6.447-33.613-9.78-46.846l107.948 306.267zM456.977 382.206c.056-.008.114-.007.169-.017l.029.092-.198-.075zm-2.23-.264c.01.005.024.006.035.01l-.012.032-.023-.042zm-310.12 175.356c6.046-16.056 44.803-114.775 89.69-132.522 9.969-3.942 19.676-3.554 28.856 1.153l-.001-.001c11.706 6.01 25.44 8.49 40.155 8.489 37.8-.002 82.009-16.377 114.55-31.37l-273.25 154.25zm80.412-452.52c11.735 2.126 38.168 7.432 66.13 16.532 41.689 13.567 69.486 30.11 80.387 47.84 5.589 9.09 6.902 18.72 3.905 28.623-8.098 26.729.795 63.498 26.435 109.285 8.296 14.816 17.262 28.586 25.364 40.17l-202.221-242.45zm300.192 58.858c-1.485 10.627-6.4 18.55-15.027 24.222-23.432 15.403-40.216 49.437-49.885 101.153-2.68 14.33-4.487 28.372-5.705 40.967l-.001-308.794c12.05 14.489 77.192 95.36 70.618 142.452zM331.603 715.637c-5.818-16.741-39.092-117.121-16.035-159.128 5.116-9.32 12.783-15.187 22.789-17.435 44.818-10.06 82.25-72.631 103.479-116.63L331.603 715.638zM103.137 316.935c15.364-8.723 107.92-59.516 153.763-44.288 10.129 3.364 17.303 9.87 21.322 19.336 10.029 23.658 36.728 44.714 79.354 62.582 18.899 7.922 38.227 14.06 54.776 18.603l-309.215-56.233zm588.465-208.493c-.425 17.16-4.53 123.12-41.076 154.637-8.118 7-17.417 9.827-27.641 8.397-27.617-3.851-62.557 10.627-103.835 43.036-13.13 10.309-25.152 21.088-35.231 30.743l207.783-236.813zm122.994 211.59c-.263-.163-26.68-16.532-59.058-30.767-43.743-19.23-76.99-25.63-98.821-19.016-11.406 3.455-19.603 10.525-24.363 21.015-11.01 24.267-40.94 45.24-88.958 62.336-35.57 12.663-70.288 19.194-82.905 21.32 17.82-19.633 101.685-107.875 161.84-99.482 11.418 1.596 21.78-1.544 30.808-9.331 17.276-14.9 29.68-46.404 36.864-93.638 5.319-34.963 5.642-66.033 5.645-66.342l.019-2.32-2.297.322c-.306.043-31.071 4.402-65.045 14.22-45.9 13.263-75.521 29.656-88.043 48.72-6.545 9.966-8.307 20.65-5.238 31.756 16.235 58.893-61.312 154.248-77.88 173.738.497-27.605 5.57-147.517 55.787-180.53 9.763-6.417 15.56-15.74 17.232-27.706 3.172-22.722-8.31-54.695-34.126-95.031-19.08-29.81-39.35-53.394-39.552-53.628l-1.892-2.195-1.893 2.195c-.203.234-20.47 23.818-39.548 53.628-25.812 40.336-37.293 72.309-34.12 95.03 1.67 11.968 7.469 21.29 17.232 27.709 51.162 33.626 55.463 156.397 55.8 181.648-8.973-11.131-29.316-37.537-46.698-68.58-25.088-44.802-33.868-80.523-26.097-106.172 3.344-11.045 1.888-21.77-4.325-31.876-26.206-42.623-130.447-62.912-151.078-66.547l-2.793-.503-.036 2.357c-.076 5.085-1.42 124.947 38.44 161.062 8.82 7.992 19.083 11.387 30.529 10.079 26.595-3.058 60.155 11.974 99.736 44.68 26.413 21.826 48.246 45.738 58.155 57.115l-1.692-.286c-32.812-6.452-141.683-31.626-164.96-84.667-4.62-10.513-12.7-17.67-24.013-21.27-50.92-16.207-154.123 45.178-158.492 47.8l-2.004 1.202 1.497 1.794c3.26 3.907 80.47 95.706 133.942 97.132.623.016 1.24.02 1.852.013 11.064-.14 20.419-4.246 27.83-12.221 39.434-42.426 150.396-30.421 183.41-25.738l7.505 1.269c.085.13.188.244.287.363-15.835 8.842-46.82 24.953-81.39 36.56-46.8 15.715-82.696 17.438-106.691 5.12l-.001-.001c-10.248-5.254-21.064-5.696-32.151-1.313-50.326 19.899-91.09 132.315-92.8 137.09l-.78 2.179 2.269.457c2.929.59 44.814 8.858 87.538 8.856 29.842-.001 60.1-4.037 77.75-17.544 9.45-7.232 14.625-16.726 15.379-28.214 1.778-26.728 22.59-57.058 61.859-90.146 28.532-24.042 58.317-42.175 69.573-48.73l-3.541 9.408c-7.192 17.128-22.233 50.283-42.154 79.893-23.692 35.213-47.398 55.69-70.46 60.868-11.174 2.51-19.726 9.042-25.417 19.412-10.68 19.455-11.436 52.143-2.248 97.154 6.843 33.528 16.872 62.099 18.812 67.486l.796 2.209 2.054-1.137c3.06-1.693 30.705-17.151 58.506-38.295 36.496-27.757 57.438-52.818 62.244-74.488 2.567-11.578.445-22.154-6.308-31.437-13.902-19.09-18.217-50.08-12.83-92.112 4.54-35.404 15.087-70.218 20.945-87.75l4.096-10.877c6.855 22.365 41.894 144.209 6.854 189.87-6.96 9.084-9.312 19.587-6.991 31.22 4.483 22.477 26.047 48.99 64.094 78.805 28.163 22.068 55.395 37.843 55.667 38l2.044 1.18.872-2.327c1.99-5.251 12.288-33.106 19.659-65.942 10.242-45.621 10.124-78.912-.347-98.95-5.55-10.616-14.048-17.422-25.263-20.231-56.352-14.112-104.98-133.498-112.82-153.647 12.18 7.599 40.07 25.864 66.629 49.396 38.436 34.059 58.488 64.89 59.598 91.637.454 11.078 5.253 20.397 14.263 27.7 19.386 15.714 55.496 20.08 89.669 20.08 41.152 0 79.489-6.337 82.362-6.823l2.332-.394-.775-2.234c-.402-1.158-42.566-116.794-94.768-138.464-11.512-4.78-22.733-4.604-33.35.52-55.844 26.914-165.377-34.168-185.621-45.98 13.596-1.916 47.737-6.01 84.243-4.867 50.964 1.598 85.887 12.42 103.797 32.167 7.572 8.354 17.276 12.585 28.856 12.585.259 0 .52-.002.78-.006 22.814-.371 52.525-16.615 88.308-48.281 26.486-23.44 46.643-47.09 46.843-47.326l1.5-1.768-1.968-1.225z" fill="#FFF"/><g transform="translate(12 -73.289)"><mask id="b" fill="#fff"><use xlink:href="#a"/></mask><path d="M444.363 858.425c-228.523-.41-413.371-185.257-413.762-413.78C30.992 216.12 215.84 31.272 444.363 30.975c228.523.297 413.344 185.145 413.668 413.668-.324 228.524-185.145 413.371-413.668 413.781m0-858.136C198.929.355 0 199.324 0 444.644 0 690.078 198.929 889 444.363 889c245.395 0 444.27-198.922 444.355-444.356C888.633 199.324 689.758.355 444.363.29" fill="#FFF" mask="url(#b)"/></g></g></svg>