
<svg width="42px" height="42px" viewBox="1085 479 42 42" version="1.1" xmlns="http://www.w3.org/2000/svg" xmlns:xlink="http://www.w3.org/1999/xlink">
    <!-- Generator: Sketch 40.3 (33839) - http://www.bohemiancoding.com/sketch -->
    <desc>Created with Sketch.</desc>
    <defs></defs>
    <path d="M1105.57143,479.285714 C1109.30359,479.285714 1112.74552,480.205348 1115.89732,482.044643 C1119.04912,483.883938 1121.54463,486.379449 1123.38393,489.53125 C1125.22322,492.683051 1126.14286,496.124981 1126.14286,499.857143 C1126.14286,503.589304 1125.22322,507.031234 1123.38393,510.183036 C1121.54463,513.334837 1119.04912,515.830348 1115.89732,517.669643 C1112.74552,519.508938 1109.30359,520.428571 1105.57143,520.428571 C1101.83927,520.428571 1098.39734,519.508938 1095.24554,517.669643 C1092.09373,515.830348 1089.59822,513.334837 1087.75893,510.183036 C1085.91963,507.031234 1085,503.589304 1085,499.857143 C1085,496.124981 1085.91963,492.683051 1087.75893,489.53125 C1089.59822,486.379449 1092.09373,483.883938 1095.24554,482.044643 C1098.39734,480.205348 1101.83927,479.285714 1105.57143,479.285714 L1105.57143,479.285714 Z M1112.91071,493.241071 C1112.875,493.258929 1112.79018,493.343749 1112.65625,493.495536 C1112.52232,493.647322 1112.40179,493.732143 1112.29464,493.75 C1112.33036,493.75 1112.37054,493.705358 1112.41518,493.616071 C1112.45982,493.526785 1112.50446,493.428572 1112.54911,493.321429 C1112.59375,493.214285 1112.625,493.151786 1112.64286,493.133929 C1112.75,493.008928 1112.94643,492.875001 1113.23214,492.732143 C1113.48214,492.624999 1113.94643,492.517858 1114.625,492.410714 C1115.23215,492.267856 1115.6875,492.36607 1115.99107,492.705357 C1115.95536,492.669643 1116.04018,492.553572 1116.24554,492.357143 C1116.45089,492.160713 1116.58036,492.053572 1116.63393,492.035714 C1116.6875,492 1116.82143,491.959822 1117.03571,491.915179 C1117.25,491.870535 1117.38393,491.803572 1117.4375,491.714286 L1117.49107,491.125 C1117.27678,491.142857 1117.12054,491.080358 1117.02232,490.9375 C1116.92411,490.794642 1116.86607,490.607144 1116.84821,490.375 C1116.84821,490.410714 1116.79464,490.482142 1116.6875,490.589286 C1116.6875,490.464285 1116.64732,490.392857 1116.56696,490.375 C1116.48661,490.357143 1116.38393,490.366071 1116.25893,490.401786 C1116.13393,490.4375 1116.05357,490.446429 1116.01786,490.428571 C1115.83928,490.375 1115.70536,490.308036 1115.61607,490.227679 C1115.52679,490.147321 1115.45536,490.000001 1115.40179,489.785714 C1115.34821,489.571427 1115.3125,489.4375 1115.29464,489.383929 C1115.25893,489.294642 1115.17411,489.200893 1115.04018,489.102679 C1114.90625,489.004464 1114.82143,488.910715 1114.78571,488.821429 C1114.76786,488.785714 1114.74554,488.736607 1114.71875,488.674107 C1114.69196,488.611607 1114.66518,488.553572 1114.63839,488.5 C1114.61161,488.446428 1114.57589,488.397322 1114.53125,488.352679 C1114.48661,488.308035 1114.4375,488.285714 1114.38393,488.285714 C1114.33036,488.285714 1114.26786,488.330357 1114.19643,488.419643 C1114.125,488.508929 1114.05804,488.598214 1113.99554,488.6875 C1113.93304,488.776786 1113.89286,488.821429 1113.875,488.821429 C1113.82143,488.785714 1113.76786,488.772321 1113.71429,488.78125 C1113.66071,488.790179 1113.62054,488.799107 1113.59375,488.808036 C1113.56696,488.816964 1113.52679,488.84375 1113.47321,488.888393 C1113.41964,488.933036 1113.375,488.964286 1113.33929,488.982143 C1113.28571,489.017857 1113.20982,489.044643 1113.11161,489.0625 C1113.01339,489.080357 1112.9375,489.098214 1112.88393,489.116071 C1113.15179,489.026785 1113.14286,488.928572 1112.85714,488.821429 C1112.67857,488.75 1112.53571,488.723214 1112.42857,488.741071 C1112.58929,488.669642 1112.65625,488.562501 1112.62946,488.419643 C1112.60268,488.276785 1112.52679,488.151786 1112.40179,488.044643 L1112.53571,488.044643 C1112.51786,487.973214 1112.44196,487.897322 1112.30804,487.816964 C1112.17411,487.736607 1112.01786,487.660715 1111.83929,487.589286 C1111.66071,487.517857 1111.54464,487.464286 1111.49107,487.428571 C1111.34821,487.339285 1111.04465,487.254465 1110.58036,487.174107 C1110.11607,487.09375 1109.82143,487.089285 1109.69643,487.160714 C1109.60714,487.267858 1109.56696,487.361607 1109.57589,487.441964 C1109.58482,487.522322 1109.62054,487.647321 1109.68304,487.816964 C1109.74554,487.986608 1109.77679,488.098214 1109.77679,488.151786 C1109.79464,488.258929 1109.74554,488.374999 1109.62946,488.5 C1109.51339,488.625001 1109.45536,488.732142 1109.45536,488.821429 C1109.45536,488.946429 1109.58036,489.084821 1109.83036,489.236607 C1110.08036,489.388394 1110.16964,489.580356 1110.09821,489.8125 C1110.04464,489.955358 1109.90179,490.098214 1109.66964,490.241071 C1109.4375,490.383929 1109.29464,490.491071 1109.24107,490.5625 C1109.15179,490.705358 1109.13839,490.870535 1109.20089,491.058036 C1109.26339,491.245537 1109.35714,491.392857 1109.48214,491.5 C1109.51786,491.535714 1109.53125,491.571428 1109.52232,491.607143 C1109.51339,491.642857 1109.48214,491.683035 1109.42857,491.727679 C1109.375,491.772322 1109.32589,491.808036 1109.28125,491.834821 C1109.23661,491.861607 1109.17857,491.892857 1109.10714,491.928571 L1109.02679,491.982143 C1108.83036,492.071429 1108.64732,492.017858 1108.47768,491.821429 C1108.30803,491.624999 1108.1875,491.392858 1108.11607,491.125 C1107.99107,490.678569 1107.84822,490.410715 1107.6875,490.321429 C1107.27678,490.178571 1107.01786,490.187499 1106.91071,490.348214 C1106.82143,490.11607 1106.45536,489.88393 1105.8125,489.651786 C1105.36607,489.491071 1104.84822,489.455357 1104.25893,489.544643 C1104.36607,489.526786 1104.36607,489.392858 1104.25893,489.142857 C1104.13393,488.874999 1103.96429,488.767857 1103.75,488.821429 C1103.80357,488.714285 1103.83929,488.558037 1103.85714,488.352679 C1103.875,488.14732 1103.88393,488.026786 1103.88393,487.991071 C1103.9375,487.758927 1104.04464,487.553572 1104.20536,487.375 C1104.22321,487.357143 1104.28571,487.281251 1104.39286,487.147321 C1104.5,487.013392 1104.58482,486.892858 1104.64732,486.785714 C1104.70982,486.678571 1104.71429,486.625 1104.66071,486.625 C1105.28572,486.696429 1105.73214,486.598216 1106,486.330357 C1106.08929,486.241071 1106.19196,486.089287 1106.30804,485.875 C1106.42411,485.660713 1106.51786,485.508929 1106.58929,485.419643 C1106.75,485.312499 1106.875,485.263393 1106.96429,485.272321 C1107.05357,485.28125 1107.18303,485.330357 1107.35268,485.419643 C1107.52232,485.508929 1107.65179,485.553571 1107.74107,485.553571 C1107.99107,485.571429 1108.12946,485.473215 1108.15625,485.258929 C1108.18304,485.044642 1108.11607,484.866072 1107.95536,484.723214 C1108.16964,484.741072 1108.19643,484.589287 1108.03571,484.267857 C1107.94643,484.142857 1107.875,484.0625 1107.82143,484.026786 C1107.60714,483.955357 1107.36607,483.999999 1107.09821,484.160714 C1106.95536,484.232143 1106.97321,484.303571 1107.15179,484.375 C1107.13393,484.357143 1107.04911,484.450892 1106.89732,484.65625 C1106.74553,484.861608 1106.59821,485.017857 1106.45536,485.125 C1106.3125,485.232143 1106.16964,485.187501 1106.02679,484.991071 C1106.00893,484.973214 1105.95982,484.85268 1105.87946,484.629464 C1105.79911,484.406249 1105.71429,484.285714 1105.625,484.267857 C1105.48214,484.267857 1105.33929,484.401784 1105.19643,484.669643 C1105.25,484.526785 1105.15179,484.392858 1104.90179,484.267857 C1104.65178,484.142857 1104.4375,484.071429 1104.25893,484.053571 C1104.59822,483.839285 1104.52679,483.598216 1104.04464,483.330357 C1103.91964,483.258928 1103.73661,483.214286 1103.49554,483.196429 C1103.25446,483.178571 1103.08036,483.214285 1102.97321,483.303571 C1102.88393,483.428572 1102.83482,483.53125 1102.82589,483.611607 C1102.81696,483.691965 1102.86161,483.763393 1102.95982,483.825893 C1103.05804,483.888393 1103.15179,483.9375 1103.24107,483.973214 C1103.33036,484.008929 1103.43304,484.044643 1103.54911,484.080357 C1103.66518,484.116072 1103.74107,484.142857 1103.77679,484.160714 C1104.02679,484.339287 1104.09821,484.464285 1103.99107,484.535714 C1103.95536,484.553572 1103.87946,484.584821 1103.76339,484.629464 C1103.64732,484.674107 1103.54464,484.714286 1103.45536,484.75 C1103.36607,484.785714 1103.3125,484.821428 1103.29464,484.857143 C1103.24107,484.928572 1103.24107,485.053571 1103.29464,485.232143 C1103.34821,485.410715 1103.33036,485.535714 1103.24107,485.607143 C1103.15179,485.517857 1103.07143,485.361608 1103,485.138393 C1102.92857,484.915177 1102.86607,484.767857 1102.8125,484.696429 C1102.9375,484.857144 1102.71429,484.910715 1102.14286,484.857143 L1101.875,484.830357 C1101.80357,484.830357 1101.66072,484.848214 1101.44643,484.883929 C1101.23214,484.919643 1101.04911,484.928572 1100.89732,484.910714 C1100.74553,484.892857 1100.625,484.821429 1100.53571,484.696429 C1100.46429,484.553571 1100.46429,484.375001 1100.53571,484.160714 C1100.55357,484.089285 1100.58929,484.071428 1100.64286,484.107143 C1100.57143,484.053571 1100.47321,483.968751 1100.34821,483.852679 C1100.22321,483.736607 1100.13393,483.660714 1100.08036,483.625 C1099.25892,483.892858 1098.41965,484.258926 1097.5625,484.723214 C1097.66964,484.741072 1097.77679,484.732143 1097.88393,484.696429 C1097.97321,484.660714 1098.08929,484.602679 1098.23214,484.522321 C1098.375,484.441964 1098.46429,484.392857 1098.5,484.375 C1099.10715,484.124999 1099.48214,484.062499 1099.625,484.1875 L1099.75893,484.053571 C1100.00893,484.339287 1100.1875,484.562499 1100.29464,484.723214 C1100.16964,484.651785 1099.90179,484.642857 1099.49107,484.696429 C1099.13393,484.803572 1098.9375,484.910714 1098.90179,485.017857 C1099.02679,485.232144 1099.07143,485.392857 1099.03571,485.5 C1098.96429,485.446428 1098.86161,485.357143 1098.72768,485.232143 C1098.59375,485.107142 1098.46429,485.008929 1098.33929,484.9375 C1098.21429,484.866071 1098.08036,484.821429 1097.9375,484.803571 C1097.65178,484.803571 1097.45536,484.8125 1097.34821,484.830357 C1094.74106,486.258936 1092.64287,488.241059 1091.05357,490.776786 C1091.17857,490.901786 1091.28571,490.973214 1091.375,490.991071 C1091.44643,491.008929 1091.49107,491.089285 1091.50893,491.232143 C1091.52679,491.375001 1091.54911,491.473214 1091.57589,491.526786 C1091.60268,491.580357 1091.70536,491.553572 1091.88393,491.446429 C1092.04464,491.589286 1092.07143,491.758928 1091.96429,491.955357 C1091.98214,491.9375 1092.375,492.178569 1093.14286,492.678571 C1093.48214,492.982144 1093.66964,493.169642 1093.70536,493.241071 C1093.75893,493.437501 1093.66964,493.598214 1093.4375,493.723214 C1093.41964,493.6875 1093.33929,493.607143 1093.19643,493.482143 C1093.05357,493.357142 1092.97321,493.321428 1092.95536,493.375 C1092.90179,493.464286 1092.90625,493.629463 1092.96875,493.870536 C1093.03125,494.111608 1093.125,494.223214 1093.25,494.205357 C1093.125,494.205357 1093.04018,494.348213 1092.99554,494.633929 C1092.95089,494.919644 1092.92857,495.236605 1092.92857,495.584821 C1092.92857,495.933037 1092.91964,496.142857 1092.90179,496.214286 L1092.95536,496.241071 C1092.90179,496.455358 1092.95089,496.763391 1093.10268,497.165179 C1093.25447,497.566966 1093.44643,497.741072 1093.67857,497.6875 C1093.44643,497.741072 1093.625,498.124996 1094.21429,498.839286 C1094.32143,498.982144 1094.39286,499.0625 1094.42857,499.080357 C1094.48214,499.116072 1094.58928,499.183035 1094.75,499.28125 C1094.91072,499.379465 1095.04464,499.46875 1095.15179,499.549107 C1095.25893,499.629465 1095.34821,499.723214 1095.41964,499.830357 C1095.49107,499.919643 1095.58036,500.120534 1095.6875,500.433036 C1095.79464,500.745537 1095.91964,500.955357 1096.0625,501.0625 C1096.02679,501.169643 1096.11161,501.348213 1096.31696,501.598214 C1096.52232,501.848216 1096.61607,502.053571 1096.59821,502.214286 C1096.58036,502.214286 1096.55804,502.223214 1096.53125,502.241071 C1096.50446,502.258929 1096.48214,502.267857 1096.46429,502.267857 C1096.51786,502.392858 1096.65625,502.517857 1096.87946,502.642857 C1097.10268,502.767858 1097.24107,502.883928 1097.29464,502.991071 C1097.3125,503.044643 1097.33036,503.133928 1097.34821,503.258929 C1097.36607,503.383929 1097.39286,503.482142 1097.42857,503.553571 C1097.46429,503.625 1097.53571,503.642857 1097.64286,503.607143 C1097.67857,503.249998 1097.46429,502.696432 1097,501.946429 C1096.73214,501.499998 1096.58036,501.241072 1096.54464,501.169643 C1096.49107,501.080357 1096.44196,500.941965 1096.39732,500.754464 C1096.35268,500.566963 1096.3125,500.4375 1096.27679,500.366071 C1096.3125,500.366071 1096.36607,500.379464 1096.4375,500.40625 C1096.50893,500.433036 1096.58482,500.464286 1096.66518,500.5 C1096.74554,500.535714 1096.8125,500.571428 1096.86607,500.607143 C1096.91964,500.642857 1096.9375,500.669643 1096.91964,500.6875 C1096.86607,500.812501 1096.88393,500.968749 1096.97321,501.15625 C1097.0625,501.343751 1097.16964,501.508928 1097.29464,501.651786 C1097.41964,501.794644 1097.57143,501.964285 1097.75,502.160714 C1097.92857,502.357144 1098.03571,502.473214 1098.07143,502.508929 C1098.17857,502.616072 1098.30357,502.790177 1098.44643,503.03125 C1098.58929,503.272323 1098.58929,503.392857 1098.44643,503.392857 C1098.60714,503.392857 1098.78571,503.482142 1098.98214,503.660714 C1099.17857,503.839287 1099.33036,504.017856 1099.4375,504.196429 C1099.52679,504.339286 1099.59821,504.571427 1099.65179,504.892857 C1099.70536,505.214287 1099.75,505.428571 1099.78571,505.535714 C1099.82143,505.660715 1099.89732,505.781249 1100.01339,505.897321 C1100.12946,506.013393 1100.24107,506.098214 1100.34821,506.151786 C1100.45536,506.205357 1100.59821,506.276785 1100.77679,506.366071 C1100.95536,506.455358 1101.07143,506.517857 1101.125,506.553571 C1101.21429,506.589286 1101.37946,506.683035 1101.62054,506.834821 C1101.86161,506.986608 1102.05357,507.089285 1102.19643,507.142857 C1102.375,507.214286 1102.51786,507.25 1102.625,507.25 C1102.73214,507.25 1102.86161,507.227679 1103.01339,507.183036 C1103.16518,507.138393 1103.28571,507.107143 1103.375,507.089286 C1103.64286,507.053571 1103.90178,507.187498 1104.15179,507.491071 C1104.40179,507.794644 1104.58929,507.982142 1104.71429,508.053571 C1105.35715,508.392859 1105.84821,508.491072 1106.1875,508.348214 C1106.15179,508.366072 1106.15625,508.433035 1106.20089,508.549107 C1106.24554,508.665179 1106.31696,508.803571 1106.41518,508.964286 C1106.51339,509.125001 1106.59375,509.254464 1106.65625,509.352679 C1106.71875,509.450893 1106.76786,509.526785 1106.80357,509.580357 C1106.89286,509.687501 1107.05357,509.821428 1107.28571,509.982143 C1107.51786,510.142858 1107.67857,510.276785 1107.76786,510.383929 C1107.875,510.3125 1107.9375,510.232143 1107.95536,510.142857 C1107.90179,510.285715 1107.96428,510.464285 1108.14286,510.678571 C1108.32143,510.892858 1108.48214,510.982143 1108.625,510.946429 C1108.875,510.892857 1109,510.607145 1109,510.089286 C1108.44643,510.357144 1108.00893,510.196432 1107.6875,509.607143 C1107.6875,509.589286 1107.66518,509.540179 1107.62054,509.459821 C1107.57589,509.379464 1107.54018,509.303572 1107.51339,509.232143 C1107.48661,509.160714 1107.46429,509.084822 1107.44643,509.004464 C1107.42857,508.924107 1107.42857,508.857143 1107.44643,508.803571 C1107.46429,508.75 1107.50893,508.723214 1107.58036,508.723214 C1107.74107,508.723214 1107.83036,508.691965 1107.84821,508.629464 C1107.86607,508.566964 1107.84821,508.455358 1107.79464,508.294643 C1107.74107,508.133928 1107.70536,508.017857 1107.6875,507.946429 C1107.66964,507.803571 1107.57143,507.625001 1107.39286,507.410714 C1107.21428,507.196427 1107.10714,507.0625 1107.07143,507.008929 C1106.98214,507.169644 1106.83929,507.241072 1106.64286,507.223214 C1106.44643,507.205357 1106.30357,507.125001 1106.21429,506.982143 C1106.21429,507 1106.20089,507.049107 1106.17411,507.129464 C1106.14732,507.209822 1106.13393,507.267857 1106.13393,507.303571 C1105.90178,507.303571 1105.76786,507.294643 1105.73214,507.276786 C1105.75,507.223214 1105.77232,507.066966 1105.79911,506.808036 C1105.82589,506.549106 1105.85714,506.348215 1105.89286,506.205357 C1105.91071,506.133928 1105.95982,506.026786 1106.04018,505.883929 C1106.12054,505.741071 1106.1875,505.611608 1106.24107,505.495536 C1106.29464,505.379464 1106.33036,505.267858 1106.34821,505.160714 C1106.36607,505.053571 1106.32589,504.96875 1106.22768,504.90625 C1106.12946,504.84375 1105.97322,504.821428 1105.75893,504.839286 C1105.41964,504.857143 1105.1875,505.035713 1105.0625,505.375 C1105.04464,505.428572 1105.01786,505.522321 1104.98214,505.65625 C1104.94643,505.790179 1104.90179,505.892857 1104.84821,505.964286 C1104.79464,506.035715 1104.71429,506.098214 1104.60714,506.151786 C1104.48214,506.205357 1104.26786,506.223214 1103.96429,506.205357 C1103.66071,506.1875 1103.44643,506.142857 1103.32143,506.071429 C1103.08928,505.928571 1102.88839,505.669645 1102.71875,505.294643 C1102.54911,504.919641 1102.46429,504.589287 1102.46429,504.303571 C1102.46429,504.124999 1102.48661,503.888394 1102.53125,503.59375 C1102.57589,503.299106 1102.60268,503.075894 1102.61161,502.924107 C1102.62054,502.772321 1102.57143,502.553573 1102.46429,502.267857 C1102.51786,502.232143 1102.59821,502.147322 1102.70536,502.013393 C1102.8125,501.879464 1102.90179,501.785715 1102.97321,501.732143 C1103.00893,501.714286 1103.04911,501.700893 1103.09375,501.691964 C1103.13839,501.683036 1103.17857,501.683036 1103.21429,501.691964 C1103.25,501.700893 1103.28571,501.6875 1103.32143,501.651786 C1103.35714,501.616071 1103.38393,501.5625 1103.40179,501.491071 C1103.38393,501.473214 1103.34821,501.446429 1103.29464,501.410714 C1103.24107,501.357143 1103.20536,501.330357 1103.1875,501.330357 C1103.3125,501.383929 1103.56696,501.370536 1103.95089,501.290179 C1104.33482,501.209821 1104.58036,501.223214 1104.6875,501.330357 C1104.95536,501.526787 1105.15179,501.50893 1105.27679,501.276786 C1105.27679,501.258928 1105.25446,501.174108 1105.20982,501.022321 C1105.16518,500.870535 1105.16071,500.75 1105.19643,500.660714 C1105.28571,501.14286 1105.54464,501.223216 1105.97321,500.901786 C1106.02679,500.955357 1106.16518,501 1106.38839,501.035714 C1106.61161,501.071429 1106.76786,501.116071 1106.85714,501.169643 C1106.91071,501.205357 1106.97321,501.254464 1107.04464,501.316964 C1107.11607,501.379465 1107.16518,501.419643 1107.19196,501.4375 C1107.21875,501.455357 1107.26339,501.450893 1107.32589,501.424107 C1107.38839,501.397321 1107.46429,501.339286 1107.55357,501.25 C1107.73214,501.500001 1107.83929,501.714285 1107.875,501.892857 C1108.07143,502.607146 1108.24107,503 1108.38393,503.071429 C1108.50893,503.125 1108.60714,503.142857 1108.67857,503.125 C1108.75,503.107143 1108.79018,503.022322 1108.79911,502.870536 C1108.80804,502.718749 1108.80804,502.59375 1108.79911,502.495536 C1108.79018,502.397321 1108.77679,502.285715 1108.75893,502.160714 L1108.73214,501.946429 L1108.73214,501.464286 L1108.70536,501.25 C1108.4375,501.196428 1108.27232,501.089287 1108.20982,500.928571 C1108.14732,500.767856 1108.16071,500.602679 1108.25,500.433036 C1108.33929,500.263392 1108.47321,500.098215 1108.65179,499.9375 C1108.66964,499.919643 1108.74107,499.888393 1108.86607,499.84375 C1108.99107,499.799107 1109.12946,499.741072 1109.28125,499.669643 C1109.43304,499.598214 1109.54464,499.526786 1109.61607,499.455357 C1109.99107,499.11607 1110.125,498.803573 1110.01786,498.517857 C1110.14286,498.517857 1110.24107,498.437501 1110.3125,498.276786 C1110.29464,498.276786 1110.25,498.25 1110.17857,498.196429 C1110.10714,498.142857 1110.04018,498.098214 1109.97768,498.0625 C1109.91518,498.026786 1109.875,498.008929 1109.85714,498.008929 C1110.01786,497.919642 1110.03571,497.776787 1109.91071,497.580357 C1110,497.526785 1110.06696,497.428572 1110.11161,497.285714 C1110.15625,497.142856 1110.22321,497.053572 1110.3125,497.017857 C1110.47322,497.232144 1110.66071,497.250001 1110.875,497.071429 C1111,496.928571 1111.00893,496.785715 1110.90179,496.642857 C1110.99107,496.517857 1111.17411,496.424107 1111.45089,496.361607 C1111.72768,496.299107 1111.89286,496.214286 1111.94643,496.107143 C1112.07143,496.142857 1112.14286,496.125 1112.16071,496.053571 C1112.17857,495.982142 1112.1875,495.875001 1112.1875,495.732143 C1112.1875,495.589285 1112.21429,495.482143 1112.26786,495.410714 C1112.33929,495.321428 1112.47321,495.241072 1112.66964,495.169643 C1112.86607,495.098214 1112.98214,495.053572 1113.01786,495.035714 L1113.47321,494.741071 C1113.52679,494.669642 1113.52679,494.633929 1113.47321,494.633929 C1113.79464,494.669643 1114.07143,494.57143 1114.30357,494.339286 C1114.48214,494.142856 1114.42857,493.964287 1114.14286,493.803571 C1114.19643,493.696428 1114.16964,493.611607 1114.0625,493.549107 C1113.95536,493.486607 1113.82143,493.4375 1113.66071,493.401786 C1113.71429,493.383928 1113.81696,493.379464 1113.96875,493.388393 C1114.12054,493.397321 1114.21429,493.383929 1114.25,493.348214 C1114.51786,493.169642 1114.45536,493.026786 1114.0625,492.919643 C1113.75893,492.830357 1113.375,492.937498 1112.91071,493.241071 L1112.91071,493.241071 Z M1108.54464,516.732143 C1112.22323,516.089282 1115.35713,514.401799 1117.94643,511.669643 C1117.89286,511.616071 1117.78125,511.575893 1117.61161,511.549107 C1117.44196,511.522321 1117.33036,511.491072 1117.27679,511.455357 C1116.95536,511.330357 1116.74107,511.258929 1116.63393,511.241071 C1116.65179,511.116071 1116.62946,511.000001 1116.56696,510.892857 C1116.50446,510.785714 1116.43304,510.705357 1116.35268,510.651786 C1116.27232,510.598214 1116.16071,510.526786 1116.01786,510.4375 C1115.875,510.348214 1115.77679,510.285714 1115.72321,510.25 C1115.6875,510.214286 1115.625,510.160715 1115.53571,510.089286 C1115.44643,510.017857 1115.38393,509.96875 1115.34821,509.941964 C1115.3125,509.915178 1115.24554,509.875 1115.14732,509.821429 C1115.04911,509.767857 1114.97321,509.75 1114.91964,509.767857 C1114.86607,509.785714 1114.77679,509.794643 1114.65179,509.794643 L1114.57143,509.821429 C1114.51786,509.839286 1114.46875,509.861607 1114.42411,509.888393 C1114.37946,509.915179 1114.33036,509.941964 1114.27679,509.96875 C1114.22321,509.995536 1114.1875,510.022321 1114.16964,510.049107 C1114.15179,510.075893 1114.15179,510.098214 1114.16964,510.116071 C1113.79464,509.812498 1113.47322,509.616072 1113.20536,509.526786 C1113.11607,509.508928 1113.01786,509.459822 1112.91071,509.379464 C1112.80357,509.299107 1112.70982,509.236607 1112.62946,509.191964 C1112.54911,509.147321 1112.45982,509.133928 1112.36161,509.151786 C1112.26339,509.169643 1112.16071,509.232142 1112.05357,509.339286 C1111.96429,509.428572 1111.91071,509.562499 1111.89286,509.741071 C1111.875,509.919644 1111.85714,510.035714 1111.83929,510.089286 C1111.71429,510 1111.71429,509.843751 1111.83929,509.620536 C1111.96429,509.39732 1111.98214,509.232143 1111.89286,509.125 C1111.83929,509.017857 1111.74554,508.977678 1111.61161,509.004464 C1111.47768,509.03125 1111.37054,509.071428 1111.29018,509.125 C1111.20982,509.178572 1111.10714,509.254464 1110.98214,509.352679 C1110.85714,509.450893 1110.77679,509.508928 1110.74107,509.526786 C1110.70536,509.544643 1110.62946,509.59375 1110.51339,509.674107 C1110.39732,509.754465 1110.32143,509.821428 1110.28571,509.875 C1110.23214,509.946429 1110.17857,510.053571 1110.125,510.196429 C1110.07143,510.339286 1110.02679,510.4375 1109.99107,510.491071 C1109.95536,510.419642 1109.85268,510.361607 1109.68304,510.316964 C1109.51339,510.272321 1109.42857,510.223215 1109.42857,510.169643 C1109.46429,510.348215 1109.5,510.660712 1109.53571,511.107143 C1109.57143,511.553574 1109.61607,511.892856 1109.66964,512.125 C1109.79464,512.678574 1109.6875,513.107141 1109.34821,513.410714 C1108.86607,513.857145 1108.60714,514.214284 1108.57143,514.482143 C1108.5,514.875002 1108.60714,515.107143 1108.89286,515.178571 C1108.89286,515.303572 1108.82143,515.486606 1108.67857,515.727679 C1108.53571,515.968751 1108.47321,516.160714 1108.49107,516.303571 C1108.49107,516.410715 1108.50893,516.553571 1108.54464,516.732143 L1108.54464,516.732143 Z" id="Globe---FontAwesome" stroke="none" fill="#FFFFFF" fill-rule="evenodd"></path>
</svg>