<svg width="228" height="84" viewBox="968 2141 228 84" xmlns="http://www.w3.org/2000/svg"><defs><path id="a" d="M.043.262v26.07h227.344V.262H.043z"/></defs><g fill="none" fill-rule="evenodd"><path d="M1122.035 2152.01c-2.415-.6-4.795-1.355-7.281-1.705-4.311-1.636-8.992-2.236-13.438-3.491l-14.635-2.604c-6.455-.893-12.832-2.286-19.366-2.648-5.835-.712-11.777-.069-17.499 1.024-5.094 1.006-10.26 1.761-15.261 3.098-5.202 1.292-10.16 3.216-15.12 5.077-1.973.718-3.719 1.823-5.315 3.047 11.984-3.129 24.232-5.77 36.758-6.445 6.626-.474 13.281-.518 19.921-.368 5.052.081 10.054 1.33 15.098 1.218l15.478 2.07s8.078 1.664 13.122 2.282c6.356.85 12.597 2.323 18.988 2.96-3.527-1.83-7.58-2.485-11.45-3.515M1192.402 2165.91c-13.73-4.652-28.514-6.513-43.185-6.5-5.978-.219-11.963.23-17.905.787l-28.051.73c-1.895-.33-3.833-.306-5.75-.312-6.769.037-13.53-.493-20.292-.162-12.127-.181-24.268-.525-36.38-1.143-3.997-.188-7.966-.756-11.977-.762-11.243-1.237-22.608-2.155-33.965-1.724-9.626.506-19.793 2.885-26.897 8.874 4.845-1.555 9.711-3.128 14.856-3.722 15.903-2.092 31.998-.393 47.965.007l-.057.187c15.483.65 30.958 1.43 46.455 1.655 6.078.218 12.156-.104 18.24-.013a60.422 60.422 0 0 0 8.764-.487l27.082-.212c5.914.943 11.956.756 17.94.662 11.907-.063 23.87.28 35.647 1.91 3.527.425 6.876 1.812 10.495 1.63-.976-.505-1.945-1.017-2.985-1.404M995.531 2169.464c4.745 0 9.49-.013 14.243.006-.1 6.095.014 12.184-.086 18.273 5.7-6.108 11.265-12.315 17.065-18.342 5.108.125 10.224.038 15.333.057-5.921 6.338-11.621 12.827-17.528 19.171 6.755 7.282 13.545 14.538 20.292 21.826a1322.46 1322.46 0 0 0-17.242.012c-6.028-6.35-11.942-12.776-17.913-19.159.065 6.383.029 12.758.036 19.14-4.73-.006-9.462 0-14.193-.006-.014-13.657.007-27.32-.007-40.978M1087.593 2169.476c4.097-.025 8.187-.012 12.284-.012-.022 13.651 0 27.309-.007 40.966-4.083 0-8.159.006-12.234 0-.014-13.651.064-27.302-.043-40.954M1108.683 2169.458c4.09.006 8.187 0 12.284.018-.114 13.658-.022 27.309-.05 40.966-4.076.007-8.144.007-12.22.007-.021-13.664.008-27.328-.014-40.991M1126.21 2180.311c4.39.025 8.779-.012 13.168.05 2.372 4.877 4.438 9.86 7.003 14.663 2.601-4.858 5.202-9.723 7.731-14.613 3.997-.144 7.994-.075 11.991-.094-7.78 14.57-15.575 29.133-23.327 43.714-4.14.038-8.279.025-12.419.013 3.207-5.833 6.263-11.722 9.484-17.542-4.532-8.73-9.078-17.46-13.63-26.19M1058.559 2188.086c2.308-2.136 6.676-2.367 9.12-.281 1.482 1.249 1.724 3.129 2.23 4.784-4.539.08-9.077.087-13.616-.007.598-1.536.883-3.303 2.266-4.496zm5.571 15.787c-3.505-.587-6.02-3.048-7.43-5.789 8.15-.156 16.301-.019 24.452-.075-.035-4.09-.135-8.493-2.928-11.978-3.121-4.346-9.17-6.42-14.863-6.207-5.743 0-11.863 1.717-15.49 5.814-3.883 4.428-4.353 10.672-2.216 15.818 1.953 4.703 7.026 8.006 12.526 8.955 7.417 1.18 15.269.4 22.024-2.61-.008-2.23 0-4.459.028-6.682-5.03 1.898-10.552 3.61-16.102 2.754zM1000.412 2221.347l-.9-2.237-.892 2.237h1.792zm.523 1.345h-2.863l-.397 1.027H995.1l3.066-6.222h2.751l3.066 6.222h-2.64l-.409-1.027zM1009.524 2217.497h2.516v3.707c0 .367-.075.715-.225 1.041a2.27 2.27 0 0 1-.707.857c-.32.245-.658.417-1.01.515-.49.139-1.079.208-1.765.208a14.7 14.7 0 0 1-1.3-.063c-.47-.043-.862-.127-1.177-.253a2.942 2.942 0 0 1-.866-.536c-.261-.232-.44-.471-.537-.717-.155-.396-.234-.747-.234-1.052v-3.707h2.517v3.795c0 .34.122.604.37.795.246.191.589.287 1.027.287.434 0 .774-.094 1.021-.282.247-.188.37-.455.37-.8v-3.795M1012.954 2217.497h7.665v1.536h-2.572v4.686h-2.521v-4.686h-2.572v-1.536M1023.393 2220.62c0 .629.153 1.08.46 1.354.305.276.722.413 1.248.413.542 0 .961-.135 1.258-.404.298-.269.446-.751.446-1.447 0-.586-.156-1.014-.465-1.284-.31-.27-.73-.405-1.26-.405-.51 0-.917.137-1.225.411-.308.274-.462.73-.462 1.362zm-2.522-.008c0-1.015.37-1.806 1.114-2.372.741-.566 1.775-.849 3.1-.849 1.358 0 2.404.278 3.14.834.734.556 1.101 1.334 1.101 2.337 0 .726-.16 1.323-.481 1.788-.321.466-.785.828-1.392 1.087-.606.259-1.363.388-2.268.388-.92 0-1.682-.111-2.285-.335a3.226 3.226 0 0 1-1.467-1.061c-.375-.484-.562-1.09-.562-1.817zM1030.474 2217.497h3.317l1.279 3.786 1.27-3.786h3.313v6.222h-2.065v-4.745l-1.59 4.745h-1.87l-1.588-4.745v4.745h-2.066v-6.222M1043.284 2220.62c0 .629.153 1.08.46 1.354.305.276.722.413 1.249.413.542 0 .96-.135 1.258-.404.297-.269.445-.751.445-1.447 0-.586-.155-1.014-.464-1.284-.31-.27-.73-.405-1.261-.405-.51 0-.917.137-1.225.411-.308.274-.462.73-.462 1.362zm-2.521-.008c0-1.015.37-1.806 1.113-2.372.742-.566 1.776-.849 3.1-.849 1.358 0 2.405.278 3.14.834.735.556 1.102 1.334 1.102 2.337 0 .726-.16 1.323-.482 1.788-.32.466-.784.828-1.391 1.087s-1.363.388-2.268.388c-.92 0-1.682-.111-2.285-.335a3.226 3.226 0 0 1-1.467-1.061c-.375-.484-.562-1.09-.562-1.817zM1049.525 2217.497h7.665v1.536h-2.571v4.686h-2.522v-4.686h-2.572v-1.536M1058.249 2223.719h2.527v-6.222h-2.527zM1061.602 2217.497h2.635l1.837 4.477 1.814-4.477h2.559l-3.03 6.222h-2.734l-3.081-6.222M1071.082 2217.497h6.758v1.328h-4.23v.99h3.923v1.269h-3.923v1.226h4.352v1.409h-6.88v-6.222M1086.86 2221.465v-1.294h3.897v2.652c-.746.388-1.406.652-1.979.792-.574.14-1.253.21-2.04.21-.969 0-1.758-.125-2.369-.377-.61-.252-1.083-.627-1.42-1.125-.336-.498-.503-1.07-.503-1.715 0-.679.184-1.27.55-1.772.368-.503.906-.884 1.615-1.144.553-.201 1.297-.3 2.233-.3.9 0 1.576.06 2.023.185.448.125.818.318 1.113.58.295.261.517.593.665.995l-2.432.331a1.07 1.07 0 0 0-.51-.539c-.239-.124-.545-.187-.915-.187-.554 0-.994.147-1.322.44-.329.292-.493.756-.493 1.39 0 .673.166 1.154.498 1.443.332.288.795.433 1.389.433.282 0 .551-.031.807-.094.256-.061.55-.168.88-.318v-.586h-1.687M1094.638 2220.018h1.063c.115 0 .337-.028.668-.085a.72.72 0 0 0 .409-.195.493.493 0 0 0 .159-.361c0-.2-.084-.355-.25-.463-.168-.107-.482-.16-.941-.16h-1.108v1.264zm-2.533 3.701v-6.222h4.203c.78 0 1.375.05 1.787.153.411.101.744.29.996.566.253.276.378.612.378 1.008 0 .346-.096.643-.29.894-.192.25-.457.453-.796.608-.215.1-.51.182-.885.247.3.076.518.153.657.23.092.05.226.16.402.327.176.167.294.296.353.386l1.222 1.803h-2.85l-1.347-1.902c-.17-.246-.323-.406-.457-.48a1.307 1.307 0 0 0-.617-.143h-.223v2.525h-2.533zM1102.766 2220.62c0 .629.153 1.08.46 1.354.306.276.723.413 1.25.413.541 0 .96-.135 1.257-.404.297-.269.446-.751.446-1.447 0-.586-.156-1.014-.466-1.284-.309-.27-.73-.405-1.26-.405-.509 0-.916.137-1.225.411-.308.274-.462.73-.462 1.362zm-2.522-.008c0-1.015.371-1.806 1.114-2.372.742-.566 1.775-.849 3.1-.849 1.359 0 2.405.278 3.14.834.735.556 1.102 1.334 1.102 2.337 0 .726-.16 1.323-.481 1.788-.321.466-.786.828-1.392 1.087-.607.259-1.363.388-2.269.388-.92 0-1.681-.111-2.285-.335a3.23 3.23 0 0 1-1.467-1.061c-.374-.484-.562-1.09-.562-1.817zM1115.185 2217.497h2.516v3.707c0 .367-.075.715-.225 1.041-.15.327-.386.612-.707.857-.32.245-.657.417-1.01.515-.49.139-1.078.208-1.765.208-.397 0-.83-.021-1.3-.063-.469-.043-.862-.127-1.177-.253a2.933 2.933 0 0 1-.865-.536c-.262-.232-.44-.471-.537-.717-.156-.396-.234-.747-.234-1.052v-3.707h2.516v3.795c0 .34.123.604.37.795.247.191.59.287 1.027.287.434 0 .774-.094 1.022-.282.246-.188.37-.455.37-.8v-3.795M1121.71 2220.15h.619c.486 0 .827-.065 1.024-.194.196-.128.295-.293.295-.494a.615.615 0 0 0-.256-.497c-.171-.136-.492-.203-.963-.203h-.719v1.388zm-2.532-2.653h4.191c.914 0 1.598.165 2.051.496.455.332.682.803.682 1.414 0 .628-.247 1.119-.743 1.472-.495.355-1.251.531-2.268.531h-1.38v2.309h-2.533v-6.222z" fill="#BCCBD4"/></g></svg>