<svg width="300" height="67" viewBox="0 0 300 67" xmlns="http://www.w3.org/2000/svg" xmlns:xlink="http://www.w3.org/1999/xlink"><defs><path id="a" d="M0 66.94h299.712V.478H0z"/></defs><g fill="none" fill-rule="evenodd"><mask id="b" fill="#fff"><use xlink:href="#a"/></mask><path d="M42.843 14.629c1.565-.77 1.095 1.56 1.095 1.56-.223 2.635-2.136 5.783-3.506 8.195-1.397 2.471-6.308 8.288-8.443 9.538.09-3.52 3.859-11.204 5.787-14.139.985-1.722 3.501-4.388 5.067-5.154zm-9.994 34.783c14.88 2.744 25.772-11.676 32.75-24.148 2.794-4.999 7.034-18.084 2.285-23.032-4.349-4.781-7.711 1.5-10.292 3.594l1.995 2.352c3.972 5.021.515 14.562-1.84 19.658-3.538 6.269-10.214 15.763-18.014 14.437-1.697-.393-3.097-2.037-3.686-3.764 4.198-4.154 9.176-11.457 11.971-16.316 2.34-3.955 6.403-11.592 2.657-14.742-3.109-2.156-9.333.949-12.673 3.766-2.031 1.824-3.395 3.322-4.976 5.459-4.292 5.816-8.382 15.8-7.956 23.48-2.062 1.489-4.415 2.98-7.216 2.117-2.769-.617-3.269-2.974-3.665-4.824C12.424 26.314 23.58 12.255 29.842 4.18c0 0-4.94 1.339-8.542 1.496-8.285.347-14.439-3.502-18.922 2.031C1.029 9.681.25 11.752 0 14.211c1.836-1.569 4.556-1.194 7.155-1.043 4.496.396 6.712.935 10.766-.153-3.607 5.09-9.629 15.135-10.734 21.401-.584 4.16-.532 10.717 3.019 13.656 5.892 3.928 11.745 1.186 16.97-2.425 1.55 1.796 3.465 3.368 5.673 3.765zM210.6 35.535c.428-3.027 4.849-7.535 4.889-7.582 1.473-1.479 3.386-2.68 5.244-3.301.766-.33 1.497-.26 1.953.174.171.183.405.517.405 1.071 0 .312-.076.685-.263 1.155-.476 1.174-4.034 4.624-5.047 5.502-1.129 1.071-4.208 3.217-6.576 3.6 0 0-.445.072-.72.11.038-.231.115-.729.115-.729zm-28.639.767c.238-2.022 3.273-5.949 4.892-7.591 1.472-1.482 3.388-2.688 5.24-3.297.978-.233 1.762-.043 2.17.525.158.239.246.516.246.807 0 .369-.131.758-.369 1.138-2.024 3.179-7.246 7.659-11.505 9.002 0 0-.5.163-.78.262.037-.273.106-.846.106-.846zm97.892-14.794c-.822 1.081-3.607 4.117-4.517 5.068-.043.033-.467.443-.467.443-7.534 7.565-13.294 11.95-16.63 12.659-2.278.498-3.316.624-4.382-1.426-.016-.039-.041-.11-.041-.11 0-.013-.109-.961-.109-.961 0-2.728 3.541-8.832 8.278-12.919 1.806-1.582 2.023-2.286 2.047-2.456-.677-1.058-1.089-1.558-2.007-1.942-1.317-.065-3.333 1.329-4.665 2.263-.944.644-3.62 3.104-6.453 5.695-2.366 2.168-4.805 4.41-6.169 5.531 0 0-1.904 1.551-2.308 1.895a75 75 0 0 1 .066-1.201c.05-1.407 1.527-3.752 3.644-6.905.759-1.163 2.656-4.462 2.878-5.049l.029-.054-.034-.063c-.613-.997-1.784-1.78-2.728-1.828-.096.037-.834.649-.834.649-1.596 1.296-4.992 4.357-8.273 7.33-3.015 2.726-5.86 5.287-6.565 5.804-5.531 4.104-10.33 6.787-15.059 8.448-.849.246-3.738.941-5.168-.672 0 0-.329-.36-.494-.565.208-.097.679-.295.679-.295 4.134-1.761 9.343-4.179 13.124-7.421.055-.051 5.798-4.973 5.798-9.829 0-.217-.011-.423-.028-.629-.36-1.746-1.847-2.281-3.975-2.544-6.951.037-13.198 4.312-16.441 7.959l-.572.626c-1.506 1.639-6.077 6.605-7.935 11.026 0 0-.084.199-.107.23-.01-.011-.172.059-.172.059-3.131 1.321-6.538 2.596-10.322 2.99-2.038.258-4.937.432-6.555-1.047 0 0-.399-.347-.575-.517.32-.166 7.902-4.225 7.902-4.225 6.255-3.796 10.443-9.572 10.443-12.579-.128-3.493-3.397-4.282-6.119-4.319-4.048.018-7.777 1.515-12.492 4.985-2.729 2.013-8.447 8.542-9.973 15.243 0 0-.04.225-.069.321-.128.037-.598.15-.598.15-2.995.742-8.02 1.959-8.947-.962-1.489-4.75 3.267-9.315 7.077-12.984 0-.005 2.147-2.107 2.147-2.107.298-.332.662-1.121.559-1.736a.88.88 0 0 0-.45-.675c-2.037-.895-3.993-.202-6.066.538-1.554.547-3.169 1.115-4.87.992 0 0-.339-.039-.537-.054.017-.18.047-.543.047-.543.089-1.002.675-1.602 1.196-2.135.013-.002.171-.178.171-.178.087-.105.137-.312.137-.552 0-.213-.038-.442-.134-.652-.132-.321-.336-.513-.586-.532-1.196-.153-3.254 1.034-5.132 2.922-1.794 1.834-2.928 3.808-2.928 5.168l.016.276c.014.038.01.114.01.114-.224 3.077-2.902 6.028-6.627 10.121l-1.613 1.78-.622.638c-2.235 2.276-3.644 3.985-4.084 4.928l-.126.274.303-.082c1.584-.473 6.131-2.672 14.27-12.918 0 0 .121-.145.174-.238.105.011.305.04.305.04.374.053.844-.146 1.339-.338.827-.334 1.775-.7 2.671-.105 0 0 .343.219.489.324-.155.193-1.594 2.035-1.594 2.035-2.271 2.843-4.606 5.77-4.606 9.268 0 .677.088 1.371.281 2.088.429 2.052 2.535 3.029 4.206 3.244 3.381.58 7.622-1.287 11.368-2.93l1.896-.827c1.058-.29 1.364.357 1.583.823.259.555.633 1.35 2.266 2.057 5.464 2.476 13.485 1.252 23.852-3.633 0 0 .307-.145.5-.238.079.181.215.541.215.541.743 2.01 2.146 3.25 4.441 3.916 8.922 1.186 16.277-3.918 23.393-8.854.008-.004 3.247-2.466 3.778-2.876.132.133.711.764.792.865-.112.173-3.127 4.402-3.127 4.402-1.056 1.539-2.032 2.986-2.647 4.611 0-.015-.183.678-.183.678l.081.361c.152.274.533.466 1.091.543 5.419-.745 10.636-5.164 14.08-8.079l1.034-.874c1.475-1.29 2.895-2.498 3.457-2.623 0 0 .213-.062.324-.09l.25.284c.02.02.02.05.02.08 0 .269-.399.894-.692 1.326l-.541.882c-.459.966-1.382 2.864-1.382 4.548 0 .603.125 1.202.463 1.707 1.621 2.513 3.04 2.589 4.566 2.679l.541.024c6.392-.407 12.664-5.954 18.74-11.324l4.523-3.911s3.655-3.197 4.396-3.863c.101.23.253.666.253.666a8.113 8.113 0 0 1 .558 2.918l-.111 1.268c-.071.562-1.079 4.504-2.464 5.621l-.285.154c-.013 0-.887.225-.887.225-3.34.855-7.125 1.812-8.535 5.154-.005.009-.129.758-.129.758 0 .447.172 1.089.93 1.595 2.357.606 4.804.03 6.958-.496l2.769-.588c2.263.013 4.462.278 6.587.534 2.961.348 5.744.691 8.703.39 3.822-1 6.875-5.345 7.823-8.941l.083-.291-.288.142c-4.749 2.352-10.23 2.455-14.676.272 0 0-.312-.151-.455-.229.066-.144.2-.49.2-.49.036-.064 2.745-6.684 2.745-15.26 0-.388-.006-.789-.014-1.181h.014a2.136 2.136 0 0 1-.081-.596c0-.787.398-1.437.763-2.023.374-.588.685-1.096.685-1.709 0-.088-.006-.174-.008-.276-.02-.002-.02-.029-.02-.051 0-.072.022-.167.022-.167.006-.014.006-.024.006-.038 0-.211-.333-.321-.49-.365-3.724-.935-5.833 1.82-8.262 5.022zM123.532 41.114l-.084-.058c-1.418-1.025-1.861-2.468-1.277-4.159.534-1.973 6.008-8.026 10.337-8.869 3.931-.763 5.502.569 6.26 1.201 0 .015.412.339.607.507-.164.18-2.125 2.281-2.125 2.281-2.886 4.076-10.118 10.763-13.718 9.097zm-10.237-22.813c1.646-2.021 4.349-3.803 5.159-4.184.622-.291.95.057 1.039.168.138.17.179.395.179.619 0 .27-.074.537-.17.65l.031.007c-1.443 5.023-10.549 15.685-15.788 19.423 0 0-.629.44-1.001.705.048-.392.159-1.203.159-1.203.447-3.572 7.218-12.289 10.392-16.185zM73.118 28.865c3.394-1.658 7.643-1.541 10.804.307 0 0 .362.208.546.318-.148.217-2.33 3.25-2.33 3.25-3.594 4.372-10.526 8.688-13.485 8.424v-.008c-1.382-.121-2.351-.794-2.586-1.828l-.049-.871c0-2.949 3.926-7.514 5.988-8.912-.024.018 1.112-.68 1.112-.68zm50.633-21.51h-.01c-4.805.444-9.331 3.126-14.673 8.678-2.185 2.064-12.274 14.617-13.937 24.158 0 0-.028.182-.043.264a2.388 2.388 0 0 0-.231.117c-1.461.785-5.864 2.68-8.657 1.971-.832-.207-1.456-.637-1.832-1.276a5.48 5.48 0 0 1-.634-2.571c0-2.081 1.151-3.942 2.15-5.61.004-.004.528-.877.566-.941.017.019.189-.031.189-.031 2.583-.743 6.627-5.665 7.653-8.677l.031-.08-.076-.051c-3.012-1.847-7.053-1.801-9.903-1.449-4.699.543-10.051 2.619-14.321 5.529-5.134 3.504-9.574 10.649-10.505 15.124-.502 2.553-.83 5.144.936 6.347 3.672 2.131 10.895-1.743 15.826-6.465l1.028-.976c-.037.519-.161 1.923-.161 1.923a20.38 20.38 0 0 0-.119 2c0 1.306.22 2.614 1.077 3.426 4.068 3.229 12.439-.31 17.059-3.47 0 0 .268-.186.408-.274.112.133.312.391.312.391 1.472 1.82 3.205 3.775 5.18 4.107 5.157.719 9.196-2.255 12.787-5.572 0 0 .466-.432.7-.654.074.377.347 1.66.347 1.66.265 1.327.503 2.588 1.536 3.416 2.606 2.014 8.442-.727 11.727-3.063 0 0 .758-.533 1.194-.847-.107.461-.367 1.416-.367 1.416-.554 2.168-1.593 4.248-2.599 6.259l-.906 1.84-.15.24-.262.438c-1.401 2.238-3.996 6.436-6.524 6.801l-.177.023c-.65-.232-1.064-.601-1.286-1.084l-.184-.937c0-1.133.596-2.422 1.118-3.558l.107-.227-.24.013c-1.175.188-2.226.679-3.374 1.27-2.34 1.383-4.747 4.508-4.747 7.316 0 .588.095 1.143.298 1.649.484 1.07 1.753 1.105 2.288 1.076 16.011-1.5 25-19.662 31.559-32.93l1.287-2.615c.396-.527.462-.844.462-1.029l-.012-.153a15.534 15.534 0 0 1-.245-.303c.022.018-.16-.952-.16-.952.27-1.283 3.372-3.975 3.405-4.01 0 .007.396-.297.396-.297.317-.203.518-.418.522-.584 0-.191-.209-.43-.522-.629-.634-.406-1.315-.697-3.922-1.422-4.809-1.35-13.082-.334-20.588 6.935-.788.754-2.239 2.588-3.422 4.049l-1.519 1.893c-3.655 4.267-7.428 8.695-13.661 7.457-.82-.336-1.68-1.024-2.016-1.859-.174-.489-.164-.973.043-1.409l.076-.157c3.453-2.421 7.003-5.569 10.652-9.391 6.128-6.545 13.629-17.555 12.645-20.291-.736-1.907-2.919-1.973-3.579-1.942z" fill="#bccbd4" mask="url(#b)"/></g></svg>