
<svg width="122px" height="89px" viewBox="247 2131 122 89" version="1.1" xmlns="http://www.w3.org/2000/svg" xmlns:xlink="http://www.w3.org/1999/xlink">
    <defs></defs>
    <g id="icon-logo-cali" stroke="none" stroke-width="1" fill="none" fill-rule="evenodd" transform="translate(247.000000, 2131.000000)">
        <path d="M88.159631,0.561868687 C85.2199262,1.41590909 83.1265683,3.82520202 80.9071587,5.785 C75.4554244,10.4013131 70.962583,15.9930303 66.5012546,21.5173232 C57.1239114,33.3570202 48.1922509,45.5338384 39.3281181,57.7511111 C35.2494465,63.9451515 31.4138745,70.3369697 26.4798524,75.9107071 C24.1163838,78.5222727 21.49631,81.1203535 18.1469373,82.410404 C15.7401952,83.3395847 13.0124569,82.7966242 11.1465683,81.0169697 C8.92521187,79.0720549 7.68200632,76.2437318 7.75217712,73.2946465 C7.81520295,67.1905051 9.75549815,61.2796465 12.055941,55.6834343 C16.5983026,44.859596 23.64369,35.2628788 31.4904059,26.5921212 C35.5420664,22.3219192 39.7783026,18.1910606 44.7393358,15.0221212 C46.5940959,13.9568182 48.655941,12.7746465 50.8843542,13.1971717 C52.0905495,13.4309431 52.9632963,14.4830342 52.9687085,15.7098485 C53.301845,19.1529798 51.6721771,22.3623737 49.9839852,25.2391414 C47.6837112,29.1096929 44.6206656,32.4738821 40.9802952,35.1280303 C39.6567528,36.1708586 38.198155,37.2541414 37.5453875,38.8588384 C36.9376384,40.5669192 38.0991144,42.454798 39.7602952,42.9447475 C41.6195572,43.2908586 43.1231734,41.8749495 44.4467159,40.8006566 C47.7346097,37.7402848 50.5449187,34.205507 52.7841328,30.3139394 C55.1476015,26.0976768 57.1509225,21.539798 57.3535055,16.6582828 C57.5020664,14.0107576 56.5431734,11.1969192 54.4092989,9.52929293 C52.1268635,7.78075758 49.0070849,7.78075758 46.36,8.53590909 C40.9037638,10.0641919 36.3839114,13.705101 32.2242066,17.3999495 C25.1383026,23.9176263 19.1553506,31.5365657 13.9332103,39.5825253 C9.88154982,45.7900505 6.19904059,52.2942424 3.48442804,59.2119697 C1.77822878,63.8552525 0.355645756,68.7322727 0.454686347,73.7441414 C0.333136531,78.3110101 2.22841328,83.0127273 5.780369,85.9569192 C8.73060784,88.3444548 12.6537607,89.1630374 16.3146863,88.1549495 C21.6088561,86.6401515 25.7685609,82.8194444 29.4420664,78.8998485 C37.9460517,69.5548485 44.7483395,58.5916667 54.7019188,50.6041414 C60.0546125,46.2440404 66.6903321,43.2324242 73.6816974,43.1380303 C73.5646494,46.0417677 73.5826568,48.9814646 74.217417,51.8357576 C74.4965314,52.9100505 74.915203,54.1236869 75.9911439,54.645101 C77.4587454,54.7080303 78.7372694,53.489899 79.0569004,52.1099495 C80.0338007,48.8511111 80.4074539,45.4529293 80.9521771,42.099697 C83.1535793,41.5108586 85.4540221,41.7490909 87.7049446,41.5827778 C89.8523247,40.9759596 91.2073801,37.4833838 89.1365314,36.0360101 C87.1242066,35.0381313 84.8012546,35.7708081 82.6628782,35.6629293 C84.5716605,27.410202 87.2772694,19.3687374 90.2349815,11.4396465 C91.0723247,9.15621212 92.1842804,6.94469697 92.4859041,4.50393939 C92.8505535,2.17106061 90.4915867,-0.0898989899 88.159631,0.561868687 L88.159631,0.561868687 Z M79.3765314,23.9356061 C77.7513653,28.2013131 76.8329889,32.6917677 75.3248708,36.9979293 C67.478155,37.8609596 60.0591144,41.1512626 53.4684133,45.3810101 C54.2517343,43.5830303 55.6157934,42.1131818 56.7457565,40.5174747 C62.8952768,32.6513131 69.6435424,25.275101 76.4413284,17.9708081 C78.6930338,15.4919974 81.2061104,13.2630801 83.9369004,11.3227778 C82.3972694,15.5120707 80.9296679,19.7283333 79.3765314,23.9131313 L79.3765314,23.9356061 Z" id="Shape" fill="#BCCBD4"></path>
        <path d="M58.6950554,58.2815152 C63.8001476,56.7172727 69.8686347,57.9309091 73.4205904,62.0887374 C72.3716605,63.1630303 71.2957196,64.2193434 70.2062731,65.235202 C68.2929889,63.3742929 65.7764576,61.9179293 63.003321,62.1157071 C60.302214,61.9718687 57.7811808,63.4641919 56.2505535,65.6307576 C54.2585299,68.6145642 54.5187476,72.5616033 56.8853137,75.2589394 C59.0687085,77.8794949 62.859262,78.7020707 66.0600738,77.7491414 C67.8040801,77.1940982 69.1764793,75.8388409 69.7515867,74.1037374 L63.0393358,74.1037374 L63.0393358,69.8694949 L75.0232472,69.8694949 C75.4132879,74.454746 73.1131574,78.8517592 69.1213284,81.1518182 C64.3358672,83.570101 57.9522509,82.8059596 54.0626568,79.0436869 C51.2602141,76.2358888 49.9185902,72.290219 50.4296679,68.3591919 C51.0337163,63.7006583 54.2400551,59.7912897 58.6950554,58.2815152 L58.6950554,58.2815152 Z" id="Shape" fill="#BCCBD4"></path>
        <path d="M100.346125,58.2455556 L104.974022,58.2455556 C106.968339,63.7338889 108.904133,69.2491919 110.826421,74.76 C111.591734,73.5958081 111.879852,72.2113636 112.388561,70.930303 C113.865166,66.6915657 115.490332,62.5067677 116.94893,58.2635354 L121.581328,58.2635354 C118.902731,66.2285859 115.904502,74.0902525 113.059336,81.9968687 L108.733063,81.9968687 C105.905904,74.0902525 103.033727,66.1971212 100.346125,58.2455556 L100.346125,58.2455556 Z" id="Shape" fill="#BCCBD4"></path>
        <path d="M100.256089,70.1481818 C100.467675,65.3970202 97.4469373,60.9065657 93.2692251,58.8074242 C90.8337269,57.5263636 87.9660517,57.4814141 85.3054613,57.8769697 C82.8052753,58.4574828 80.5336341,59.7651953 78.777786,61.6347475 C74.6315867,66.0667677 74.4290037,73.5283838 78.4356458,78.1177273 C82.5503321,83.4352525 91.2884133,84.0510606 96.1549077,79.4662121 C98.8464637,77.1271589 100.350594,73.7097213 100.256089,70.1481818 L100.256089,70.1481818 Z M90.4105535,77.7446465 C87.1725768,78.7848935 83.631037,77.6429853 81.6139483,74.9083333 C78.5481919,70.7190404 80.5245018,63.720404 85.7376384,62.3674242 C87.6104059,61.9898485 89.699262,61.9718687 91.4099631,62.9382828 C94.0443133,64.3712664 95.6756533,67.1349419 95.655203,70.130202 C95.7138369,73.5258673 93.6072514,76.5843134 90.4105535,77.7446465 L90.4105535,77.7446465 Z" id="Shape" fill="#BCCBD4"></path>
        <path d="M44.8473801,74.1127273 C48.2372694,73.4070202 51.3705535,77.3176263 49.7994096,80.4506061 C48.6469373,83.5296465 44.0415498,84.1319697 42.0562362,81.5608586 C39.8053137,79.0391919 41.4574908,74.5127778 44.8473801,74.1127273 L44.8473801,74.1127273 Z" id="Shape" fill="#BCCBD4"></path>
    </g>
</svg>