<svg width="173" height="84" viewBox="745 2140 173 84" xmlns="http://www.w3.org/2000/svg"><g fill="#BCCBD4" fill-rule="evenodd"><path d="M752.008 2195.542l3.905 20.31 10.683.095 12.023-20.305h-8.545l-7.351 12.81-1.085-12.91h-9.63M786.84 2202.847h8.222s.4-2.538-3.912-2.538c-4.31 0-4.31 2.538-4.31 2.538zm-2.281 4.39h18.287s1.598-11.784-10.716-11.784c-12.313 0-16.225 9.838-16.225 13.189 0 3.355 3.152 8.238 11.153 8.238 8.004 0 11.88-2.133 15.028-6.45h-8.654s-1.703 1.473-5.288 1.473-3.585-4.667-3.585-4.667zM804.26 2215.947l3.983-20.405h7.892l-.864 4.205s3.909-4.86 9.74-4.86l-1.848 8.149s-8.25-1.127-9.09 5.7c-.834 6.833-.942 7.21-.942 7.21h-8.871M827.289 2195.453l-4.018 20.305h9.852l4.022-20.399-9.856.094M828.376 2192.442l.869-5.516h8.837l-.838 5.516h-8.868M838.843 2201.53l.546-6.171h23.14l-.217 2.977-16.735 19.555 68.226 1.733-.76 2.583-78.73 1.6.437-2.91 16.009-19.366h-11.916"/><path d="M870.966 2206.197c0-3.35.975-5.139 3.57-5.139 2.62 0 3.777 1.79 3.777 5.05 0 3.756-1.489 4.945-3.778 5.044-2.16.094-3.569-1.566-3.569-4.955zm7.026-10.933c4.668 0 9.74 2.133 9.74 9.339 0 4.133-4.344 12.277-17.203 12.277-6.157 0-10.032-2.533-10.032-8.238 0-2.723 2.357-13.378 17.495-13.378zM887.622 2216.035l4.235-20.493h8.763l-.758 3.167s2.607-3.917 9.74-3.917 7.463 4.295 7.242 5.05c-.215.75-2.934 16.105-2.934 16.105h-8.87l2.064-11.811s.725-2.889-3.261-2.889c-2.786 0-3.762 1.878-3.762 1.878l-2.395 12.727-10.064.183M765.639 2187.515l142.557-45.23-.25-1.3-140.807 41.77-19.757-42.637-1.503.867 19.76 46.53"/></g></svg>