<svg width="122" height="89" viewBox="247 2131 122 89" xmlns="http://www.w3.org/2000/svg"><g fill="#BCCBD4" fill-rule="evenodd"><path d="M335.16 2131.562c-2.94.854-5.033 3.263-7.253 5.223-5.452 4.616-9.944 10.208-14.406 15.732-9.377 11.84-18.309 24.017-27.173 36.234-4.079 6.194-7.914 12.586-12.848 18.16-2.364 2.611-4.984 5.21-8.333 6.5a6.666 6.666 0 0 1-7-1.394 9.95 9.95 0 0 1-3.395-7.722c.063-6.104 2.003-12.015 4.304-17.612 4.542-10.823 11.588-20.42 19.434-29.09 4.052-4.271 8.288-8.402 13.25-11.57 1.854-1.066 3.916-2.248 6.144-1.826a2.572 2.572 0 0 1 2.085 2.513c.333 3.443-1.297 6.652-2.985 9.53a33.281 33.281 0 0 1-9.004 9.888c-1.323 1.043-2.782 2.126-3.435 3.73-.607 1.709.554 3.597 2.215 4.087 1.86.346 3.363-1.07 4.687-2.144a44.96 44.96 0 0 0 8.337-10.487c2.364-4.216 4.367-8.774 4.57-13.656.148-2.647-.81-5.461-2.945-7.129-2.282-1.748-5.402-1.748-8.049-.993-5.456 1.528-9.976 5.17-14.136 8.864-7.086 6.518-13.069 14.137-18.29 22.183-4.052 6.207-7.735 12.711-10.45 19.629-1.706 4.643-3.128 9.52-3.03 14.532-.12 4.567 1.774 9.269 5.326 12.213a11.777 11.777 0 0 0 10.535 2.198c5.294-1.515 9.454-5.336 13.127-9.255 8.504-9.345 15.306-20.308 25.26-28.296 5.353-4.36 11.988-7.372 18.98-7.466-.117 2.904-.1 5.843.535 8.698.28 1.074.698 2.288 1.774 2.81 1.468.062 2.746-1.156 3.066-2.536.977-3.259 1.35-6.657 1.895-10.01 2.202-.59 4.502-.35 6.753-.517 2.147-.607 3.502-4.1 1.432-5.547-2.013-.998-4.336-.265-6.474-.373 1.909-8.253 4.614-16.294 7.572-24.223.837-2.284 1.95-4.495 2.25-6.936.366-2.333-1.993-4.594-4.325-3.942zm-8.783 23.374c-1.626 4.265-2.544 8.756-4.052 13.062-7.847.863-15.266 4.153-21.857 8.383.784-1.798 2.148-3.268 3.278-4.864 6.15-7.866 12.898-15.242 19.695-22.546a46.558 46.558 0 0 1 7.496-6.648c-1.54 4.19-3.007 8.405-4.56 12.59v.023z"/><path d="M305.695 2189.282c5.105-1.565 11.174-.351 14.726 3.807a96.219 96.219 0 0 1-3.215 3.146c-1.913-1.86-4.43-3.317-7.203-3.12-2.7-.143-5.222 1.35-6.752 3.516a7.924 7.924 0 0 0 .634 9.628c2.184 2.62 5.974 3.443 9.175 2.49a5.713 5.713 0 0 0 3.692-3.645h-6.713v-4.235h11.984a11.862 11.862 0 0 1-5.902 11.283c-4.785 2.418-11.169 1.654-15.058-2.108a12.79 12.79 0 0 1-3.633-10.685 12.316 12.316 0 0 1 8.265-10.077zM347.346 2189.246h4.628c1.994 5.488 3.93 11.003 5.852 16.514.766-1.164 1.054-2.549 1.563-3.83 1.476-4.238 3.101-8.423 4.56-12.666h4.632c-2.678 7.965-5.676 15.826-8.522 23.733h-4.326c-2.827-7.907-5.7-15.8-8.387-23.751z"/><path d="M347.256 2201.148c.212-4.751-2.81-9.241-6.987-11.34-2.435-1.282-5.303-1.327-7.964-.931-2.5.58-4.771 1.888-6.527 3.758-4.146 4.432-4.349 11.893-.342 16.483 4.114 5.317 12.852 5.933 17.719 1.348a11.926 11.926 0 0 0 4.101-9.318zm-9.845 7.597a7.921 7.921 0 0 1-8.797-2.837c-3.066-4.189-1.09-11.188 4.124-12.54 1.872-.378 3.961-.396 5.672.57a8.125 8.125 0 0 1 4.245 7.192 7.956 7.956 0 0 1-5.244 7.615zM291.847 2205.113c3.39-.706 6.524 3.205 4.952 6.338-1.152 3.079-5.757 3.681-7.743 1.11-2.25-2.522-.599-7.048 2.791-7.448z"/></g></svg>