<svg width="287" height="52" viewBox="0 0 287 52" xmlns="http://www.w3.org/2000/svg" xmlns:xlink="http://www.w3.org/1999/xlink"><defs><path id="a" d="M49.984 25.062v25.046H0V.016h49.984z"/></defs><g fill="none" fill-rule="evenodd"><path d="M37.562 27.541c-.602.011-1.107-.204-1.497-.635-1.05-1.16-3.067-1.795-5.997-1.887a23.5 23.5 0 0 0-.734-.011c-.688 0-1.346.029-1.934.07l17.509-2.746c-.637.727-4.633 5.165-7.347 5.21zm5.146 8.292c-.455.07-2.007.292-3.748.344-1.894.055-4.405-.084-5.613-1.066-.455-.369-.696-.838-.72-1.395-.064-1.571-1.218-3.363-3.427-5.325a27.07 27.07 0 0 0-2.06-1.646l15.568 9.088zm-10.89 8.839c-.838-.502-5.98-3.683-6.514-6.365-.117-.589.001-1.12.352-1.578.942-1.23 1.157-3.477.64-6.679a31.781 31.781 0 0 0-.55-2.64l6.071 17.262zm-6.791-18.958l.017-.001a.44.44 0 0 0 .003.009l-.02-.008zM24.9 25.7h.004l-.001.004-.003-.004zM7.46 35.582c.34-.905 2.52-6.469 5.045-7.47.56-.221 1.106-.2 1.623.066.658.339 1.43.478 2.258.478 2.126 0 4.613-.923 6.443-1.768L7.459 35.582zm4.523-25.505c.66.12 2.147.418 3.72.931 2.344.765 3.907 1.697 4.52 2.697.315.512.389 1.055.22 1.613-.455 1.507.045 3.58 1.487 6.16.466.835.97 1.611 1.426 2.264L11.982 10.077zm16.884 3.317c-.084.599-.36 1.046-.846 1.365-1.317.868-2.261 2.787-2.805 5.702-.15.807-.253 1.599-.321 2.309V5.365c.678.817 4.341 5.375 3.972 8.029zm-10.89 31.113c-.328-.944-2.2-6.601-.902-8.969.287-.525.719-.856 1.281-.983 2.521-.567 4.626-4.094 5.82-6.573l-6.2 16.525zM5.125 22.035c.864-.492 6.07-3.355 8.648-2.497.57.19.973.557 1.2 1.09.563 1.334 2.065 2.52 4.462 3.528 1.063.446 2.15.792 3.081 1.048l-17.391-3.17zm33.097-11.752c-.024.967-.255 6.94-2.31 8.716-.457.395-.98.554-1.555.473-1.553-.217-3.518.6-5.84 2.426a27.069 27.069 0 0 0-1.982 1.733l11.687-13.348zM45.14 22.21c-.014-.009-1.5-.932-3.321-1.734-2.46-1.084-4.33-1.445-5.558-1.072-.642.195-1.103.593-1.37 1.185-.62 1.367-2.303 2.55-5.004 3.513-2 .714-3.953 1.082-4.663 1.202 1.003-1.107 5.72-6.08 9.103-5.607.642.09 1.225-.087 1.733-.526.971-.84 1.669-2.616 2.073-5.278.3-1.97.317-3.722.317-3.74l.001-.13-.129.018c-.017.002-1.747.248-3.658.802-2.582.747-4.248 1.671-4.952 2.746-.368.561-.467 1.164-.294 1.79.913 3.319-3.449 8.694-4.38 9.792.027-1.556.313-8.315 3.137-10.175.55-.362.875-.887.97-1.562.178-1.28-.468-3.083-1.92-5.356A29.844 29.844 0 0 0 25 5.054l-.106-.124-.107.124a29.853 29.853 0 0 0-2.224 3.023c-1.452 2.273-2.097 4.075-1.919 5.356.094.675.42 1.2.97 1.562 2.877 1.895 3.119 8.815 3.138 10.238-.505-.627-1.65-2.116-2.627-3.865-1.41-2.525-1.905-4.539-1.468-5.985.188-.622.107-1.227-.243-1.796-1.474-2.403-7.337-3.546-8.497-3.751l-.157-.028-.002.132c-.004.287-.08 7.043 2.162 9.079.496.45 1.073.641 1.717.568 1.496-.173 3.383.675 5.61 2.518 1.485 1.23 2.713 2.578 3.27 3.22l-.095-.017c-1.845-.364-7.969-1.782-9.278-4.772-.26-.593-.714-.996-1.35-1.199-2.864-.913-8.669 2.546-8.914 2.694l-.113.068.084.101c.184.22 4.526 5.394 7.533 5.475h.105a2.093 2.093 0 0 0 1.565-.688c2.218-2.392 8.459-1.715 10.315-1.45l.422.07c.005.008.011.014.017.021-.891.498-2.634 1.407-4.578 2.06-2.632.886-4.651.984-6 .29-.577-.297-1.185-.322-1.809-.075-2.83 1.122-5.123 7.458-5.22 7.727l-.043.123.127.026c.165.033 2.52.499 4.924.499 1.678 0 3.38-.228 4.373-.989.531-.408.822-.943.865-1.59.1-1.507 1.27-3.216 3.479-5.081 1.605-1.355 3.28-2.377 3.913-2.747l-.2.53c-.404.966-1.25 2.835-2.37 4.504-1.333 1.984-2.666 3.139-3.963 3.43-.629.142-1.11.51-1.43 1.094-.6 1.097-.643 2.94-.126 5.476.385 1.89.949 3.5 1.058 3.804l.045.125.115-.064a29.863 29.863 0 0 0 3.29-2.159c2.053-1.564 3.231-2.977 3.502-4.198.144-.653.025-1.249-.355-1.772-.782-1.076-1.025-2.823-.722-5.192.256-1.995.849-3.958 1.178-4.946l.23-.613c.386 1.26 2.357 8.128.386 10.702-.391.512-.524 1.104-.393 1.76.252 1.266 1.465 2.76 3.605 4.441 1.584 1.244 3.115 2.133 3.13 2.142l.116.067.049-.132a29.7 29.7 0 0 0 1.105-3.716c.576-2.572.57-4.448-.02-5.577-.311-.599-.79-.982-1.42-1.14-3.17-.796-5.904-7.525-6.345-8.66.685.427 2.253 1.457 3.747 2.783 2.162 1.92 3.29 3.658 3.352 5.165.026.625.295 1.15.802 1.562 1.09.885 3.121 1.131 5.043 1.131 2.315 0 4.471-.357 4.633-.384l.13-.022-.043-.126c-.022-.066-2.394-6.583-5.33-7.805-.647-.27-1.278-.26-1.875.03-3.141 1.517-9.302-1.926-10.44-2.592.764-.108 2.685-.339 4.738-.274 2.866.09 4.83.7 5.838 1.813.425.47.971.709 1.623.709h.043c1.284-.021 2.955-.937 4.967-2.722a29.83 29.83 0 0 0 2.635-2.667l.084-.1-.11-.069z" fill="#FFF"/><g transform="translate(0 .04)"><mask id="b" fill="#fff"><use xlink:href="#a"/></mask><path d="M24.992 48.384C12.14 48.361 1.743 37.942 1.722 25.062c.021-12.88 10.417-23.3 23.27-23.316 12.853.017 23.248 10.435 23.266 23.316-.018 12.88-10.413 23.3-23.266 23.322m0-48.368C11.188.02 0 11.235 0 25.062c0 13.834 11.188 25.046 24.992 25.046 13.802 0 24.987-11.212 24.992-25.046C49.98 11.235 38.794.02 24.992.016" fill="#FFF" mask="url(#b)"/></g></g><path d="M75 20.882a3.994 3.994 0 0 0-.754-.611 7.543 7.543 0 0 0-1.157-.611 8.436 8.436 0 0 0-1.456-.468 7.241 7.241 0 0 0-1.625-.182c-1.23 0-2.136.225-2.717.676-.58.45-.871 1.075-.871 1.872 0 .45.091.819.273 1.105.182.286.464.537.845.754.381.217.858.407 1.43.572.572.165 1.24.342 2.002.533.936.225 1.781.477 2.535.754.754.277 1.391.615 1.911 1.014s.923.888 1.209 1.469c.286.58.429 1.287.429 2.119 0 .936-.178 1.742-.533 2.418a4.539 4.539 0 0 1-1.456 1.651c-.615.425-1.33.737-2.145.936-.815.2-1.69.299-2.626.299a13.1 13.1 0 0 1-4.069-.637 11.665 11.665 0 0 1-3.549-1.859l1.326-2.496c.225.225.55.477.975.754a9.08 9.08 0 0 0 1.482.767c.563.234 1.174.433 1.833.598a8.438 8.438 0 0 0 2.054.247c1.144 0 2.028-.2 2.652-.598.624-.399.936-.988.936-1.768 0-.468-.117-.858-.351-1.17-.234-.312-.568-.585-1.001-.819a8.728 8.728 0 0 0-1.586-.637 54.08 54.08 0 0 0-2.132-.598 22.084 22.084 0 0 1-2.405-.767c-.685-.269-1.252-.594-1.703-.975a3.828 3.828 0 0 1-1.027-1.339c-.234-.511-.351-1.131-.351-1.859 0-.901.173-1.703.52-2.405a5.14 5.14 0 0 1 1.417-1.768c.598-.477 1.304-.836 2.119-1.079a9.253 9.253 0 0 1 2.652-.364c1.248 0 2.4.2 3.458.598 1.057.399 1.985.893 2.782 1.482L75 20.882zm8.216 14.378c-.659 0-1.27-.108-1.833-.325a4.43 4.43 0 0 1-1.456-.897 4.183 4.183 0 0 1-.962-1.352 4.07 4.07 0 0 1-.351-1.69c0-.641.139-1.222.416-1.742.277-.52.672-.97 1.183-1.352.511-.381 1.118-.676 1.82-.884a8.17 8.17 0 0 1 2.327-.312c.641 0 1.274.056 1.898.169a9.558 9.558 0 0 1 1.69.455v-.936c0-1.005-.286-1.79-.858-2.353-.572-.563-1.395-.845-2.47-.845-.728 0-1.443.134-2.145.403s-1.426.654-2.171 1.157l-.884-1.82c1.75-1.179 3.57-1.768 5.46-1.768 1.872 0 3.328.477 4.368 1.43 1.04.953 1.56 2.323 1.56 4.108v4.914c0 .607.251.919.754.936V35a7.49 7.49 0 0 1-.715.104c-.2.017-.394.026-.585.026-.555 0-.984-.139-1.287-.416a1.779 1.779 0 0 1-.559-1.066l-.078-.858a6.064 6.064 0 0 1-2.249 1.833 6.602 6.602 0 0 1-2.873.637zm.78-2.106a5.14 5.14 0 0 0 1.963-.377c.615-.251 1.096-.602 1.443-1.053.364-.312.546-.641.546-.988v-1.794a8.645 8.645 0 0 0-1.547-.442 8.536 8.536 0 0 0-1.599-.156c-1.023 0-1.859.221-2.509.663-.65.442-.975 1.027-.975 1.755 0 .676.251 1.244.754 1.703.503.46 1.144.689 1.924.689zm27.222-11.752h2.73L108.228 35h-2.366l-2.522-6.318L100.818 35h-2.366l-5.746-13.598h2.73l4.394 10.842 1.976-5.044-2.366-5.772h2.34l1.56 4.264 1.534-4.264h2.34l-2.34 5.772 1.976 5.044 4.368-10.842zM115.846 35V21.402h2.86V35h-2.86zm0-15.834V16.02h2.86v3.146h-2.86zm9.906 16.094c-.659 0-1.27-.108-1.833-.325a4.43 4.43 0 0 1-1.456-.897 4.183 4.183 0 0 1-.962-1.352 4.07 4.07 0 0 1-.351-1.69c0-.641.139-1.222.416-1.742.277-.52.672-.97 1.183-1.352.511-.381 1.118-.676 1.82-.884a8.17 8.17 0 0 1 2.327-.312c.641 0 1.274.056 1.898.169a9.558 9.558 0 0 1 1.69.455v-.936c0-1.005-.286-1.79-.858-2.353-.572-.563-1.395-.845-2.47-.845-.728 0-1.443.134-2.145.403s-1.426.654-2.171 1.157l-.884-1.82c1.75-1.179 3.57-1.768 5.46-1.768 1.872 0 3.328.477 4.368 1.43 1.04.953 1.56 2.323 1.56 4.108v4.914c0 .607.251.919.754.936V35a7.49 7.49 0 0 1-.715.104c-.2.017-.394.026-.585.026-.555 0-.984-.139-1.287-.416a1.779 1.779 0 0 1-.559-1.066l-.078-.858a6.064 6.064 0 0 1-2.249 1.833 6.602 6.602 0 0 1-2.873.637zm.78-2.106a5.14 5.14 0 0 0 1.963-.377c.615-.251 1.096-.602 1.443-1.053.364-.312.546-.641.546-.988v-1.794a8.645 8.645 0 0 0-1.547-.442 8.536 8.536 0 0 0-1.599-.156c-1.023 0-1.859.221-2.509.663-.65.442-.975 1.027-.975 1.755 0 .676.251 1.244.754 1.703.503.46 1.144.689 1.924.689zM148.996 35h-2.86v-7.618c0-1.283-.204-2.214-.611-2.795-.407-.58-1.01-.871-1.807-.871-.416 0-.832.078-1.248.234a4.37 4.37 0 0 0-1.17.663 5.164 5.164 0 0 0-.975 1.014c-.286.39-.507.819-.663 1.287V35h-2.86V21.402h2.6v2.73c.52-.919 1.274-1.642 2.262-2.171.988-.529 2.08-.793 3.276-.793.815 0 1.482.147 2.002.442.52.295.932.698 1.235 1.209.303.511.516 1.1.637 1.768.121.667.182 1.374.182 2.119V35zm6.942.26c-.659 0-1.27-.108-1.833-.325a4.43 4.43 0 0 1-1.456-.897 4.183 4.183 0 0 1-.962-1.352 4.07 4.07 0 0 1-.351-1.69c0-.641.139-1.222.416-1.742.277-.52.672-.97 1.183-1.352.511-.381 1.118-.676 1.82-.884a8.17 8.17 0 0 1 2.327-.312c.641 0 1.274.056 1.898.169a9.558 9.558 0 0 1 1.69.455v-.936c0-1.005-.286-1.79-.858-2.353-.572-.563-1.395-.845-2.47-.845-.728 0-1.443.134-2.145.403s-1.426.654-2.171 1.157l-.884-1.82c1.75-1.179 3.57-1.768 5.46-1.768 1.872 0 3.328.477 4.368 1.43 1.04.953 1.56 2.323 1.56 4.108v4.914c0 .607.251.919.754.936V35a7.49 7.49 0 0 1-.715.104c-.2.017-.394.026-.585.026-.555 0-.984-.139-1.287-.416a1.779 1.779 0 0 1-.559-1.066l-.078-.858a6.064 6.064 0 0 1-2.249 1.833 6.602 6.602 0 0 1-2.873.637zm.78-2.106a5.14 5.14 0 0 0 1.963-.377c.615-.251 1.096-.602 1.443-1.053.364-.312.546-.641.546-.988v-1.794a8.645 8.645 0 0 0-1.547-.442 8.536 8.536 0 0 0-1.599-.156c-1.023 0-1.859.221-2.509.663-.65.442-.975 1.027-.975 1.755 0 .676.251 1.244.754 1.703.503.46 1.144.689 1.924.689zm27.976-12.272a3.994 3.994 0 0 0-.754-.611 7.543 7.543 0 0 0-1.157-.611 8.436 8.436 0 0 0-1.456-.468 7.241 7.241 0 0 0-1.625-.182c-1.23 0-2.136.225-2.717.676-.58.45-.871 1.075-.871 1.872 0 .45.091.819.273 1.105.182.286.464.537.845.754.381.217.858.407 1.43.572.572.165 1.24.342 2.002.533.936.225 1.781.477 2.535.754.754.277 1.391.615 1.911 1.014s.923.888 1.209 1.469c.286.58.429 1.287.429 2.119 0 .936-.178 1.742-.533 2.418a4.539 4.539 0 0 1-1.456 1.651c-.615.425-1.33.737-2.145.936-.815.2-1.69.299-2.626.299a13.1 13.1 0 0 1-4.069-.637 11.665 11.665 0 0 1-3.549-1.859l1.326-2.496c.225.225.55.477.975.754a9.08 9.08 0 0 0 1.482.767c.563.234 1.174.433 1.833.598a8.438 8.438 0 0 0 2.054.247c1.144 0 2.028-.2 2.652-.598.624-.399.936-.988.936-1.768 0-.468-.117-.858-.351-1.17-.234-.312-.568-.585-1.001-.819a8.728 8.728 0 0 0-1.586-.637 54.08 54.08 0 0 0-2.132-.598 22.084 22.084 0 0 1-2.405-.767c-.685-.269-1.252-.594-1.703-.975a3.828 3.828 0 0 1-1.027-1.339c-.234-.511-.351-1.131-.351-1.859 0-.901.173-1.703.52-2.405a5.14 5.14 0 0 1 1.417-1.768c.598-.477 1.304-.836 2.119-1.079a9.253 9.253 0 0 1 2.652-.364c1.248 0 2.4.2 3.458.598 1.057.399 1.985.893 2.782 1.482l-1.326 2.392zm10.712 14.378c-1.075 0-2.041-.19-2.899-.572a6.768 6.768 0 0 1-2.197-1.534 6.76 6.76 0 0 1-1.404-2.249 7.445 7.445 0 0 1-.494-2.691c0-.936.165-1.833.494-2.691a6.655 6.655 0 0 1 1.417-2.249 6.919 6.919 0 0 1 2.21-1.534c.858-.381 1.816-.572 2.873-.572 1.057 0 2.015.19 2.873.572a6.919 6.919 0 0 1 2.21 1.534 6.655 6.655 0 0 1 1.417 2.249c.33.858.494 1.755.494 2.691 0 .936-.165 1.833-.494 2.691a6.655 6.655 0 0 1-1.417 2.249 6.919 6.919 0 0 1-2.21 1.534c-.858.381-1.816.572-2.873.572zm-4.056-7.02c0 .659.104 1.265.312 1.82.208.555.494 1.036.858 1.443.364.407.793.728 1.287.962a3.688 3.688 0 0 0 1.599.351c.572 0 1.105-.117 1.599-.351a3.929 3.929 0 0 0 1.287-.975c.364-.416.65-.901.858-1.456a5.144 5.144 0 0 0 .312-1.82c0-.641-.104-1.244-.312-1.807a4.653 4.653 0 0 0-.858-1.469 3.929 3.929 0 0 0-1.287-.975 3.688 3.688 0 0 0-1.599-.351c-.555 0-1.079.121-1.573.364a4.09 4.09 0 0 0-1.287.988 4.99 4.99 0 0 0-1.196 3.276zm13.624-12.22h2.86v15.054c0 .503.13.897.39 1.183.26.286.624.429 1.092.429.19 0 .412-.035.663-.104.251-.07.49-.147.715-.234l.416 2.236c-.416.19-.91.342-1.482.455a8.028 8.028 0 0 1-1.534.169c-.988 0-1.755-.269-2.301-.806-.546-.537-.819-1.3-.819-2.288V16.02zm11.986 19.24c-1.421 0-2.496-.464-3.224-1.391-.728-.927-1.092-2.31-1.092-4.147v-8.32h2.86v7.748c0 2.444.867 3.666 2.6 3.666.815 0 1.586-.251 2.314-.754s1.291-1.23 1.69-2.184v-8.476h2.86V31.62c0 .33.056.563.169.702.113.139.316.217.611.234V35a9.085 9.085 0 0 1-.728.104 6.04 6.04 0 0 1-.546.026c-.52 0-.962-.143-1.326-.429a1.417 1.417 0 0 1-.572-1.105l-.052-1.352c-.607.988-1.395 1.738-2.366 2.249-.97.511-2.037.767-3.198.767zm19.214-.962c-.364.173-.867.368-1.508.585a6.375 6.375 0 0 1-2.054.325c-.45 0-.875-.06-1.274-.182a3.12 3.12 0 0 1-1.053-.546 2.48 2.48 0 0 1-.715-.949c-.173-.39-.26-.862-.26-1.417v-8.502h-1.794v-2.21h1.794V16.93h2.86v4.472h2.964v2.21h-2.964v7.592c.035.485.186.836.455 1.053.269.217.602.325 1.001.325.399 0 .78-.07 1.144-.208.364-.139.633-.251.806-.338l.598 2.262zm1.976.702V21.402h2.86V35h-2.86zm0-15.834V16.02h2.86v3.146h-2.86zm12.402 16.094c-1.075 0-2.041-.19-2.899-.572a6.768 6.768 0 0 1-2.197-1.534 6.76 6.76 0 0 1-1.404-2.249 7.445 7.445 0 0 1-.494-2.691c0-.936.165-1.833.494-2.691a6.655 6.655 0 0 1 1.417-2.249 6.919 6.919 0 0 1 2.21-1.534c.858-.381 1.816-.572 2.873-.572 1.057 0 2.015.19 2.873.572a6.919 6.919 0 0 1 2.21 1.534 6.655 6.655 0 0 1 1.417 2.249c.33.858.494 1.755.494 2.691 0 .936-.165 1.833-.494 2.691a6.655 6.655 0 0 1-1.417 2.249 6.919 6.919 0 0 1-2.21 1.534c-.858.381-1.816.572-2.873.572zm-4.056-7.02c0 .659.104 1.265.312 1.82.208.555.494 1.036.858 1.443.364.407.793.728 1.287.962a3.688 3.688 0 0 0 1.599.351c.572 0 1.105-.117 1.599-.351a3.929 3.929 0 0 0 1.287-.975c.364-.416.65-.901.858-1.456a5.144 5.144 0 0 0 .312-1.82c0-.641-.104-1.244-.312-1.807a4.653 4.653 0 0 0-.858-1.469 3.929 3.929 0 0 0-1.287-.975 3.688 3.688 0 0 0-1.599-.351c-.555 0-1.079.121-1.573.364a4.09 4.09 0 0 0-1.287.988 4.99 4.99 0 0 0-1.196 3.276zM272.288 35h-2.86v-7.618c0-1.283-.204-2.214-.611-2.795-.407-.58-1.01-.871-1.807-.871-.416 0-.832.078-1.248.234a4.37 4.37 0 0 0-1.17.663 5.164 5.164 0 0 0-.975 1.014c-.286.39-.507.819-.663 1.287V35h-2.86V21.402h2.6v2.73c.52-.919 1.274-1.642 2.262-2.171.988-.529 2.08-.793 3.276-.793.815 0 1.482.147 2.002.442.52.295.932.698 1.235 1.209.303.511.516 1.1.637 1.768.121.667.182 1.374.182 2.119V35zm8.268.26c-1.092 0-2.18-.178-3.263-.533-1.083-.355-2.015-.862-2.795-1.521l1.144-1.82c.815.59 1.62 1.036 2.418 1.339a6.821 6.821 0 0 0 2.444.455c.85 0 1.521-.165 2.015-.494.494-.33.741-.797.741-1.404 0-.572-.277-.988-.832-1.248-.555-.26-1.421-.546-2.6-.858a32.708 32.708 0 0 1-2.184-.65c-.607-.208-1.1-.45-1.482-.728-.381-.277-.659-.598-.832-.962-.173-.364-.26-.806-.26-1.326 0-.693.134-1.309.403-1.846a3.962 3.962 0 0 1 1.118-1.365 5.009 5.009 0 0 1 1.677-.845 7.269 7.269 0 0 1 2.08-.286c1.023 0 1.976.156 2.86.468a7.443 7.443 0 0 1 2.366 1.352l-1.222 1.716c-1.265-1.005-2.609-1.508-4.03-1.508-.728 0-1.339.152-1.833.455-.494.303-.741.784-.741 1.443 0 .277.052.511.156.702.104.19.273.355.507.494.234.139.537.264.91.377.373.113.836.238 1.391.377.919.225 1.712.45 2.379.676.667.225 1.218.49 1.651.793.433.303.754.659.962 1.066.208.407.312.897.312 1.469 0 1.3-.49 2.327-1.469 3.081-.98.754-2.31 1.131-3.991 1.131z" fill="#FFF" fill-rule="evenodd"/></svg>