<svg width="287" height="50" viewBox="0 0 287 50" xmlns="http://www.w3.org/2000/svg"><path d="M75 20.882a3.994 3.994 0 0 0-.754-.611 7.543 7.543 0 0 0-1.157-.611 8.436 8.436 0 0 0-1.456-.468 7.241 7.241 0 0 0-1.625-.182c-1.23 0-2.136.225-2.717.676-.58.45-.871 1.075-.871 1.872 0 .45.091.819.273 1.105.182.286.464.537.845.754.381.217.858.407 1.43.572.572.165 1.24.342 2.002.533.936.225 1.781.477 2.535.754.754.277 1.391.615 1.911 1.014s.923.888 1.209 1.469c.286.58.429 1.287.429 2.119 0 .936-.178 1.742-.533 2.418a4.539 4.539 0 0 1-1.456 1.651c-.615.425-1.33.737-2.145.936-.815.2-1.69.299-2.626.299a13.1 13.1 0 0 1-4.069-.637 11.665 11.665 0 0 1-3.549-1.859l1.326-2.496c.225.225.55.477.975.754a9.08 9.08 0 0 0 1.482.767c.563.234 1.174.433 1.833.598a8.438 8.438 0 0 0 2.054.247c1.144 0 2.028-.2 2.652-.598.624-.399.936-.988.936-1.768 0-.468-.117-.858-.351-1.17-.234-.312-.568-.585-1.001-.819a8.728 8.728 0 0 0-1.586-.637 54.08 54.08 0 0 0-2.132-.598 22.084 22.084 0 0 1-2.405-.767c-.685-.269-1.252-.594-1.703-.975a3.828 3.828 0 0 1-1.027-1.339c-.234-.511-.351-1.131-.351-1.859 0-.901.173-1.703.52-2.405a5.14 5.14 0 0 1 1.417-1.768c.598-.477 1.304-.836 2.119-1.079a9.253 9.253 0 0 1 2.652-.364c1.248 0 2.4.2 3.458.598 1.057.399 1.985.893 2.782 1.482L75 20.882zm8.216 14.378c-.659 0-1.27-.108-1.833-.325a4.43 4.43 0 0 1-1.456-.897 4.183 4.183 0 0 1-.962-1.352 4.07 4.07 0 0 1-.351-1.69c0-.641.139-1.222.416-1.742.277-.52.672-.97 1.183-1.352.511-.381 1.118-.676 1.82-.884a8.17 8.17 0 0 1 2.327-.312c.641 0 1.274.056 1.898.169a9.558 9.558 0 0 1 1.69.455v-.936c0-1.005-.286-1.79-.858-2.353-.572-.563-1.395-.845-2.47-.845-.728 0-1.443.134-2.145.403s-1.426.654-2.171 1.157l-.884-1.82c1.75-1.179 3.57-1.768 5.46-1.768 1.872 0 3.328.477 4.368 1.43 1.04.953 1.56 2.323 1.56 4.108v4.914c0 .607.251.919.754.936V35a7.49 7.49 0 0 1-.715.104c-.2.017-.394.026-.585.026-.555 0-.984-.139-1.287-.416a1.779 1.779 0 0 1-.559-1.066l-.078-.858a6.064 6.064 0 0 1-2.249 1.833 6.602 6.602 0 0 1-2.873.637zm.78-2.106a5.14 5.14 0 0 0 1.963-.377c.615-.251 1.096-.602 1.443-1.053.364-.312.546-.641.546-.988v-1.794a8.645 8.645 0 0 0-1.547-.442 8.536 8.536 0 0 0-1.599-.156c-1.023 0-1.859.221-2.509.663-.65.442-.975 1.027-.975 1.755 0 .676.251 1.244.754 1.703.503.46 1.144.689 1.924.689zm27.222-11.752h2.73L108.228 35h-2.366l-2.522-6.318L100.818 35h-2.366l-5.746-13.598h2.73l4.394 10.842 1.976-5.044-2.366-5.772h2.34l1.56 4.264 1.534-4.264h2.34l-2.34 5.772 1.976 5.044 4.368-10.842zM115.846 35V21.402h2.86V35h-2.86zm0-15.834V16.02h2.86v3.146h-2.86zm9.906 16.094c-.659 0-1.27-.108-1.833-.325a4.43 4.43 0 0 1-1.456-.897 4.183 4.183 0 0 1-.962-1.352 4.07 4.07 0 0 1-.351-1.69c0-.641.139-1.222.416-1.742.277-.52.672-.97 1.183-1.352.511-.381 1.118-.676 1.82-.884a8.17 8.17 0 0 1 2.327-.312c.641 0 1.274.056 1.898.169a9.558 9.558 0 0 1 1.69.455v-.936c0-1.005-.286-1.79-.858-2.353-.572-.563-1.395-.845-2.47-.845-.728 0-1.443.134-2.145.403s-1.426.654-2.171 1.157l-.884-1.82c1.75-1.179 3.57-1.768 5.46-1.768 1.872 0 3.328.477 4.368 1.43 1.04.953 1.56 2.323 1.56 4.108v4.914c0 .607.251.919.754.936V35a7.49 7.49 0 0 1-.715.104c-.2.017-.394.026-.585.026-.555 0-.984-.139-1.287-.416a1.779 1.779 0 0 1-.559-1.066l-.078-.858a6.064 6.064 0 0 1-2.249 1.833 6.602 6.602 0 0 1-2.873.637zm.78-2.106a5.14 5.14 0 0 0 1.963-.377c.615-.251 1.096-.602 1.443-1.053.364-.312.546-.641.546-.988v-1.794a8.645 8.645 0 0 0-1.547-.442 8.536 8.536 0 0 0-1.599-.156c-1.023 0-1.859.221-2.509.663-.65.442-.975 1.027-.975 1.755 0 .676.251 1.244.754 1.703.503.46 1.144.689 1.924.689zM148.996 35h-2.86v-7.618c0-1.283-.204-2.214-.611-2.795-.407-.58-1.01-.871-1.807-.871-.416 0-.832.078-1.248.234a4.37 4.37 0 0 0-1.17.663 5.164 5.164 0 0 0-.975 1.014c-.286.39-.507.819-.663 1.287V35h-2.86V21.402h2.6v2.73c.52-.919 1.274-1.642 2.262-2.171.988-.529 2.08-.793 3.276-.793.815 0 1.482.147 2.002.442.52.295.932.698 1.235 1.209.303.511.516 1.1.637 1.768.121.667.182 1.374.182 2.119V35zm6.942.26c-.659 0-1.27-.108-1.833-.325a4.43 4.43 0 0 1-1.456-.897 4.183 4.183 0 0 1-.962-1.352 4.07 4.07 0 0 1-.351-1.69c0-.641.139-1.222.416-1.742.277-.52.672-.97 1.183-1.352.511-.381 1.118-.676 1.82-.884a8.17 8.17 0 0 1 2.327-.312c.641 0 1.274.056 1.898.169a9.558 9.558 0 0 1 1.69.455v-.936c0-1.005-.286-1.79-.858-2.353-.572-.563-1.395-.845-2.47-.845-.728 0-1.443.134-2.145.403s-1.426.654-2.171 1.157l-.884-1.82c1.75-1.179 3.57-1.768 5.46-1.768 1.872 0 3.328.477 4.368 1.43 1.04.953 1.56 2.323 1.56 4.108v4.914c0 .607.251.919.754.936V35a7.49 7.49 0 0 1-.715.104c-.2.017-.394.026-.585.026-.555 0-.984-.139-1.287-.416a1.779 1.779 0 0 1-.559-1.066l-.078-.858a6.064 6.064 0 0 1-2.249 1.833 6.602 6.602 0 0 1-2.873.637zm.78-2.106a5.14 5.14 0 0 0 1.963-.377c.615-.251 1.096-.602 1.443-1.053.364-.312.546-.641.546-.988v-1.794a8.645 8.645 0 0 0-1.547-.442 8.536 8.536 0 0 0-1.599-.156c-1.023 0-1.859.221-2.509.663-.65.442-.975 1.027-.975 1.755 0 .676.251 1.244.754 1.703.503.46 1.144.689 1.924.689zm27.976-12.272a3.994 3.994 0 0 0-.754-.611 7.543 7.543 0 0 0-1.157-.611 8.436 8.436 0 0 0-1.456-.468 7.241 7.241 0 0 0-1.625-.182c-1.23 0-2.136.225-2.717.676-.58.45-.871 1.075-.871 1.872 0 .45.091.819.273 1.105.182.286.464.537.845.754.381.217.858.407 1.43.572.572.165 1.24.342 2.002.533.936.225 1.781.477 2.535.754.754.277 1.391.615 1.911 1.014s.923.888 1.209 1.469c.286.58.429 1.287.429 2.119 0 .936-.178 1.742-.533 2.418a4.539 4.539 0 0 1-1.456 1.651c-.615.425-1.33.737-2.145.936-.815.2-1.69.299-2.626.299a13.1 13.1 0 0 1-4.069-.637 11.665 11.665 0 0 1-3.549-1.859l1.326-2.496c.225.225.55.477.975.754a9.08 9.08 0 0 0 1.482.767c.563.234 1.174.433 1.833.598a8.438 8.438 0 0 0 2.054.247c1.144 0 2.028-.2 2.652-.598.624-.399.936-.988.936-1.768 0-.468-.117-.858-.351-1.17-.234-.312-.568-.585-1.001-.819a8.728 8.728 0 0 0-1.586-.637 54.08 54.08 0 0 0-2.132-.598 22.084 22.084 0 0 1-2.405-.767c-.685-.269-1.252-.594-1.703-.975a3.828 3.828 0 0 1-1.027-1.339c-.234-.511-.351-1.131-.351-1.859 0-.901.173-1.703.52-2.405a5.14 5.14 0 0 1 1.417-1.768c.598-.477 1.304-.836 2.119-1.079a9.253 9.253 0 0 1 2.652-.364c1.248 0 2.4.2 3.458.598 1.057.399 1.985.893 2.782 1.482l-1.326 2.392zm10.712 14.378c-1.075 0-2.041-.19-2.899-.572a6.768 6.768 0 0 1-2.197-1.534 6.76 6.76 0 0 1-1.404-2.249 7.445 7.445 0 0 1-.494-2.691c0-.936.165-1.833.494-2.691a6.655 6.655 0 0 1 1.417-2.249 6.919 6.919 0 0 1 2.21-1.534c.858-.381 1.816-.572 2.873-.572 1.057 0 2.015.19 2.873.572a6.919 6.919 0 0 1 2.21 1.534 6.655 6.655 0 0 1 1.417 2.249c.33.858.494 1.755.494 2.691 0 .936-.165 1.833-.494 2.691a6.655 6.655 0 0 1-1.417 2.249 6.919 6.919 0 0 1-2.21 1.534c-.858.381-1.816.572-2.873.572zm-4.056-7.02c0 .659.104 1.265.312 1.82.208.555.494 1.036.858 1.443.364.407.793.728 1.287.962a3.688 3.688 0 0 0 1.599.351c.572 0 1.105-.117 1.599-.351a3.929 3.929 0 0 0 1.287-.975c.364-.416.65-.901.858-1.456a5.144 5.144 0 0 0 .312-1.82c0-.641-.104-1.244-.312-1.807a4.653 4.653 0 0 0-.858-1.469 3.929 3.929 0 0 0-1.287-.975 3.688 3.688 0 0 0-1.599-.351c-.555 0-1.079.121-1.573.364a4.09 4.09 0 0 0-1.287.988 4.99 4.99 0 0 0-1.196 3.276zm13.624-12.22h2.86v15.054c0 .503.13.897.39 1.183.26.286.624.429 1.092.429.19 0 .412-.035.663-.104.251-.07.49-.147.715-.234l.416 2.236c-.416.19-.91.342-1.482.455a8.028 8.028 0 0 1-1.534.169c-.988 0-1.755-.269-2.301-.806-.546-.537-.819-1.3-.819-2.288V16.02zm11.986 19.24c-1.421 0-2.496-.464-3.224-1.391-.728-.927-1.092-2.31-1.092-4.147v-8.32h2.86v7.748c0 2.444.867 3.666 2.6 3.666.815 0 1.586-.251 2.314-.754s1.291-1.23 1.69-2.184v-8.476h2.86V31.62c0 .33.056.563.169.702.113.139.316.217.611.234V35a9.085 9.085 0 0 1-.728.104 6.04 6.04 0 0 1-.546.026c-.52 0-.962-.143-1.326-.429a1.417 1.417 0 0 1-.572-1.105l-.052-1.352c-.607.988-1.395 1.738-2.366 2.249-.97.511-2.037.767-3.198.767zm19.214-.962c-.364.173-.867.368-1.508.585a6.375 6.375 0 0 1-2.054.325c-.45 0-.875-.06-1.274-.182a3.12 3.12 0 0 1-1.053-.546 2.48 2.48 0 0 1-.715-.949c-.173-.39-.26-.862-.26-1.417v-8.502h-1.794v-2.21h1.794V16.93h2.86v4.472h2.964v2.21h-2.964v7.592c.035.485.186.836.455 1.053.269.217.602.325 1.001.325.399 0 .78-.07 1.144-.208.364-.139.633-.251.806-.338l.598 2.262zm1.976.702V21.402h2.86V35h-2.86zm0-15.834V16.02h2.86v3.146h-2.86zm12.402 16.094c-1.075 0-2.041-.19-2.899-.572a6.768 6.768 0 0 1-2.197-1.534 6.76 6.76 0 0 1-1.404-2.249 7.445 7.445 0 0 1-.494-2.691c0-.936.165-1.833.494-2.691a6.655 6.655 0 0 1 1.417-2.249 6.919 6.919 0 0 1 2.21-1.534c.858-.381 1.816-.572 2.873-.572 1.057 0 2.015.19 2.873.572a6.919 6.919 0 0 1 2.21 1.534 6.655 6.655 0 0 1 1.417 2.249c.33.858.494 1.755.494 2.691 0 .936-.165 1.833-.494 2.691a6.655 6.655 0 0 1-1.417 2.249 6.919 6.919 0 0 1-2.21 1.534c-.858.381-1.816.572-2.873.572zm-4.056-7.02c0 .659.104 1.265.312 1.82.208.555.494 1.036.858 1.443.364.407.793.728 1.287.962a3.688 3.688 0 0 0 1.599.351c.572 0 1.105-.117 1.599-.351a3.929 3.929 0 0 0 1.287-.975c.364-.416.65-.901.858-1.456a5.144 5.144 0 0 0 .312-1.82c0-.641-.104-1.244-.312-1.807a4.653 4.653 0 0 0-.858-1.469 3.929 3.929 0 0 0-1.287-.975 3.688 3.688 0 0 0-1.599-.351c-.555 0-1.079.121-1.573.364a4.09 4.09 0 0 0-1.287.988 4.99 4.99 0 0 0-1.196 3.276zM272.288 35h-2.86v-7.618c0-1.283-.204-2.214-.611-2.795-.407-.58-1.01-.871-1.807-.871-.416 0-.832.078-1.248.234a4.37 4.37 0 0 0-1.17.663 5.164 5.164 0 0 0-.975 1.014c-.286.39-.507.819-.663 1.287V35h-2.86V21.402h2.6v2.73c.52-.919 1.274-1.642 2.262-2.171.988-.529 2.08-.793 3.276-.793.815 0 1.482.147 2.002.442.52.295.932.698 1.235 1.209.303.511.516 1.1.637 1.768.121.667.182 1.374.182 2.119V35zm8.268.26c-1.092 0-2.18-.178-3.263-.533-1.083-.355-2.015-.862-2.795-1.521l1.144-1.82c.815.59 1.62 1.036 2.418 1.339a6.821 6.821 0 0 0 2.444.455c.85 0 1.521-.165 2.015-.494.494-.33.741-.797.741-1.404 0-.572-.277-.988-.832-1.248-.555-.26-1.421-.546-2.6-.858a32.708 32.708 0 0 1-2.184-.65c-.607-.208-1.1-.45-1.482-.728-.381-.277-.659-.598-.832-.962-.173-.364-.26-.806-.26-1.326 0-.693.134-1.309.403-1.846a3.962 3.962 0 0 1 1.118-1.365 5.009 5.009 0 0 1 1.677-.845 7.269 7.269 0 0 1 2.08-.286c1.023 0 1.976.156 2.86.468a7.443 7.443 0 0 1 2.366 1.352l-1.222 1.716c-1.265-1.005-2.609-1.508-4.03-1.508-.728 0-1.339.152-1.833.455-.494.303-.741.784-.741 1.443 0 .277.052.511.156.702.104.19.273.355.507.494.234.139.537.264.91.377.373.113.836.238 1.391.377.919.225 1.712.45 2.379.676.667.225 1.218.49 1.651.793.433.303.754.659.962 1.066.208.407.312.897.312 1.469 0 1.3-.49 2.327-1.469 3.081-.98.754-2.31 1.131-3.991 1.131zM21.77 14.914c3.036 1.996 3.182 9.364 3.185 10.454V5.258s-6.468 7.498-3.186 9.656z" fill="#486474" fill-rule="evenodd"/><path d="M24.966 5.258v20.11c.004-1.09.15-8.458 3.186-10.454 3.283-2.158-3.186-9.656-3.186-9.656z" fill="#4EA9CF" fill-rule="evenodd"/><path d="M15.744 19.477c3.61-.415 8.442 5.15 9.146 5.984L12.004 10.02s-.163 9.903 3.74 9.458z" fill="#486474" fill-rule="evenodd"/><path d="M12.011 10.014l12.883 15.44c-.693-.838-5.303-6.59-4.249-10.07 1.138-3.757-8.634-5.37-8.634-5.37z" fill="#4EA9CF" fill-rule="evenodd"/><path d="M14.04 26.84c2.507-2.63 9.784-1.455 10.856-1.265L5.11 21.973s6.222 7.709 8.93 4.867z" fill="#486474" fill-rule="evenodd"/><path d="M5.111 21.964l19.787 3.604c-1.07-.201-8.295-1.665-9.713-5.01C13.65 16.942 5.11 21.963 5.11 21.963z" fill="#4EA9CF" fill-rule="evenodd"/><path d="M17.448 33.585c.24-3.627 6.581-7.385 7.527-7.927l-17.5 9.91s9.715 1.934 9.973-1.983z" fill="#486474" fill-rule="evenodd"/><path d="M7.47 35.561l17.5-9.91c-.951.533-7.434 4.037-10.668 2.377-3.493-1.79-6.833 7.533-6.833 7.533z" fill="#4EA9CF" fill-rule="evenodd"/><path d="M24.389 36.578c-2.14-2.937.321-9.885.699-10.906l-7.085 18.82s8.696-4.738 6.386-7.914z" fill="#486474" fill-rule="evenodd"/><path d="M17.994 44.488l7.088-18.82c-.391 1.017-3.124 7.865-6.67 8.661-3.83.86-.418 10.159-.418 10.159z" fill="#4EA9CF" fill-rule="evenodd"/><path d="M31.635 34.433c-3.524-.886-6.087-7.799-6.45-8.825L31.802 44.6s3.64-9.211-.167-10.167z" fill="#486474" fill-rule="evenodd"/><path d="M31.793 44.601l-6.616-18.99c.354 1.03 2.64 8.039.428 10.922-2.389 3.117 6.188 8.068 6.188 8.068z" fill="#4EA9CF" fill-rule="evenodd"/><path d="M35.823 28.143c-3.273 1.577-9.668-2.088-10.604-2.645l17.246 10.345s-3.104-9.408-6.642-7.7z" fill="#486474" fill-rule="evenodd"/><path d="M42.462 35.85L25.213 25.508c.931.565 7.177 4.481 7.328 8.11.16 3.925 9.92 2.234 9.92 2.234z" fill="#4EA9CF" fill-rule="evenodd"/><path d="M35.01 20.628c-1.502 3.309-8.763 4.594-9.837 4.766l19.869-3.108s-8.41-5.234-10.033-1.658z" fill="#486474" fill-rule="evenodd"/><path d="M45.046 22.293l-19.871 3.11c1.077-.164 8.38-1.16 10.822 1.532 2.637 2.91 9.049-4.642 9.049-4.642z" fill="#4EA9CF" fill-rule="evenodd"/><path d="M29.572 15.381c.965 3.5-3.785 9.139-4.5 9.961l13.264-15.117s-9.81 1.371-8.764 5.156z" fill="#486474" fill-rule="evenodd"/><path d="M38.343 10.23L25.078 25.347c.722-.815 5.695-6.258 9.291-5.756 3.889.544 3.974-9.36 3.974-9.36z" fill="#4EA9CF" fill-rule="evenodd"/><path d="M.208 25.061C.208 11.34 11.335.211 25.063.207 38.79.21 49.913 11.34 49.918 25.06c-.005 13.728-11.129 24.855-24.855 24.855C11.335 49.916.208 38.789.208 25.061zm1.712 0c.022 12.783 10.361 23.122 23.143 23.145 12.783-.023 23.12-10.362 23.139-23.145C48.183 12.28 37.846 1.94 25.063 1.923 12.281 1.94 1.942 12.28 1.92 25.061z" fill="#486474" fill-rule="evenodd"/></svg>