
<svg width="303px" height="50px" viewBox="0 0 303 50" version="1.1" xmlns="http://www.w3.org/2000/svg" xmlns:xlink="http://www.w3.org/1999/xlink">
    <!-- Generator: Sketch 40.3 (33839) - http://www.bohemiancoding.com/sketch -->
    <desc>Created with Sketch.</desc>
    <defs></defs>
    <path d="M75,20.882 C74.8266658,20.6913324 74.575335,20.4876677 74.246,20.271 C73.916665,20.0543322 73.5310022,19.8506676 73.089,19.66 C72.6469978,19.4693324 72.1616693,19.3133339 71.633,19.192 C71.1043307,19.0706661 70.5626694,19.01 70.008,19.01 C68.7773272,19.01 67.8716696,19.2353311 67.291,19.686 C66.7103304,20.1366689 66.42,20.7606627 66.42,21.558 C66.42,22.0086689 66.5109991,22.3769986 66.693,22.663 C66.8750009,22.9490014 67.1566648,23.2003322 67.538,23.417 C67.9193352,23.6336677 68.3959971,23.8243325 68.968,23.989 C69.5400029,24.1536675 70.2073295,24.3313324 70.97,24.522 C71.9060047,24.7473345 72.7509962,24.9986653 73.505,25.276 C74.2590038,25.5533347 74.8959974,25.8913313 75.416,26.29 C75.9360026,26.6886687 76.3389986,27.1783304 76.625,27.759 C76.9110014,28.3396696 77.054,29.0459958 77.054,29.878 C77.054,30.8140047 76.8763351,31.6199966 76.521,32.296 C76.1656649,32.9720034 75.6803364,33.5223312 75.065,33.947 C74.4496636,34.3716688 73.7346707,34.6836657 72.92,34.883 C72.1053293,35.0823343 71.2300047,35.182 70.294,35.182 C68.889993,35.182 67.5336732,34.9696688 66.225,34.545 C64.9163268,34.1203312 63.7333386,33.5006707 62.676,32.686 L64.002,30.19 C64.2273345,30.4153345 64.5523312,30.6666653 64.977,30.944 C65.4016688,31.2213347 65.8956639,31.4769988 66.459,31.711 C67.0223362,31.9450012 67.63333,32.1443325 68.292,32.309 C68.95067,32.4736675 69.6353298,32.556 70.346,32.556 C71.4900057,32.556 72.3739969,32.3566687 72.998,31.958 C73.6220031,31.5593313 73.934,30.9700039 73.934,30.19 C73.934,29.7219977 73.8170012,29.3320016 73.583,29.02 C73.3489988,28.7079984 73.0153355,28.4350012 72.582,28.201 C72.1486645,27.9669988 71.6200031,27.7546676 70.996,27.564 C70.3719969,27.3733324 69.6613373,27.174001 68.864,26.966 C67.9453287,26.7233321 67.1436701,26.467668 66.459,26.199 C65.7743299,25.930332 65.2066689,25.6053352 64.756,25.224 C64.3053311,24.8426648 63.9630012,24.3963359 63.729,23.885 C63.4949988,23.3736641 63.378,22.7540036 63.378,22.026 C63.378,21.1246622 63.5513316,20.3230035 63.898,19.621 C64.2446684,18.9189965 64.716997,18.329669 65.315,17.853 C65.913003,17.3763309 66.6193293,17.0166679 67.434,16.774 C68.2486707,16.5313321 69.1326619,16.41 70.086,16.41 C71.3340062,16.41 72.4866614,16.6093313 73.544,17.008 C74.6013386,17.4066687 75.5286627,17.9006637 76.326,18.49 L75,20.882 Z M83.216,35.26 C82.55733,35.26 81.9463362,35.1516677 81.383,34.935 C80.8196639,34.7183322 80.3343354,34.4193352 79.927,34.038 C79.5196646,33.6566648 79.1990012,33.2060026 78.965,32.686 C78.7309988,32.1659974 78.614,31.6026697 78.614,30.996 C78.614,30.3546635 78.7526653,29.7740026 79.03,29.254 C79.3073347,28.7339974 79.7016641,28.2833352 80.213,27.902 C80.7243359,27.5206648 81.3309965,27.226001 82.033,27.018 C82.7350035,26.809999 83.5106624,26.706 84.36,26.706 C85.0013365,26.706 85.6339969,26.7623328 86.258,26.875 C86.8820031,26.9876672 87.4453308,27.1393324 87.948,27.33 L87.948,26.394 C87.948,25.3886616 87.6620029,24.6043361 87.09,24.041 C86.5179971,23.4776638 85.694672,23.196 84.62,23.196 C83.8919964,23.196 83.1770035,23.330332 82.475,23.599 C81.7729965,23.867668 81.0493371,24.2533308 80.304,24.756 L79.42,22.936 C81.1706754,21.7573274 82.9906572,21.168 84.88,21.168 C86.7520094,21.168 88.2079948,21.6446619 89.248,22.598 C90.2880052,23.5513381 90.808,24.9206577 90.808,26.706 L90.808,31.62 C90.808,32.2266697 91.0593308,32.5386666 91.562,32.556 L91.562,35 C91.2846653,35.0520003 91.0463343,35.0866666 90.847,35.104 C90.6476657,35.1213334 90.4526676,35.13 90.262,35.13 C89.7073306,35.13 89.2783349,34.9913347 88.975,34.714 C88.6716652,34.4366653 88.4853337,34.0813355 88.416,33.648 L88.338,32.79 C87.7313303,33.5873373 86.9816711,34.1983312 86.089,34.623 C85.1963289,35.0476688 84.2386718,35.26 83.216,35.26 L83.216,35.26 Z M83.996,33.154 C84.6893368,33.154 85.3436636,33.0283346 85.959,32.777 C86.5743364,32.5256654 87.0553316,32.1746689 87.402,31.724 C87.7660018,31.4119984 87.948,31.0826684 87.948,30.736 L87.948,28.942 C87.4626642,28.7513324 86.9470027,28.6040005 86.401,28.5 C85.8549973,28.3959995 85.3220026,28.344 84.802,28.344 C83.7793282,28.344 82.9430033,28.5649978 82.293,29.007 C81.6429968,29.4490022 81.318,30.0339964 81.318,30.762 C81.318,31.4380034 81.5693308,32.0056644 82.072,32.465 C82.5746692,32.9243356 83.2159961,33.154 83.996,33.154 L83.996,33.154 Z M111.218,21.402 L113.948,21.402 L108.228,35 L105.862,35 L103.34,28.682 L100.818,35 L98.452,35 L92.706,21.402 L95.436,21.402 L99.83,32.244 L101.806,27.2 L99.44,21.428 L101.78,21.428 L103.34,25.692 L104.874,21.428 L107.214,21.428 L104.874,27.2 L106.85,32.244 L111.218,21.402 Z M115.846,35 L115.846,21.402 L118.706,21.402 L118.706,35 L115.846,35 Z M115.846,19.166 L115.846,16.02 L118.706,16.02 L118.706,19.166 L115.846,19.166 Z M125.752,35.26 C125.09333,35.26 124.482336,35.1516677 123.919,34.935 C123.355664,34.7183322 122.870335,34.4193352 122.463,34.038 C122.055665,33.6566648 121.735001,33.2060026 121.501,32.686 C121.266999,32.1659974 121.15,31.6026697 121.15,30.996 C121.15,30.3546635 121.288665,29.7740026 121.566,29.254 C121.843335,28.7339974 122.237664,28.2833352 122.749,27.902 C123.260336,27.5206648 123.866996,27.226001 124.569,27.018 C125.271004,26.809999 126.046662,26.706 126.896,26.706 C127.537337,26.706 128.169997,26.7623328 128.794,26.875 C129.418003,26.9876672 129.981331,27.1393324 130.484,27.33 L130.484,26.394 C130.484,25.3886616 130.198003,24.6043361 129.626,24.041 C129.053997,23.4776638 128.230672,23.196 127.156,23.196 C126.427996,23.196 125.713004,23.330332 125.011,23.599 C124.308996,23.867668 123.585337,24.2533308 122.84,24.756 L121.956,22.936 C123.706675,21.7573274 125.526657,21.168 127.416,21.168 C129.288009,21.168 130.743995,21.6446619 131.784,22.598 C132.824005,23.5513381 133.344,24.9206577 133.344,26.706 L133.344,31.62 C133.344,32.2266697 133.595331,32.5386666 134.098,32.556 L134.098,35 C133.820665,35.0520003 133.582334,35.0866666 133.383,35.104 C133.183666,35.1213334 132.988668,35.13 132.798,35.13 C132.243331,35.13 131.814335,34.9913347 131.511,34.714 C131.207665,34.4366653 131.021334,34.0813355 130.952,33.648 L130.874,32.79 C130.26733,33.5873373 129.517671,34.1983312 128.625,34.623 C127.732329,35.0476688 126.774672,35.26 125.752,35.26 L125.752,35.26 Z M126.532,33.154 C127.225337,33.154 127.879664,33.0283346 128.495,32.777 C129.110336,32.5256654 129.591332,32.1746689 129.938,31.724 C130.302002,31.4119984 130.484,31.0826684 130.484,30.736 L130.484,28.942 C129.998664,28.7513324 129.483003,28.6040005 128.937,28.5 C128.390997,28.3959995 127.858003,28.344 127.338,28.344 C126.315328,28.344 125.479003,28.5649978 124.829,29.007 C124.178997,29.4490022 123.854,30.0339964 123.854,30.762 C123.854,31.4380034 124.105331,32.0056644 124.608,32.465 C125.110669,32.9243356 125.751996,33.154 126.532,33.154 L126.532,33.154 Z M148.996,35 L146.136,35 L146.136,27.382 C146.136,26.0993269 145.932335,25.1676696 145.525,24.587 C145.117665,24.0063304 144.515337,23.716 143.718,23.716 C143.301998,23.716 142.886002,23.7939992 142.47,23.95 C142.053998,24.1060008 141.664002,24.3269986 141.3,24.613 C140.935998,24.8990014 140.611001,25.236998 140.325,25.627 C140.038999,26.0170019 139.818001,26.4459977 139.662,26.914 L139.662,35 L136.802,35 L136.802,21.402 L139.402,21.402 L139.402,24.132 C139.922003,23.2133287 140.675995,22.4896693 141.664,21.961 C142.652005,21.4323307 143.743994,21.168 144.94,21.168 C145.754671,21.168 146.421997,21.3153319 146.942,21.61 C147.462003,21.9046681 147.873665,22.3076641 148.177,22.819 C148.480335,23.3303359 148.692666,23.9196633 148.814,24.587 C148.935334,25.2543367 148.996,25.9606629 148.996,26.706 L148.996,35 Z M155.938,35.26 C155.27933,35.26 154.668336,35.1516677 154.105,34.935 C153.541664,34.7183322 153.056335,34.4193352 152.649,34.038 C152.241665,33.6566648 151.921001,33.2060026 151.687,32.686 C151.452999,32.1659974 151.336,31.6026697 151.336,30.996 C151.336,30.3546635 151.474665,29.7740026 151.752,29.254 C152.029335,28.7339974 152.423664,28.2833352 152.935,27.902 C153.446336,27.5206648 154.052996,27.226001 154.755,27.018 C155.457004,26.809999 156.232662,26.706 157.082,26.706 C157.723337,26.706 158.355997,26.7623328 158.98,26.875 C159.604003,26.9876672 160.167331,27.1393324 160.67,27.33 L160.67,26.394 C160.67,25.3886616 160.384003,24.6043361 159.812,24.041 C159.239997,23.4776638 158.416672,23.196 157.342,23.196 C156.613996,23.196 155.899004,23.330332 155.197,23.599 C154.494996,23.867668 153.771337,24.2533308 153.026,24.756 L152.142,22.936 C153.892675,21.7573274 155.712657,21.168 157.602,21.168 C159.474009,21.168 160.929995,21.6446619 161.97,22.598 C163.010005,23.5513381 163.53,24.9206577 163.53,26.706 L163.53,31.62 C163.53,32.2266697 163.781331,32.5386666 164.284,32.556 L164.284,35 C164.006665,35.0520003 163.768334,35.0866666 163.569,35.104 C163.369666,35.1213334 163.174668,35.13 162.984,35.13 C162.429331,35.13 162.000335,34.9913347 161.697,34.714 C161.393665,34.4366653 161.207334,34.0813355 161.138,33.648 L161.06,32.79 C160.45333,33.5873373 159.703671,34.1983312 158.811,34.623 C157.918329,35.0476688 156.960672,35.26 155.938,35.26 L155.938,35.26 Z M156.718,33.154 C157.411337,33.154 158.065664,33.0283346 158.681,32.777 C159.296336,32.5256654 159.777332,32.1746689 160.124,31.724 C160.488002,31.4119984 160.67,31.0826684 160.67,30.736 L160.67,28.942 C160.184664,28.7513324 159.669003,28.6040005 159.123,28.5 C158.576997,28.3959995 158.044003,28.344 157.524,28.344 C156.501328,28.344 155.665003,28.5649978 155.015,29.007 C154.364997,29.4490022 154.04,30.0339964 154.04,30.762 C154.04,31.4380034 154.291331,32.0056644 154.794,32.465 C155.296669,32.9243356 155.937996,33.154 156.718,33.154 L156.718,33.154 Z M184.694,20.882 C184.520666,20.6913324 184.269335,20.4876677 183.94,20.271 C183.610665,20.0543322 183.225002,19.8506676 182.783,19.66 C182.340998,19.4693324 181.855669,19.3133339 181.327,19.192 C180.798331,19.0706661 180.256669,19.01 179.702,19.01 C178.471327,19.01 177.56567,19.2353311 176.985,19.686 C176.40433,20.1366689 176.114,20.7606627 176.114,21.558 C176.114,22.0086689 176.204999,22.3769986 176.387,22.663 C176.569001,22.9490014 176.850665,23.2003322 177.232,23.417 C177.613335,23.6336677 178.089997,23.8243325 178.662,23.989 C179.234003,24.1536675 179.90133,24.3313324 180.664,24.522 C181.600005,24.7473345 182.444996,24.9986653 183.199,25.276 C183.953004,25.5533347 184.589997,25.8913313 185.11,26.29 C185.630003,26.6886687 186.032999,27.1783304 186.319,27.759 C186.605001,28.3396696 186.748,29.0459958 186.748,29.878 C186.748,30.8140047 186.570335,31.6199966 186.215,32.296 C185.859665,32.9720034 185.374336,33.5223312 184.759,33.947 C184.143664,34.3716688 183.428671,34.6836657 182.614,34.883 C181.799329,35.0823343 180.924005,35.182 179.988,35.182 C178.583993,35.182 177.227673,34.9696688 175.919,34.545 C174.610327,34.1203312 173.427339,33.5006707 172.37,32.686 L173.696,30.19 C173.921334,30.4153345 174.246331,30.6666653 174.671,30.944 C175.095669,31.2213347 175.589664,31.4769988 176.153,31.711 C176.716336,31.9450012 177.32733,32.1443325 177.986,32.309 C178.64467,32.4736675 179.32933,32.556 180.04,32.556 C181.184006,32.556 182.067997,32.3566687 182.692,31.958 C183.316003,31.5593313 183.628,30.9700039 183.628,30.19 C183.628,29.7219977 183.511001,29.3320016 183.277,29.02 C183.042999,28.7079984 182.709336,28.4350012 182.276,28.201 C181.842665,27.9669988 181.314003,27.7546676 180.69,27.564 C180.065997,27.3733324 179.355337,27.174001 178.558,26.966 C177.639329,26.7233321 176.83767,26.467668 176.153,26.199 C175.46833,25.930332 174.900669,25.6053352 174.45,25.224 C173.999331,24.8426648 173.657001,24.3963359 173.423,23.885 C173.188999,23.3736641 173.072,22.7540036 173.072,22.026 C173.072,21.1246622 173.245332,20.3230035 173.592,19.621 C173.938668,18.9189965 174.410997,18.329669 175.009,17.853 C175.607003,17.3763309 176.313329,17.0166679 177.128,16.774 C177.942671,16.5313321 178.826662,16.41 179.78,16.41 C181.028006,16.41 182.180661,16.6093313 183.238,17.008 C184.295339,17.4066687 185.222663,17.9006637 186.02,18.49 L184.694,20.882 Z M195.406,35.26 C194.331328,35.26 193.365004,35.0693352 192.507,34.688 C191.648996,34.3066648 190.91667,33.7953365 190.31,33.154 C189.70333,32.5126635 189.235335,31.7630043 188.906,30.905 C188.576665,30.0469957 188.412,29.1500047 188.412,28.214 C188.412,27.2779953 188.576665,26.3810043 188.906,25.523 C189.235335,24.6649957 189.707664,23.9153365 190.323,23.274 C190.938336,22.6326635 191.674996,22.1213352 192.533,21.74 C193.391004,21.3586648 194.348661,21.168 195.406,21.168 C196.463339,21.168 197.420996,21.3586648 198.279,21.74 C199.137004,22.1213352 199.873664,22.6326635 200.489,23.274 C201.104336,23.9153365 201.576665,24.6649957 201.906,25.523 C202.235335,26.3810043 202.4,27.2779953 202.4,28.214 C202.4,29.1500047 202.235335,30.0469957 201.906,30.905 C201.576665,31.7630043 201.104336,32.5126635 200.489,33.154 C199.873664,33.7953365 199.137004,34.3066648 198.279,34.688 C197.420996,35.0693352 196.463339,35.26 195.406,35.26 L195.406,35.26 Z M191.35,28.24 C191.35,28.89867 191.453999,29.5053306 191.662,30.06 C191.870001,30.6146694 192.155998,31.0956646 192.52,31.503 C192.884002,31.9103354 193.312998,32.2309988 193.807,32.465 C194.301002,32.6990012 194.833997,32.816 195.406,32.816 C195.978003,32.816 196.510998,32.6990012 197.005,32.465 C197.499002,32.2309988 197.927998,31.9060021 198.292,31.49 C198.656002,31.0739979 198.941999,30.5886694 199.15,30.034 C199.358001,29.4793306 199.462,28.87267 199.462,28.214 C199.462,27.5726635 199.358001,26.9703361 199.15,26.407 C198.941999,25.8436638 198.656002,25.3540021 198.292,24.938 C197.927998,24.5219979 197.499002,24.1970012 197.005,23.963 C196.510998,23.7289988 195.978003,23.612 195.406,23.612 C194.851331,23.612 194.327002,23.7333321 193.833,23.976 C193.338998,24.2186679 192.910002,24.5479979 192.546,24.964 C192.181998,25.3800021 191.891668,25.8696638 191.675,26.433 C191.458332,26.9963361 191.35,27.5986635 191.35,28.24 L191.35,28.24 Z M204.974,16.02 L207.834,16.02 L207.834,31.074 C207.834,31.5766692 207.963999,31.9709986 208.224,32.257 C208.484001,32.5430014 208.847998,32.686 209.316,32.686 C209.506668,32.686 209.727665,32.6513337 209.979,32.582 C210.230335,32.5126663 210.468666,32.4346671 210.694,32.348 L211.11,34.584 C210.693998,34.7746676 210.200003,34.9263328 209.628,35.039 C209.055997,35.1516672 208.544669,35.208 208.094,35.208 C207.105995,35.208 206.339003,34.939336 205.793,34.402 C205.246997,33.864664 204.974,33.1020049 204.974,32.114 L204.974,16.02 Z M216.96,35.26 C215.53866,35.26 214.464004,34.796338 213.736,33.869 C213.007996,32.941662 212.644,31.5593425 212.644,29.722 L212.644,21.402 L215.504,21.402 L215.504,29.15 C215.504,31.5940122 216.370658,32.816 218.104,32.816 C218.918671,32.816 219.689996,32.5646692 220.418,32.062 C221.146004,31.5593308 221.709331,30.8313381 222.108,29.878 L222.108,21.402 L224.968,21.402 L224.968,31.62 C224.968,31.949335 225.024333,32.1833326 225.137,32.322 C225.249667,32.4606674 225.453332,32.5386666 225.748,32.556 L225.748,35 C225.453332,35.0520003 225.210668,35.0866666 225.02,35.104 C224.829332,35.1213334 224.647334,35.13 224.474,35.13 C223.953997,35.13 223.512002,34.9870014 223.148,34.701 C222.783998,34.4149986 222.593333,34.0466689 222.576,33.596 L222.524,32.244 C221.91733,33.2320049 221.128672,33.9816641 220.158,34.493 C219.187328,35.0043359 218.121339,35.26 216.96,35.26 L216.96,35.26 Z M236.174,34.298 C235.809998,34.4713342 235.307337,34.6663322 234.666,34.883 C234.024663,35.0996677 233.340004,35.208 232.612,35.208 C232.161331,35.208 231.736669,35.1473339 231.338,35.026 C230.939331,34.9046661 230.588335,34.7226679 230.285,34.48 C229.981665,34.2373321 229.743334,33.9210019 229.57,33.531 C229.396666,33.140998 229.31,32.6686694 229.31,32.114 L229.31,23.612 L227.516,23.612 L227.516,21.402 L229.31,21.402 L229.31,16.93 L232.17,16.93 L232.17,21.402 L235.134,21.402 L235.134,23.612 L232.17,23.612 L232.17,31.204 C232.204667,31.6893358 232.356332,32.0403322 232.625,32.257 C232.893668,32.4736677 233.227331,32.582 233.626,32.582 C234.024669,32.582 234.405998,32.5126674 234.77,32.374 C235.134002,32.2353326 235.402666,32.1226671 235.576,32.036 L236.174,34.298 Z M238.15,35 L238.15,21.402 L241.01,21.402 L241.01,35 L238.15,35 Z M238.15,19.166 L238.15,16.02 L241.01,16.02 L241.01,19.166 L238.15,19.166 Z M250.552,35.26 C249.477328,35.26 248.511004,35.0693352 247.653,34.688 C246.794996,34.3066648 246.06267,33.7953365 245.456,33.154 C244.84933,32.5126635 244.381335,31.7630043 244.052,30.905 C243.722665,30.0469957 243.558,29.1500047 243.558,28.214 C243.558,27.2779953 243.722665,26.3810043 244.052,25.523 C244.381335,24.6649957 244.853664,23.9153365 245.469,23.274 C246.084336,22.6326635 246.820996,22.1213352 247.679,21.74 C248.537004,21.3586648 249.494661,21.168 250.552,21.168 C251.609339,21.168 252.566996,21.3586648 253.425,21.74 C254.283004,22.1213352 255.019664,22.6326635 255.635,23.274 C256.250336,23.9153365 256.722665,24.6649957 257.052,25.523 C257.381335,26.3810043 257.546,27.2779953 257.546,28.214 C257.546,29.1500047 257.381335,30.0469957 257.052,30.905 C256.722665,31.7630043 256.250336,32.5126635 255.635,33.154 C255.019664,33.7953365 254.283004,34.3066648 253.425,34.688 C252.566996,35.0693352 251.609339,35.26 250.552,35.26 L250.552,35.26 Z M246.496,28.24 C246.496,28.89867 246.599999,29.5053306 246.808,30.06 C247.016001,30.6146694 247.301998,31.0956646 247.666,31.503 C248.030002,31.9103354 248.458998,32.2309988 248.953,32.465 C249.447002,32.6990012 249.979997,32.816 250.552,32.816 C251.124003,32.816 251.656998,32.6990012 252.151,32.465 C252.645002,32.2309988 253.073998,31.9060021 253.438,31.49 C253.802002,31.0739979 254.087999,30.5886694 254.296,30.034 C254.504001,29.4793306 254.608,28.87267 254.608,28.214 C254.608,27.5726635 254.504001,26.9703361 254.296,26.407 C254.087999,25.8436638 253.802002,25.3540021 253.438,24.938 C253.073998,24.5219979 252.645002,24.1970012 252.151,23.963 C251.656998,23.7289988 251.124003,23.612 250.552,23.612 C249.997331,23.612 249.473002,23.7333321 248.979,23.976 C248.484998,24.2186679 248.056002,24.5479979 247.692,24.964 C247.327998,25.3800021 247.037668,25.8696638 246.821,26.433 C246.604332,26.9963361 246.496,27.5986635 246.496,28.24 L246.496,28.24 Z M272.288,35 L269.428,35 L269.428,27.382 C269.428,26.0993269 269.224335,25.1676696 268.817,24.587 C268.409665,24.0063304 267.807337,23.716 267.01,23.716 C266.593998,23.716 266.178002,23.7939992 265.762,23.95 C265.345998,24.1060008 264.956002,24.3269986 264.592,24.613 C264.227998,24.8990014 263.903001,25.236998 263.617,25.627 C263.330999,26.0170019 263.110001,26.4459977 262.954,26.914 L262.954,35 L260.094,35 L260.094,21.402 L262.694,21.402 L262.694,24.132 C263.214003,23.2133287 263.967995,22.4896693 264.956,21.961 C265.944005,21.4323307 267.035994,21.168 268.232,21.168 C269.046671,21.168 269.713997,21.3153319 270.234,21.61 C270.754003,21.9046681 271.165665,22.3076641 271.469,22.819 C271.772335,23.3303359 271.984666,23.9196633 272.106,24.587 C272.227334,25.2543367 272.288,25.9606629 272.288,26.706 L272.288,35 Z M280.556,35.26 C279.463995,35.26 278.376339,35.0823351 277.293,34.727 C276.209661,34.3716649 275.278004,33.86467 274.498,33.206 L275.642,31.386 C276.456671,31.9753363 277.262663,32.4216651 278.06,32.725 C278.857337,33.0283348 279.671996,33.18 280.504,33.18 C281.353338,33.18 282.024998,33.015335 282.519,32.686 C283.013002,32.356665 283.26,31.8886697 283.26,31.282 C283.26,30.7099971 282.982669,30.2940013 282.428,30.034 C281.873331,29.7739987 281.006673,29.4880016 279.828,29.176 C278.978662,28.9506655 278.25067,28.734001 277.644,28.526 C277.03733,28.317999 276.543335,28.0753347 276.162,27.798 C275.780665,27.5206653 275.503334,27.2000018 275.33,26.836 C275.156666,26.4719982 275.07,26.0300026 275.07,25.51 C275.07,24.8166632 275.204332,24.201336 275.473,23.664 C275.741668,23.126664 276.114331,22.6716685 276.591,22.299 C277.067669,21.9263315 277.626663,21.6446676 278.268,21.454 C278.909337,21.2633324 279.602663,21.168 280.348,21.168 C281.370672,21.168 282.323996,21.3239984 283.208,21.636 C284.092004,21.9480016 284.880663,22.3986637 285.574,22.988 L284.352,24.704 C283.08666,23.6986616 281.74334,23.196 280.322,23.196 C279.593996,23.196 278.983002,23.3476651 278.489,23.651 C277.994998,23.9543348 277.748,24.43533 277.748,25.094 C277.748,25.3713347 277.799999,25.6053324 277.904,25.796 C278.008001,25.9866676 278.176999,26.1513326 278.411,26.29 C278.645001,26.4286674 278.948331,26.5543328 279.321,26.667 C279.693669,26.7796672 280.157331,26.9053326 280.712,27.044 C281.630671,27.2693345 282.423663,27.4946655 283.091,27.72 C283.758337,27.9453345 284.308665,28.2096651 284.742,28.513 C285.175336,28.8163348 285.495999,29.1716646 285.704,29.579 C285.912001,29.9863354 286.016,30.4759971 286.016,31.048 C286.016,32.3480065 285.526338,33.3749962 284.547,34.129 C283.567662,34.8830038 282.237342,35.26 280.556,35.26 L280.556,35.26 Z" id="Sawiana-Solutions" stroke="none" fill="#486474" fill-rule="evenodd"></path>
    <path d="M294.01,16.89 L291.65,16.89 L291.65,23 L290.52,23 L290.52,16.89 L288.15,16.89 L288.15,15.9 L294.01,15.9 L294.01,16.89 Z M300.93,23 L300.93,17.89 L298.82,21.76 L298.2,21.76 L296.08,17.89 L296.08,23 L294.96,23 L294.96,15.9 L296.16,15.9 L298.51,20.24 L300.86,15.9 L302.06,15.9 L302.06,23 L300.93,23 Z" id="TM" stroke="none" fill="#486474" fill-rule="evenodd"></path>
    <g id="Group-3" stroke="none" stroke-width="1" fill="none" fill-rule="evenodd">
        <path d="M21.7693712,14.9142807 C24.8055903,16.9097885 24.9521938,24.2784454 24.9552143,25.3684907 L24.9552143,5.25752428 C24.9552143,5.25752428 18.486762,12.7562282 21.7693712,14.9142807 L21.7693712,14.9142807 Z" id="Fill-1" fill="#486474"></path>
        <path d="M24.9655062,5.25752428 L24.9655062,25.3684907 C24.9703165,24.2788929 25.1162488,16.9097885 28.1517967,14.9142807 C31.4346296,12.7562282 24.9655062,5.25752428 24.9655062,5.25752428 L24.9655062,5.25752428 Z" id="Fill-2" fill="#4EA9CF"></path>
        <path d="M15.7440295,19.4768317 C19.3537418,19.0619119 24.186343,24.6278103 24.8898832,25.4613414 L12.003655,10.0193688 C12.003655,10.0193688 11.8412781,19.9219 15.7440295,19.4768317 L15.7440295,19.4768317 Z" id="Fill-3" fill="#486474"></path>
        <path d="M12.0110383,10.0139432 L24.8940782,25.4543496 C24.2012215,24.6160082 19.5907909,18.8648558 20.645262,15.3844634 C21.7827395,11.6266374 12.0110383,10.0139432 12.0110383,10.0139432 L12.0110383,10.0139432 Z" id="Fill-4" fill="#4EA9CF"></path>
        <path d="M14.0402185,26.8396155 C16.5469647,24.2096463 23.8236658,25.3851031 24.8962596,25.5752234 L5.10954369,21.9728944 C5.10954369,21.9728944 11.3315499,29.6819668 14.0402185,26.8396155 L14.0402185,26.8396155 Z" id="Fill-5" fill="#486474"></path>
        <path d="M5.11105391,21.9643924 L24.8977699,25.5677842 C23.8273575,25.366533 16.6028989,23.9028474 15.1846878,20.5573122 C13.6499657,16.9431812 5.11105391,21.9643924 5.11105391,21.9643924 L5.11105391,21.9643924 Z" id="Fill-6" fill="#4EA9CF"></path>
        <path d="M17.4476168,33.5851657 C17.688805,29.9583935 24.0292799,26.1998963 24.9751268,25.6582297 L7.47578322,35.5673052 C7.47578322,35.5673052 17.189984,37.5022922 17.4476168,33.5851657 L17.4476168,33.5851657 Z" id="Fill-7" fill="#486474"></path>
        <path d="M7.46946265,35.5609846 L24.9703165,25.6519092 C24.0185405,26.1835076 17.5361047,29.6883433 14.3021583,28.0282168 C10.8091247,26.2372603 7.46946265,35.5609846 7.46946265,35.5609846 L7.46946265,35.5609846 Z" id="Fill-8" fill="#4EA9CF"></path>
        <path d="M24.3887129,36.5780918 C22.2498458,33.6410999 24.7103344,26.6925646 25.0878901,25.6715421 L18.0025958,44.4927781 C18.0032111,44.4921069 26.6994657,39.7538667 24.3887129,36.5780918 L24.3887129,36.5780918 Z" id="Fill-9" fill="#486474"></path>
        <path d="M17.9940378,44.4879678 L25.0815136,25.6678504 C24.6906456,26.6851253 21.9579253,33.5333706 18.4127052,34.3291462 C14.5825004,35.1897495 17.9940378,44.4879678 17.9940378,44.4879678 L17.9940378,44.4879678 Z" id="Fill-10" fill="#4EA9CF"></path>
        <path d="M31.6347621,34.4329041 C28.1113563,33.546683 25.5475572,26.634449 25.18488,25.6077771 L31.8021731,44.6002277 C31.8015019,44.5998362 35.4411389,35.389043 31.6347621,34.4329041 L31.6347621,34.4329041 Z" id="Fill-11" fill="#486474"></path>
        <path d="M31.792944,44.6013464 L25.1767696,25.610406 C25.5305532,26.6418882 27.8172544,33.6500493 25.6050576,36.532841 C23.2164444,39.6500528 31.792944,44.6013464 31.792944,44.6013464 L31.792944,44.6013464 Z" id="Fill-12" fill="#4EA9CF"></path>
        <path d="M35.8230575,28.1427141 C32.5498453,29.7202258 26.1552262,26.0550268 25.2189439,25.4980902 L42.4646261,35.8426132 C42.4646261,35.8426132 39.3608944,26.4354351 35.8230575,28.1427141 L35.8230575,28.1427141 Z" id="Fill-13" fill="#486474"></path>
        <path d="M42.4615497,35.8507237 L25.2130708,25.5065922 C26.1440393,26.0716392 32.3900973,29.9880945 32.5406721,33.6177194 C32.7017066,37.5416139 42.4615497,35.8507237 42.4615497,35.8507237 L42.4615497,35.8507237 Z" id="Fill-14" fill="#4EA9CF"></path>
        <path d="M35.0091593,20.6276774 C33.5079418,23.9365197 26.2467345,25.2216635 25.1730779,25.3940526 L45.0417374,22.2855665 C45.0417374,22.2855665 36.6314742,17.0524766 35.0091593,20.6276774 L35.0091593,20.6276774 Z" id="Fill-15" fill="#486474"></path>
        <path d="M45.0456528,22.2934532 L25.1748119,25.402163 C26.2515448,25.2387234 33.5553181,24.2432628 35.9965653,26.9348714 C38.6344212,29.8447912 45.0456528,22.2934532 45.0456528,22.2934532 L45.0456528,22.2934532 Z" id="Fill-16" fill="#4EA9CF"></path>
        <path d="M29.5721892,15.3812192 C30.5372776,18.8819158 25.7872352,24.5196895 25.0725642,25.3420897 L38.3357327,10.2249828 C38.3357327,10.2249828 28.526276,11.5962652 29.5721892,15.3812192 L29.5721892,15.3812192 Z" id="Fill-17" fill="#486474"></path>
        <path d="M38.3425008,10.2302406 L25.0782695,25.3466763 C25.7999322,24.5318832 30.7725927,19.08904 34.3689926,19.5906577 C38.2579842,20.1345058 38.3425008,10.2302406 38.3425008,10.2302406 L38.3425008,10.2302406 Z" id="Fill-18" fill="#4EA9CF"></path>
        <path d="M0.208311222,25.0613002 C0.208311222,11.3395273 11.3352416,0.210359534 25.063391,0.206667878 C38.7893589,0.210359534 49.9132689,11.3395273 49.9180233,25.0613002 C49.9132689,38.7894495 38.7893589,49.9159884 25.063391,49.9159884 C11.3352416,49.9159884 0.208311222,38.7894495 0.208311222,25.0613002 L0.208311222,25.0613002 Z M1.91995305,25.0613002 C1.94182331,37.8436026 12.2811445,48.1828678 25.063391,48.2058008 C37.8456375,48.1828678 48.1834484,37.8436026 48.2015711,25.0613002 C48.1834484,12.2790537 37.8456375,1.93973249 25.063391,1.92312004 C12.2811445,1.93973249 1.94182331,12.2790537 1.91995305,25.0613002 L1.91995305,25.0613002 Z" id="Fill-19" fill="#486474"></path>
    </g>
</svg>