
<svg width="303px" height="52px" viewBox="0 0 303 52" version="1.1" xmlns="http://www.w3.org/2000/svg" xmlns:xlink="http://www.w3.org/1999/xlink">
    <!-- Generator: Sketch 40.3 (33839) - http://www.bohemiancoding.com/sketch -->
    <desc>Created with Sketch.</desc>
    <defs>
        <polygon id="path-1" points="49.9841395 25.0619355 49.9841395 50.1075705 0 50.1075705 0 25.0619355 0 0.0163004605 49.9841395 0.0163004605"></polygon>
    </defs>
    <g id="full-logo" stroke="none" stroke-width="1" fill="none" fill-rule="evenodd">
        <g id="logo">
            <path d="M37.5616929,27.5412231 C36.9596682,27.5519886 36.455225,27.3374673 36.0652362,26.9062266 C35.0153487,25.7461997 32.9975197,25.1113159 30.0677672,25.0192736 C29.8206355,25.0115517 29.5757537,25.0080008 29.3341901,25.0080008 C28.6461136,25.0080008 27.9877897,25.0365773 27.3997132,25.0772721 L44.9085996,22.3319521 C44.2718166,23.0593856 40.2759786,27.4971465 37.5616929,27.5412231 L37.5616929,27.5412231 Z M42.7084871,35.8329269 C42.252694,35.9033255 40.7010067,36.1254559 38.9598369,36.1766344 C37.0660799,36.2324911 34.5548875,36.0927648 33.3467885,35.1113554 C32.8924578,34.7422841 32.6505568,34.2728286 32.6277222,33.7159525 C32.5627053,32.1447505 31.4094994,30.3533907 29.2001631,28.3914736 C28.4971822,27.7672426 27.7775534,27.2080557 27.1398144,26.7454202 L42.7084871,35.8329269 Z M31.8174859,44.6719812 C30.9803093,44.1699474 25.8380709,40.9885394 25.3044376,38.3073616 C25.1872272,37.718189 25.3053937,37.187184 25.6556749,36.7291704 C26.5978009,35.4988013 26.813324,33.2516261 26.2962261,30.0499835 C26.1387458,29.0748304 25.9336277,28.1554213 25.7462261,27.4095569 L31.8174859,44.6719812 Z M25.0268223,25.7142504 C25.0324223,25.7134504 25.0382223,25.7135504 25.0437223,25.7125504 C25.0447223,25.7158504 25.0454223,25.7180504 25.0466223,25.7217504 L25.0268223,25.7142504 Z M24.9014004,25.6986285 C24.9025004,25.6991285 24.9038004,25.6992285 24.9049004,25.6997285 L24.9037004,25.7028285 L24.9014004,25.6986285 Z M7.45933071,35.5823891 C7.7993757,34.6774091 9.97918448,29.1132143 12.5038189,28.1129229 C13.0644488,27.8907361 13.6103993,27.9126053 14.1267098,28.1779105 L14.1266535,28.1778542 C14.7850337,28.5166016 15.5575309,28.6563843 16.38509,28.6563279 C18.5110742,28.6562152 20.9975197,27.7332551 22.8277222,26.8882465 L7.45933071,35.5823891 Z M11.9819404,10.0766211 C12.6419516,10.1963946 14.128622,10.4954618 15.7013442,11.008374 C18.0460011,11.773064 19.609387,12.7054931 20.2224916,13.7048827 C20.5368335,14.2172312 20.6106805,14.7600162 20.4421204,15.3181323 C19.9866648,16.8246849 20.4868335,18.8971317 21.9289033,21.4778689 C22.3954949,22.3129575 22.8997694,23.0890894 23.3554499,23.742066 L11.9819404,10.0766211 Z M28.8656299,13.3940354 C28.7821091,13.9930153 28.5056749,14.4395871 28.0204668,14.7592835 C26.7025816,15.6274578 25.7585996,17.5457492 25.2147863,20.4606683 C25.0641114,21.268364 24.9624241,22.0598269 24.8939201,22.7697311 L24.8938639,5.36487497 C25.5716479,6.18153255 29.2353712,10.7397433 28.8656299,13.3940354 L28.8656299,13.3940354 Z M17.9754162,44.5070603 C17.6481946,43.563471 15.776766,37.9056556 17.0735602,35.5379742 C17.3612992,35.012662 17.7925141,34.6819746 18.3552812,34.5552684 C20.8759786,33.9883032 22.9813217,30.4614968 24.1752475,27.9815948 L17.9754162,44.5070603 Z M5.1258099,22.0346322 C5.98992688,21.5429693 11.1955512,18.6800741 13.7738976,19.5383846 C14.3435827,19.727993 14.7470697,20.094697 14.9731102,20.6282384 C15.537171,21.9616972 17.038802,23.148497 19.4362148,24.1556084 C20.4991507,24.6021238 21.5862148,24.9481422 22.5169798,25.2041474 L5.1258099,22.0346322 Z M38.222829,10.2831387 C38.1989258,11.2504008 37.9681046,17.2226709 35.9125928,18.9990942 C35.4560124,19.3936983 34.933009,19.5529829 34.3579809,19.4723824 C32.8047188,19.2553248 30.8395894,20.0713624 28.5179921,21.8980623 C27.7795219,22.4791185 27.103369,23.0866657 26.5364961,23.6308599 L38.222829,10.2831387 Z M45.1403768,22.2091914 C45.1255849,22.2000041 43.6398144,21.2773822 41.8187795,20.4750411 C39.3585433,19.3911619 37.4886333,19.0304889 36.260793,19.4032238 C35.6192857,19.5979614 35.1582621,19.9964546 34.8905456,20.5877127 C34.2713105,21.9554972 32.5879584,23.1376188 29.8872835,24.1012172 C27.8867773,24.8149542 25.9340776,25.1830673 25.2244601,25.3028971 C26.2267098,24.1963032 30.9435264,19.2226337 34.3268223,19.6956965 C34.9690045,19.7856534 35.5517942,19.6086705 36.0595557,19.1697643 C37.0312092,18.3299411 37.728847,16.5542505 38.1328965,13.8919547 C38.4320529,11.9213012 38.4502193,10.1700726 38.4503881,10.1526561 L38.4514567,10.0219481 L38.3222666,10.0400409 C38.3050562,10.0424646 36.5747413,10.2881551 34.6639426,10.8415366 C32.0824466,11.589092 30.4164173,12.5130665 29.7121429,13.5876456 C29.3440326,14.1493126 29.2449325,14.7515053 29.4175422,15.3774836 C30.3306468,18.6969269 25.9691732,24.0715134 25.0373397,25.1700472 C25.0652925,23.6141198 25.350613,16.8554032 28.1749663,14.9947158 C28.7240664,14.6329719 29.0501631,14.1075469 29.1441451,13.4330393 C29.3225478,12.1523371 28.676766,10.3502119 27.2247975,8.07671472 C26.1517379,6.39650473 25.0116929,5.06721684 25.0002756,5.05402767 L24.8938639,4.93030875 L24.787396,5.05402767 C24.7759786,5.06721684 23.6361024,6.39650473 22.563099,8.07671472 C21.1113555,10.3502119 20.4656299,12.1523371 20.6440889,13.4330393 C20.7380709,14.1075469 21.0641676,14.6329719 21.6132677,14.9947722 C24.4907705,16.8900671 24.7326715,23.8099282 24.7516817,25.2331748 C24.2469573,24.6057875 23.1028065,23.1174404 22.1251912,21.3677337 C20.7141676,18.842515 20.2203543,16.8291376 20.6574184,15.3834581 C20.8454949,14.7609181 20.7636052,14.1564708 20.4141676,13.5868002 C18.9402643,11.1843986 13.0774409,10.04083 11.9170922,9.83594699 L11.7600056,9.80759591 L11.7579809,9.94044579 C11.7537064,10.2270566 11.6781721,16.9829549 13.9199606,19.0185397 C14.4160236,19.4690006 14.9932452,19.6603563 15.6370022,19.5866322 C17.132784,19.4142712 19.0202981,20.2615344 21.2464511,22.1049744 C22.7319966,23.3351745 23.9599494,24.6829498 24.517261,25.3242027 L24.4220979,25.3080826 C22.5766535,24.9444222 16.4534252,23.5255156 15.1443138,20.5359142 C14.8844151,19.9433598 14.4299719,19.5400192 13.7936952,19.3371089 C10.9298594,18.4235617 5.12535996,21.883464 4.87963442,22.0312504 L4.76692351,22.0989999 L4.85111924,22.2001168 C5.03452756,22.4203309 9.376991,27.5944871 12.3844151,27.6748621 C12.4194544,27.6757639 12.4542126,27.6760457 12.4885771,27.6755948 C13.1108493,27.6677602 13.6370022,27.4362734 14.0538189,26.9867707 C16.2717042,24.5954729 22.5125366,25.2721223 24.369342,25.5360748 L24.7914454,25.6076007 C24.7962261,25.614928 24.8020191,25.6213535 24.8075872,25.6280608 C23.9169798,26.1264311 22.1742913,27.034511 20.2300281,27.688784 C17.5978571,28.5744874 15.5789033,28.6716025 14.2293532,27.9773111 L14.229297,27.9772548 C13.652919,27.6811185 13.0445951,27.6562056 12.4210292,27.9032489 C9.59054556,29.0248355 7.29791339,35.3610477 7.20168166,35.6302421 L7.15781215,35.7530028 L7.28542745,35.7787611 C7.4501631,35.8120159 9.80589989,36.2780332 12.2088245,36.2779205 C13.8872272,36.2778641 15.5890832,36.0503791 16.5817154,35.289071 C17.1132115,34.8814467 17.4042688,34.3463272 17.446676,33.6988179 C17.546676,32.1923216 18.7172047,30.4828024 20.9258099,28.6178313 C22.5305343,27.2627287 24.2057312,26.2406808 24.838802,25.871215 L24.6396457,26.4014872 C24.2351462,27.3668893 23.3891957,29.2356368 22.2687795,30.904574 C20.9362711,32.8893185 19.6029753,34.0435399 18.3059561,34.3353362 C17.6774409,34.4768661 17.1964511,34.8449792 16.8763723,35.4294736 C16.2757537,36.5260347 16.2331777,38.3684602 16.7499381,40.9054589 C17.1348088,42.7952301 17.6988695,44.4056051 17.8079809,44.7092378 L17.8527503,44.8337458 L17.9682733,44.76966 C18.1403768,44.6742358 19.6952137,43.8029615 21.2588245,42.6112017 C23.3114679,41.046707 24.4893082,39.6341695 24.7596119,38.4127622 C24.9039876,37.7601802 24.78464,37.1640748 24.4048313,36.6408481 C23.6229415,35.5649162 23.3802531,33.8181404 23.6832902,31.44905 C23.9385771,29.4535399 24.5317717,27.4912846 24.861243,26.5031678 L25.0916142,25.8900406 C25.4771597,27.1506208 27.4478571,34.0182325 25.4771035,36.5919241 C25.0857087,37.1038781 24.953369,37.6958689 25.0839089,38.351551 C25.3360461,39.6184439 26.5488695,41.1128783 28.6887458,42.7933137 C30.2727165,44.0371538 31.8043251,44.9262955 31.8196232,44.935201 L31.9345838,45.0016541 L31.9836277,44.8704952 C32.0955512,44.5745279 32.6747413,43.0045095 33.0893082,41.1537422 C33.6653487,38.5823614 33.658712,36.7059485 33.0697919,35.5765272 C32.7576997,34.9781673 32.2796907,34.5945541 31.6489258,34.4362277 C28.4795219,33.6408193 25.7445388,26.9117503 25.3035939,25.7760726 C25.9886333,26.2043824 27.557306,27.2338704 29.0510067,28.5602273 C31.2127615,30.4799278 32.3405456,32.2176854 32.4029753,33.7252526 C32.4285096,34.3496526 32.6984196,34.8749085 33.2051687,35.2865346 C34.2954949,36.172238 36.3264286,36.4183231 38.2484196,36.4183231 C40.5629303,36.4183231 42.719117,36.0611446 42.880703,36.0337517 L43.0118616,36.0115443 L42.9682733,35.8856272 C42.9456637,35.8203577 40.5742351,29.3026536 37.6382396,28.0812463 C36.9907705,27.8118829 36.3596682,27.8217466 35.7625366,28.1105556 C32.6217042,29.6275355 26.461243,26.1847114 25.3226603,25.5189402 C26.0873397,25.4109468 28.0075309,25.1801927 30.0607368,25.2446167 C32.9271035,25.3346864 34.8912767,25.9447136 35.8985883,27.0576766 C36.3244601,27.5285412 36.8702418,27.7670172 37.5215354,27.7670172 C37.5361024,27.7670172 37.5507818,27.7669044 37.5654049,27.766679 C38.8485321,27.7457679 40.5195669,26.8301916 42.5321091,25.0453701 C44.0217604,23.724255 45.1554499,22.3911907 45.1666985,22.3778888 L45.2511192,22.2782373 L45.1403768,22.2091914 Z" id="Fill-1" fill="#FFFFFF"></path>
            <g id="Group-5" transform="translate(0.000000, 0.040075)">
                <mask id="mask-2" fill="white">
                    <use xlink:href="#path-1"></use>
                </mask>
                <g id="Clip-4"></g>
                <path d="M24.9922947,48.3842533 C12.1394826,48.3611441 1.74308211,37.9424331 1.72109111,25.0619129 C1.74308211,12.1814491 12.1394826,1.76268175 24.9922947,1.74594165 C37.8451069,1.76268175 48.2399888,12.1814491 48.2582115,25.0619129 C48.2399888,37.9424331 37.8451069,48.3611441 24.9922947,48.3842533 M24.9922947,0.0163004605 C11.1883577,0.0200204826 0,11.2347035 0,25.0619129 C0,38.8955478 11.1883577,50.1075817 24.9922947,50.1075817 C38.7940382,50.1075817 49.9793588,38.8955478 49.9841395,25.0619129 C49.9793588,11.2347035 38.7940382,0.0200204826 24.9922947,0.0163004605" id="Fill-3" fill="#FFFFFF" mask="url(#mask-2)"></path>
            </g>
        </g>
        <path d="M294.01,16.89 L291.65,16.89 L291.65,23 L290.52,23 L290.52,16.89 L288.15,16.89 L288.15,15.9 L294.01,15.9 L294.01,16.89 Z M300.93,23 L300.93,17.89 L298.82,21.76 L298.2,21.76 L296.08,17.89 L296.08,23 L294.96,23 L294.96,15.9 L296.16,15.9 L298.51,20.24 L300.86,15.9 L302.06,15.9 L302.06,23 L300.93,23 Z" id="TM" fill="#FFFFFF"></path>
        <path d="M75,20.882 C74.8266658,20.6913324 74.575335,20.4876677 74.246,20.271 C73.916665,20.0543322 73.5310022,19.8506676 73.089,19.66 C72.6469978,19.4693324 72.1616693,19.3133339 71.633,19.192 C71.1043307,19.0706661 70.5626694,19.01 70.008,19.01 C68.7773272,19.01 67.8716696,19.2353311 67.291,19.686 C66.7103304,20.1366689 66.42,20.7606627 66.42,21.558 C66.42,22.0086689 66.5109991,22.3769986 66.693,22.663 C66.8750009,22.9490014 67.1566648,23.2003322 67.538,23.417 C67.9193352,23.6336677 68.3959971,23.8243325 68.968,23.989 C69.5400029,24.1536675 70.2073295,24.3313324 70.97,24.522 C71.9060047,24.7473345 72.7509962,24.9986653 73.505,25.276 C74.2590038,25.5533347 74.8959974,25.8913313 75.416,26.29 C75.9360026,26.6886687 76.3389986,27.1783304 76.625,27.759 C76.9110014,28.3396696 77.054,29.0459958 77.054,29.878 C77.054,30.8140047 76.8763351,31.6199966 76.521,32.296 C76.1656649,32.9720034 75.6803364,33.5223312 75.065,33.947 C74.4496636,34.3716688 73.7346707,34.6836657 72.92,34.883 C72.1053293,35.0823343 71.2300047,35.182 70.294,35.182 C68.889993,35.182 67.5336732,34.9696688 66.225,34.545 C64.9163268,34.1203312 63.7333386,33.5006707 62.676,32.686 L64.002,30.19 C64.2273345,30.4153345 64.5523312,30.6666653 64.977,30.944 C65.4016688,31.2213347 65.8956639,31.4769988 66.459,31.711 C67.0223362,31.9450012 67.63333,32.1443325 68.292,32.309 C68.95067,32.4736675 69.6353298,32.556 70.346,32.556 C71.4900057,32.556 72.3739969,32.3566687 72.998,31.958 C73.6220031,31.5593313 73.934,30.9700039 73.934,30.19 C73.934,29.7219977 73.8170012,29.3320016 73.583,29.02 C73.3489988,28.7079984 73.0153355,28.4350012 72.582,28.201 C72.1486645,27.9669988 71.6200031,27.7546676 70.996,27.564 C70.3719969,27.3733324 69.6613373,27.174001 68.864,26.966 C67.9453287,26.7233321 67.1436701,26.467668 66.459,26.199 C65.7743299,25.930332 65.2066689,25.6053352 64.756,25.224 C64.3053311,24.8426648 63.9630012,24.3963359 63.729,23.885 C63.4949988,23.3736641 63.378,22.7540036 63.378,22.026 C63.378,21.1246622 63.5513316,20.3230035 63.898,19.621 C64.2446684,18.9189965 64.716997,18.329669 65.315,17.853 C65.913003,17.3763309 66.6193293,17.0166679 67.434,16.774 C68.2486707,16.5313321 69.1326619,16.41 70.086,16.41 C71.3340062,16.41 72.4866614,16.6093313 73.544,17.008 C74.6013386,17.4066687 75.5286627,17.9006637 76.326,18.49 L75,20.882 Z M83.216,35.26 C82.55733,35.26 81.9463362,35.1516677 81.383,34.935 C80.8196639,34.7183322 80.3343354,34.4193352 79.927,34.038 C79.5196646,33.6566648 79.1990012,33.2060026 78.965,32.686 C78.7309988,32.1659974 78.614,31.6026697 78.614,30.996 C78.614,30.3546635 78.7526653,29.7740026 79.03,29.254 C79.3073347,28.7339974 79.7016641,28.2833352 80.213,27.902 C80.7243359,27.5206648 81.3309965,27.226001 82.033,27.018 C82.7350035,26.809999 83.5106624,26.706 84.36,26.706 C85.0013365,26.706 85.6339969,26.7623328 86.258,26.875 C86.8820031,26.9876672 87.4453308,27.1393324 87.948,27.33 L87.948,26.394 C87.948,25.3886616 87.6620029,24.6043361 87.09,24.041 C86.5179971,23.4776638 85.694672,23.196 84.62,23.196 C83.8919964,23.196 83.1770035,23.330332 82.475,23.599 C81.7729965,23.867668 81.0493371,24.2533308 80.304,24.756 L79.42,22.936 C81.1706754,21.7573274 82.9906572,21.168 84.88,21.168 C86.7520094,21.168 88.2079948,21.6446619 89.248,22.598 C90.2880052,23.5513381 90.808,24.9206577 90.808,26.706 L90.808,31.62 C90.808,32.2266697 91.0593308,32.5386666 91.562,32.556 L91.562,35 C91.2846653,35.0520003 91.0463343,35.0866666 90.847,35.104 C90.6476657,35.1213334 90.4526676,35.13 90.262,35.13 C89.7073306,35.13 89.2783349,34.9913347 88.975,34.714 C88.6716652,34.4366653 88.4853337,34.0813355 88.416,33.648 L88.338,32.79 C87.7313303,33.5873373 86.9816711,34.1983312 86.089,34.623 C85.1963289,35.0476688 84.2386718,35.26 83.216,35.26 L83.216,35.26 Z M83.996,33.154 C84.6893368,33.154 85.3436636,33.0283346 85.959,32.777 C86.5743364,32.5256654 87.0553316,32.1746689 87.402,31.724 C87.7660018,31.4119984 87.948,31.0826684 87.948,30.736 L87.948,28.942 C87.4626642,28.7513324 86.9470027,28.6040005 86.401,28.5 C85.8549973,28.3959995 85.3220026,28.344 84.802,28.344 C83.7793282,28.344 82.9430033,28.5649978 82.293,29.007 C81.6429968,29.4490022 81.318,30.0339964 81.318,30.762 C81.318,31.4380034 81.5693308,32.0056644 82.072,32.465 C82.5746692,32.9243356 83.2159961,33.154 83.996,33.154 L83.996,33.154 Z M111.218,21.402 L113.948,21.402 L108.228,35 L105.862,35 L103.34,28.682 L100.818,35 L98.452,35 L92.706,21.402 L95.436,21.402 L99.83,32.244 L101.806,27.2 L99.44,21.428 L101.78,21.428 L103.34,25.692 L104.874,21.428 L107.214,21.428 L104.874,27.2 L106.85,32.244 L111.218,21.402 Z M115.846,35 L115.846,21.402 L118.706,21.402 L118.706,35 L115.846,35 Z M115.846,19.166 L115.846,16.02 L118.706,16.02 L118.706,19.166 L115.846,19.166 Z M125.752,35.26 C125.09333,35.26 124.482336,35.1516677 123.919,34.935 C123.355664,34.7183322 122.870335,34.4193352 122.463,34.038 C122.055665,33.6566648 121.735001,33.2060026 121.501,32.686 C121.266999,32.1659974 121.15,31.6026697 121.15,30.996 C121.15,30.3546635 121.288665,29.7740026 121.566,29.254 C121.843335,28.7339974 122.237664,28.2833352 122.749,27.902 C123.260336,27.5206648 123.866996,27.226001 124.569,27.018 C125.271004,26.809999 126.046662,26.706 126.896,26.706 C127.537337,26.706 128.169997,26.7623328 128.794,26.875 C129.418003,26.9876672 129.981331,27.1393324 130.484,27.33 L130.484,26.394 C130.484,25.3886616 130.198003,24.6043361 129.626,24.041 C129.053997,23.4776638 128.230672,23.196 127.156,23.196 C126.427996,23.196 125.713004,23.330332 125.011,23.599 C124.308996,23.867668 123.585337,24.2533308 122.84,24.756 L121.956,22.936 C123.706675,21.7573274 125.526657,21.168 127.416,21.168 C129.288009,21.168 130.743995,21.6446619 131.784,22.598 C132.824005,23.5513381 133.344,24.9206577 133.344,26.706 L133.344,31.62 C133.344,32.2266697 133.595331,32.5386666 134.098,32.556 L134.098,35 C133.820665,35.0520003 133.582334,35.0866666 133.383,35.104 C133.183666,35.1213334 132.988668,35.13 132.798,35.13 C132.243331,35.13 131.814335,34.9913347 131.511,34.714 C131.207665,34.4366653 131.021334,34.0813355 130.952,33.648 L130.874,32.79 C130.26733,33.5873373 129.517671,34.1983312 128.625,34.623 C127.732329,35.0476688 126.774672,35.26 125.752,35.26 L125.752,35.26 Z M126.532,33.154 C127.225337,33.154 127.879664,33.0283346 128.495,32.777 C129.110336,32.5256654 129.591332,32.1746689 129.938,31.724 C130.302002,31.4119984 130.484,31.0826684 130.484,30.736 L130.484,28.942 C129.998664,28.7513324 129.483003,28.6040005 128.937,28.5 C128.390997,28.3959995 127.858003,28.344 127.338,28.344 C126.315328,28.344 125.479003,28.5649978 124.829,29.007 C124.178997,29.4490022 123.854,30.0339964 123.854,30.762 C123.854,31.4380034 124.105331,32.0056644 124.608,32.465 C125.110669,32.9243356 125.751996,33.154 126.532,33.154 L126.532,33.154 Z M148.996,35 L146.136,35 L146.136,27.382 C146.136,26.0993269 145.932335,25.1676696 145.525,24.587 C145.117665,24.0063304 144.515337,23.716 143.718,23.716 C143.301998,23.716 142.886002,23.7939992 142.47,23.95 C142.053998,24.1060008 141.664002,24.3269986 141.3,24.613 C140.935998,24.8990014 140.611001,25.236998 140.325,25.627 C140.038999,26.0170019 139.818001,26.4459977 139.662,26.914 L139.662,35 L136.802,35 L136.802,21.402 L139.402,21.402 L139.402,24.132 C139.922003,23.2133287 140.675995,22.4896693 141.664,21.961 C142.652005,21.4323307 143.743994,21.168 144.94,21.168 C145.754671,21.168 146.421997,21.3153319 146.942,21.61 C147.462003,21.9046681 147.873665,22.3076641 148.177,22.819 C148.480335,23.3303359 148.692666,23.9196633 148.814,24.587 C148.935334,25.2543367 148.996,25.9606629 148.996,26.706 L148.996,35 Z M155.938,35.26 C155.27933,35.26 154.668336,35.1516677 154.105,34.935 C153.541664,34.7183322 153.056335,34.4193352 152.649,34.038 C152.241665,33.6566648 151.921001,33.2060026 151.687,32.686 C151.452999,32.1659974 151.336,31.6026697 151.336,30.996 C151.336,30.3546635 151.474665,29.7740026 151.752,29.254 C152.029335,28.7339974 152.423664,28.2833352 152.935,27.902 C153.446336,27.5206648 154.052996,27.226001 154.755,27.018 C155.457004,26.809999 156.232662,26.706 157.082,26.706 C157.723337,26.706 158.355997,26.7623328 158.98,26.875 C159.604003,26.9876672 160.167331,27.1393324 160.67,27.33 L160.67,26.394 C160.67,25.3886616 160.384003,24.6043361 159.812,24.041 C159.239997,23.4776638 158.416672,23.196 157.342,23.196 C156.613996,23.196 155.899004,23.330332 155.197,23.599 C154.494996,23.867668 153.771337,24.2533308 153.026,24.756 L152.142,22.936 C153.892675,21.7573274 155.712657,21.168 157.602,21.168 C159.474009,21.168 160.929995,21.6446619 161.97,22.598 C163.010005,23.5513381 163.53,24.9206577 163.53,26.706 L163.53,31.62 C163.53,32.2266697 163.781331,32.5386666 164.284,32.556 L164.284,35 C164.006665,35.0520003 163.768334,35.0866666 163.569,35.104 C163.369666,35.1213334 163.174668,35.13 162.984,35.13 C162.429331,35.13 162.000335,34.9913347 161.697,34.714 C161.393665,34.4366653 161.207334,34.0813355 161.138,33.648 L161.06,32.79 C160.45333,33.5873373 159.703671,34.1983312 158.811,34.623 C157.918329,35.0476688 156.960672,35.26 155.938,35.26 L155.938,35.26 Z M156.718,33.154 C157.411337,33.154 158.065664,33.0283346 158.681,32.777 C159.296336,32.5256654 159.777332,32.1746689 160.124,31.724 C160.488002,31.4119984 160.67,31.0826684 160.67,30.736 L160.67,28.942 C160.184664,28.7513324 159.669003,28.6040005 159.123,28.5 C158.576997,28.3959995 158.044003,28.344 157.524,28.344 C156.501328,28.344 155.665003,28.5649978 155.015,29.007 C154.364997,29.4490022 154.04,30.0339964 154.04,30.762 C154.04,31.4380034 154.291331,32.0056644 154.794,32.465 C155.296669,32.9243356 155.937996,33.154 156.718,33.154 L156.718,33.154 Z M184.694,20.882 C184.520666,20.6913324 184.269335,20.4876677 183.94,20.271 C183.610665,20.0543322 183.225002,19.8506676 182.783,19.66 C182.340998,19.4693324 181.855669,19.3133339 181.327,19.192 C180.798331,19.0706661 180.256669,19.01 179.702,19.01 C178.471327,19.01 177.56567,19.2353311 176.985,19.686 C176.40433,20.1366689 176.114,20.7606627 176.114,21.558 C176.114,22.0086689 176.204999,22.3769986 176.387,22.663 C176.569001,22.9490014 176.850665,23.2003322 177.232,23.417 C177.613335,23.6336677 178.089997,23.8243325 178.662,23.989 C179.234003,24.1536675 179.90133,24.3313324 180.664,24.522 C181.600005,24.7473345 182.444996,24.9986653 183.199,25.276 C183.953004,25.5533347 184.589997,25.8913313 185.11,26.29 C185.630003,26.6886687 186.032999,27.1783304 186.319,27.759 C186.605001,28.3396696 186.748,29.0459958 186.748,29.878 C186.748,30.8140047 186.570335,31.6199966 186.215,32.296 C185.859665,32.9720034 185.374336,33.5223312 184.759,33.947 C184.143664,34.3716688 183.428671,34.6836657 182.614,34.883 C181.799329,35.0823343 180.924005,35.182 179.988,35.182 C178.583993,35.182 177.227673,34.9696688 175.919,34.545 C174.610327,34.1203312 173.427339,33.5006707 172.37,32.686 L173.696,30.19 C173.921334,30.4153345 174.246331,30.6666653 174.671,30.944 C175.095669,31.2213347 175.589664,31.4769988 176.153,31.711 C176.716336,31.9450012 177.32733,32.1443325 177.986,32.309 C178.64467,32.4736675 179.32933,32.556 180.04,32.556 C181.184006,32.556 182.067997,32.3566687 182.692,31.958 C183.316003,31.5593313 183.628,30.9700039 183.628,30.19 C183.628,29.7219977 183.511001,29.3320016 183.277,29.02 C183.042999,28.7079984 182.709336,28.4350012 182.276,28.201 C181.842665,27.9669988 181.314003,27.7546676 180.69,27.564 C180.065997,27.3733324 179.355337,27.174001 178.558,26.966 C177.639329,26.7233321 176.83767,26.467668 176.153,26.199 C175.46833,25.930332 174.900669,25.6053352 174.45,25.224 C173.999331,24.8426648 173.657001,24.3963359 173.423,23.885 C173.188999,23.3736641 173.072,22.7540036 173.072,22.026 C173.072,21.1246622 173.245332,20.3230035 173.592,19.621 C173.938668,18.9189965 174.410997,18.329669 175.009,17.853 C175.607003,17.3763309 176.313329,17.0166679 177.128,16.774 C177.942671,16.5313321 178.826662,16.41 179.78,16.41 C181.028006,16.41 182.180661,16.6093313 183.238,17.008 C184.295339,17.4066687 185.222663,17.9006637 186.02,18.49 L184.694,20.882 Z M195.406,35.26 C194.331328,35.26 193.365004,35.0693352 192.507,34.688 C191.648996,34.3066648 190.91667,33.7953365 190.31,33.154 C189.70333,32.5126635 189.235335,31.7630043 188.906,30.905 C188.576665,30.0469957 188.412,29.1500047 188.412,28.214 C188.412,27.2779953 188.576665,26.3810043 188.906,25.523 C189.235335,24.6649957 189.707664,23.9153365 190.323,23.274 C190.938336,22.6326635 191.674996,22.1213352 192.533,21.74 C193.391004,21.3586648 194.348661,21.168 195.406,21.168 C196.463339,21.168 197.420996,21.3586648 198.279,21.74 C199.137004,22.1213352 199.873664,22.6326635 200.489,23.274 C201.104336,23.9153365 201.576665,24.6649957 201.906,25.523 C202.235335,26.3810043 202.4,27.2779953 202.4,28.214 C202.4,29.1500047 202.235335,30.0469957 201.906,30.905 C201.576665,31.7630043 201.104336,32.5126635 200.489,33.154 C199.873664,33.7953365 199.137004,34.3066648 198.279,34.688 C197.420996,35.0693352 196.463339,35.26 195.406,35.26 L195.406,35.26 Z M191.35,28.24 C191.35,28.89867 191.453999,29.5053306 191.662,30.06 C191.870001,30.6146694 192.155998,31.0956646 192.52,31.503 C192.884002,31.9103354 193.312998,32.2309988 193.807,32.465 C194.301002,32.6990012 194.833997,32.816 195.406,32.816 C195.978003,32.816 196.510998,32.6990012 197.005,32.465 C197.499002,32.2309988 197.927998,31.9060021 198.292,31.49 C198.656002,31.0739979 198.941999,30.5886694 199.15,30.034 C199.358001,29.4793306 199.462,28.87267 199.462,28.214 C199.462,27.5726635 199.358001,26.9703361 199.15,26.407 C198.941999,25.8436638 198.656002,25.3540021 198.292,24.938 C197.927998,24.5219979 197.499002,24.1970012 197.005,23.963 C196.510998,23.7289988 195.978003,23.612 195.406,23.612 C194.851331,23.612 194.327002,23.7333321 193.833,23.976 C193.338998,24.2186679 192.910002,24.5479979 192.546,24.964 C192.181998,25.3800021 191.891668,25.8696638 191.675,26.433 C191.458332,26.9963361 191.35,27.5986635 191.35,28.24 L191.35,28.24 Z M204.974,16.02 L207.834,16.02 L207.834,31.074 C207.834,31.5766692 207.963999,31.9709986 208.224,32.257 C208.484001,32.5430014 208.847998,32.686 209.316,32.686 C209.506668,32.686 209.727665,32.6513337 209.979,32.582 C210.230335,32.5126663 210.468666,32.4346671 210.694,32.348 L211.11,34.584 C210.693998,34.7746676 210.200003,34.9263328 209.628,35.039 C209.055997,35.1516672 208.544669,35.208 208.094,35.208 C207.105995,35.208 206.339003,34.939336 205.793,34.402 C205.246997,33.864664 204.974,33.1020049 204.974,32.114 L204.974,16.02 Z M216.96,35.26 C215.53866,35.26 214.464004,34.796338 213.736,33.869 C213.007996,32.941662 212.644,31.5593425 212.644,29.722 L212.644,21.402 L215.504,21.402 L215.504,29.15 C215.504,31.5940122 216.370658,32.816 218.104,32.816 C218.918671,32.816 219.689996,32.5646692 220.418,32.062 C221.146004,31.5593308 221.709331,30.8313381 222.108,29.878 L222.108,21.402 L224.968,21.402 L224.968,31.62 C224.968,31.949335 225.024333,32.1833326 225.137,32.322 C225.249667,32.4606674 225.453332,32.5386666 225.748,32.556 L225.748,35 C225.453332,35.0520003 225.210668,35.0866666 225.02,35.104 C224.829332,35.1213334 224.647334,35.13 224.474,35.13 C223.953997,35.13 223.512002,34.9870014 223.148,34.701 C222.783998,34.4149986 222.593333,34.0466689 222.576,33.596 L222.524,32.244 C221.91733,33.2320049 221.128672,33.9816641 220.158,34.493 C219.187328,35.0043359 218.121339,35.26 216.96,35.26 L216.96,35.26 Z M236.174,34.298 C235.809998,34.4713342 235.307337,34.6663322 234.666,34.883 C234.024663,35.0996677 233.340004,35.208 232.612,35.208 C232.161331,35.208 231.736669,35.1473339 231.338,35.026 C230.939331,34.9046661 230.588335,34.7226679 230.285,34.48 C229.981665,34.2373321 229.743334,33.9210019 229.57,33.531 C229.396666,33.140998 229.31,32.6686694 229.31,32.114 L229.31,23.612 L227.516,23.612 L227.516,21.402 L229.31,21.402 L229.31,16.93 L232.17,16.93 L232.17,21.402 L235.134,21.402 L235.134,23.612 L232.17,23.612 L232.17,31.204 C232.204667,31.6893358 232.356332,32.0403322 232.625,32.257 C232.893668,32.4736677 233.227331,32.582 233.626,32.582 C234.024669,32.582 234.405998,32.5126674 234.77,32.374 C235.134002,32.2353326 235.402666,32.1226671 235.576,32.036 L236.174,34.298 Z M238.15,35 L238.15,21.402 L241.01,21.402 L241.01,35 L238.15,35 Z M238.15,19.166 L238.15,16.02 L241.01,16.02 L241.01,19.166 L238.15,19.166 Z M250.552,35.26 C249.477328,35.26 248.511004,35.0693352 247.653,34.688 C246.794996,34.3066648 246.06267,33.7953365 245.456,33.154 C244.84933,32.5126635 244.381335,31.7630043 244.052,30.905 C243.722665,30.0469957 243.558,29.1500047 243.558,28.214 C243.558,27.2779953 243.722665,26.3810043 244.052,25.523 C244.381335,24.6649957 244.853664,23.9153365 245.469,23.274 C246.084336,22.6326635 246.820996,22.1213352 247.679,21.74 C248.537004,21.3586648 249.494661,21.168 250.552,21.168 C251.609339,21.168 252.566996,21.3586648 253.425,21.74 C254.283004,22.1213352 255.019664,22.6326635 255.635,23.274 C256.250336,23.9153365 256.722665,24.6649957 257.052,25.523 C257.381335,26.3810043 257.546,27.2779953 257.546,28.214 C257.546,29.1500047 257.381335,30.0469957 257.052,30.905 C256.722665,31.7630043 256.250336,32.5126635 255.635,33.154 C255.019664,33.7953365 254.283004,34.3066648 253.425,34.688 C252.566996,35.0693352 251.609339,35.26 250.552,35.26 L250.552,35.26 Z M246.496,28.24 C246.496,28.89867 246.599999,29.5053306 246.808,30.06 C247.016001,30.6146694 247.301998,31.0956646 247.666,31.503 C248.030002,31.9103354 248.458998,32.2309988 248.953,32.465 C249.447002,32.6990012 249.979997,32.816 250.552,32.816 C251.124003,32.816 251.656998,32.6990012 252.151,32.465 C252.645002,32.2309988 253.073998,31.9060021 253.438,31.49 C253.802002,31.0739979 254.087999,30.5886694 254.296,30.034 C254.504001,29.4793306 254.608,28.87267 254.608,28.214 C254.608,27.5726635 254.504001,26.9703361 254.296,26.407 C254.087999,25.8436638 253.802002,25.3540021 253.438,24.938 C253.073998,24.5219979 252.645002,24.1970012 252.151,23.963 C251.656998,23.7289988 251.124003,23.612 250.552,23.612 C249.997331,23.612 249.473002,23.7333321 248.979,23.976 C248.484998,24.2186679 248.056002,24.5479979 247.692,24.964 C247.327998,25.3800021 247.037668,25.8696638 246.821,26.433 C246.604332,26.9963361 246.496,27.5986635 246.496,28.24 L246.496,28.24 Z M272.288,35 L269.428,35 L269.428,27.382 C269.428,26.0993269 269.224335,25.1676696 268.817,24.587 C268.409665,24.0063304 267.807337,23.716 267.01,23.716 C266.593998,23.716 266.178002,23.7939992 265.762,23.95 C265.345998,24.1060008 264.956002,24.3269986 264.592,24.613 C264.227998,24.8990014 263.903001,25.236998 263.617,25.627 C263.330999,26.0170019 263.110001,26.4459977 262.954,26.914 L262.954,35 L260.094,35 L260.094,21.402 L262.694,21.402 L262.694,24.132 C263.214003,23.2133287 263.967995,22.4896693 264.956,21.961 C265.944005,21.4323307 267.035994,21.168 268.232,21.168 C269.046671,21.168 269.713997,21.3153319 270.234,21.61 C270.754003,21.9046681 271.165665,22.3076641 271.469,22.819 C271.772335,23.3303359 271.984666,23.9196633 272.106,24.587 C272.227334,25.2543367 272.288,25.9606629 272.288,26.706 L272.288,35 Z M280.556,35.26 C279.463995,35.26 278.376339,35.0823351 277.293,34.727 C276.209661,34.3716649 275.278004,33.86467 274.498,33.206 L275.642,31.386 C276.456671,31.9753363 277.262663,32.4216651 278.06,32.725 C278.857337,33.0283348 279.671996,33.18 280.504,33.18 C281.353338,33.18 282.024998,33.015335 282.519,32.686 C283.013002,32.356665 283.26,31.8886697 283.26,31.282 C283.26,30.7099971 282.982669,30.2940013 282.428,30.034 C281.873331,29.7739987 281.006673,29.4880016 279.828,29.176 C278.978662,28.9506655 278.25067,28.734001 277.644,28.526 C277.03733,28.317999 276.543335,28.0753347 276.162,27.798 C275.780665,27.5206653 275.503334,27.2000018 275.33,26.836 C275.156666,26.4719982 275.07,26.0300026 275.07,25.51 C275.07,24.8166632 275.204332,24.201336 275.473,23.664 C275.741668,23.126664 276.114331,22.6716685 276.591,22.299 C277.067669,21.9263315 277.626663,21.6446676 278.268,21.454 C278.909337,21.2633324 279.602663,21.168 280.348,21.168 C281.370672,21.168 282.323996,21.3239984 283.208,21.636 C284.092004,21.9480016 284.880663,22.3986637 285.574,22.988 L284.352,24.704 C283.08666,23.6986616 281.74334,23.196 280.322,23.196 C279.593996,23.196 278.983002,23.3476651 278.489,23.651 C277.994998,23.9543348 277.748,24.43533 277.748,25.094 C277.748,25.3713347 277.799999,25.6053324 277.904,25.796 C278.008001,25.9866676 278.176999,26.1513326 278.411,26.29 C278.645001,26.4286674 278.948331,26.5543328 279.321,26.667 C279.693669,26.7796672 280.157331,26.9053326 280.712,27.044 C281.630671,27.2693345 282.423663,27.4946655 283.091,27.72 C283.758337,27.9453345 284.308665,28.2096651 284.742,28.513 C285.175336,28.8163348 285.495999,29.1716646 285.704,29.579 C285.912001,29.9863354 286.016,30.4759971 286.016,31.048 C286.016,32.3480065 285.526338,33.3749962 284.547,34.129 C283.567662,34.8830038 282.237342,35.26 280.556,35.26 L280.556,35.26 Z" id="Sawiana-Solutions" fill="#FFFFFF"></path>
    </g>
</svg>