<svg width="45px" height="44px" viewBox="308 476 45 44" version="1.1" xmlns="http://www.w3.org/2000/svg" xmlns:xlink="http://www.w3.org/1999/xlink">
    <defs></defs>
    <path d="M352.571429,493.1875 C352.571429,493.580359 352.339288,494.008926 351.875,494.473214 L342.151786,503.955357 L344.455357,517.348214 C344.473214,517.473215 344.482143,517.651785 344.482143,517.883929 C344.482143,518.25893 344.388394,518.575892 344.200893,518.834821 C344.013392,519.093751 343.741073,519.223214 343.383929,519.223214 C343.044641,519.223214 342.687502,519.116072 342.3125,518.901786 L330.285714,512.580357 L318.258929,518.901786 C317.866069,519.116072 317.50893,519.223214 317.1875,519.223214 C316.812498,519.223214 316.531251,519.093751 316.34375,518.834821 C316.156249,518.575892 316.0625,518.25893 316.0625,517.883929 C316.0625,517.776785 316.080357,517.598216 316.116071,517.348214 L318.419643,503.955357 L308.669643,494.473214 C308.223212,493.991069 308,493.562502 308,493.1875 C308,492.526782 308.499995,492.116072 309.5,491.955357 L322.946429,490 L328.973214,477.8125 C329.312502,477.080353 329.749997,476.714286 330.285714,476.714286 C330.821431,476.714286 331.258927,477.080353 331.598214,477.8125 L337.625,490 L351.071429,491.955357 C352.071434,492.116072 352.571429,492.526782 352.571429,493.1875 L352.571429,493.1875 Z" id="" stroke="none" fill="#FFFFFF" fill-rule="evenodd"></path>
</svg>